<?xml version="1.0" encoding="utf-8"?>
<!-- Generator: Adobe Illustrator 24.1.2, SVG Export Plug-In . SVG Version: 6.00 Build 0)  -->
<svg version="1.1" xmlns="http://www.w3.org/2000/svg" xmlns:xlink="http://www.w3.org/1999/xlink" x="0px" y="0px"
	 viewBox="0 0 400 550" style="enable-background:new 0 0 400 550;" xml:space="preserve">
<g id="Layer_2">
</g>
<g id="Layer_1">
	<g>
		<path d="M193.59,211.98c-0.55,3.17-1.06,6.32-1.4,9.5c-0.4,3.17-0.64,6.34-0.78,9.52c-0.05,1.59-0.12,3.17-0.12,4.76
			c-0.02,1.61,0.02,3.1,0.03,4.84c0.04,3.36,0.11,6.69,0.37,9.38c0.13,1.33,0.34,2.48,0.57,3.1c0.24,0.66,0.35,0.64,0.32,0.62
			c0.01,0,0.02,0,0.03,0l0,0.01c0.02,0.03-0.08-0.08-0.12-0.11c-0.08-0.06-0.32-0.28-0.52-0.38c-0.16-0.13-0.41-0.24-0.54-0.31
			c-0.09-0.06-0.28-0.12-0.32-0.14c-0.03-0.02-0.06-0.03-0.09-0.04c0.02,0,0.09,0.01,0.13,0.01l0.07,0.02l0.15,0.02
			c0.2,0.02,0.39,0.06,0.7,0.07c0.28,0.02,0.54,0.05,0.89,0.06l1,0.04l1.08,0.02c2.94,0.04,6.23-0.12,9.5-0.33
			c3.28-0.2,6.62-0.43,9.96-0.71l10.06-0.91l1.46-0.13l0.88-0.06l1.13-0.04c0.87-0.01,2.23,0.06,3.58,0.39
			c0.31,0.08,0.68,0.17,0.93,0.25l0.78,0.26c0.43,0.18,0.86,0.36,1.29,0.56c1.76,0.75,3.19,1.81,4.54,2.89
			c0.59,0.55,1.17,1.12,1.73,1.71l0.42,0.44l0.34,0.43l0.65,0.87c0.41,0.57,0.89,1.19,1.2,1.75l0.94,1.69
			c0.67,1.17,1.02,2.19,1.49,3.29c0.49,1.11,0.75,2.1,1.08,3.14l0.47,1.55l0.35,1.49c1,4.01,1.38,7.75,1.74,11.49
			c0.62,7.42,0.51,14.55,0.17,21.62c-0.19,3.54-0.32,7.04-0.78,10.53c-0.32,1.74-1.03,3.45-2.19,5.12
			c-0.56,0.84-1.25,1.66-2.08,2.47c-0.84,0.81-1.79,1.61-3.1,2.37l-3.13-0.23c-1.2-0.94-2.04-1.85-2.77-2.75
			c-0.73-0.9-1.31-1.78-1.76-2.65c-0.95-1.74-1.4-3.45-1.61-5.13c-0.1-0.84-0.08-1.67-0.08-2.51l0.02-2.5
			c0.02-1.67-0.05-3.32-0.07-4.98c-0.02-1.66-0.06-3.31-0.15-4.94c-0.09-1.63-0.13-3.29-0.25-4.9c-0.12-1.61-0.21-3.23-0.35-4.83
			c-0.18-1.57-0.33-3.16-0.53-4.71l-0.35-2.28c-0.11-0.76-0.23-1.53-0.4-2.24l-0.44-2.17c-0.15-0.71-0.36-1.35-0.53-2.03l-0.26-1
			l-0.32-0.89c-0.21-0.58-0.4-1.24-0.65-1.69c-0.24-0.46-0.44-1.07-0.68-1.36c-0.11-0.18-0.22-0.36-0.32-0.54
			c-0.1-0.19-0.2-0.21-0.28-0.34c-0.04-0.05-0.08-0.1-0.12-0.16l-0.05-0.08c-0.02,0-0.03-0.01-0.04-0.01
			c-0.05-0.02-0.08-0.05-0.1-0.1c-0.01,0.07,0.07,0.04,0.22,0.18c0.04,0.02,0.08,0.02,0.13,0.02c0.05,0.02,0.11,0.04,0.17,0.06
			c0.05,0.01,0.21,0.07,0.31,0.09c0.21,0.06,0.57,0.1,0.71,0.12c0.24,0.02,0.25,0.02,0.33,0.02l-1.64,0.17l-5.14,0.58l-5.24,0.49
			c-3.48,0.3-6.97,0.59-10.52,0.78c-3.56,0.18-7.11,0.33-11.02,0.24l-1.48-0.05l-1.57-0.1c-0.5-0.03-1.1-0.1-1.67-0.16
			c-0.54-0.05-1.2-0.16-1.84-0.26l-0.48-0.08l-0.56-0.12l-1.12-0.27c-0.44-0.13-0.88-0.27-1.32-0.41c-0.45-0.15-1.02-0.4-1.51-0.62
			c-0.52-0.24-1.13-0.59-1.67-0.92c-0.54-0.36-1.15-0.8-1.54-1.14c-0.2-0.17-0.47-0.4-0.6-0.53l-0.45-0.45l-0.88-0.91
			c-1.11-1.29-2.12-2.73-2.82-4.18l-0.52-1.09l-0.41-1.06c-0.29-0.73-0.46-1.38-0.66-2.06c-0.71-2.67-0.92-4.94-1.05-7.01
			c-0.12-2.07-0.11-3.99-0.06-5.81c0.04-1.83,0.12-3.59,0.19-5.32c0.08-1.67,0.19-3.61,0.34-5.41c0.15-1.83,0.33-3.66,0.57-5.48
			c0.5-3.64,1.12-7.25,1.91-10.83c0.83-3.56,1.78-7.1,2.96-10.55L193.59,211.98z"/>
	</g>
	<circle cx="190" cy="188" r="17"/>
	<g>
		<path d="M213.95,277.26c0.68,4.37,0.98,8.9,0.35,13.39c-0.06,1.13-0.37,2.23-0.57,3.34c-0.24,1.11-0.43,2.23-0.81,3.3l-1.03,3.25
			c-0.43,1.05-0.88,2.09-1.33,3.14c-1.95,4.1-4.38,8.03-7.48,11.42c-3.06,3.41-6.6,6.46-10.61,8.8l-1.49,0.91l-1.56,0.78
			c-1.05,0.5-2.08,1.06-3.17,1.49c-1.09,0.41-2.2,0.8-3.3,1.19c-0.55,0.21-1.11,0.36-1.68,0.49l-1.71,0.42
			c-2.27,0.64-4.62,0.81-6.95,1.12c-1.17,0.05-2.35,0.07-3.53,0.09c-0.59,0-1.18,0.04-1.76,0l-1.76-0.14
			c-4.71-0.29-9.32-1.54-13.66-3.3c-4.37-1.72-8.39-4.22-12.01-7.15c-3.65-2.92-6.75-6.49-9.36-10.36
			c-2.65-3.86-4.63-8.19-5.95-12.7c-1.39-4.51-1.84-9.27-1.75-13.95c0.06-4.71,1.07-9.36,2.65-13.73c0.74-2.21,1.8-4.29,2.83-6.36
			l1.79-2.97c0.58-1,1.34-1.88,2.01-2.81c0.35-0.46,0.68-0.92,1.05-1.37l1.15-1.28c0.78-0.84,1.5-1.73,2.37-2.48
			c0.84-0.78,1.67-1.56,2.53-2.31l2.71-2.08c3.74-2.6,7.78-4.71,12.06-6.15c2.17-0.61,4.32-1.28,6.55-1.58
			c2.2-0.44,4.44-0.48,6.65-0.63l0.86,11.97c-3.24,0.57-6.35,1.5-9.28,2.77c-2.9,1.36-5.59,3.08-8,5.11c-2.44,1.99-4.48,4.43-6.2,7
			c-0.4,0.67-0.88,1.28-1.22,1.97l-1.09,2.04c-0.58,1.42-1.24,2.81-1.62,4.28c-1.76,5.8-1.8,12.05,0.08,17.72l0.32,1.07l0.44,1.04
			c0.31,0.68,0.52,1.4,0.88,2.07l1.06,1.99c0.34,0.67,0.83,1.26,1.22,1.9c1.71,2.48,3.73,4.78,6.12,6.64
			c2.33,1.91,4.9,3.59,7.69,4.69l1.03,0.46l1.07,0.34c0.72,0.21,1.41,0.51,2.14,0.66l2.19,0.47c0.73,0.18,1.48,0.18,2.22,0.3
			l1.11,0.14c0.37,0.05,0.75,0.01,1.12,0.02l2.25,0.03c1.48-0.2,3-0.19,4.45-0.59c2.96-0.53,5.81-1.62,8.51-3.04
			c2.74-1.36,5.17-3.33,7.41-5.47c2.3-2.12,4.12-4.71,5.7-7.42l1.14-2.08l0.92-2.19c0.35-0.72,0.54-1.49,0.77-2.25
			c0.2-0.77,0.55-1.51,0.66-2.3l0.49-2.35c0.15-0.79,0.17-1.59,0.27-2.39l0.14-1.21c0.03-0.4,0.01-0.81,0.02-1.21l0.02-2.45
			L213.95,277.26z"/>
	</g>
	<g>
		<path d="M183.04,221.77c3.15-0.16,6.27,0.04,9.38,0.32c3.12,0.3,6.22,0.74,9.32,1.28c3.1,0.53,6.19,1.22,9.28,1.94l2.31,0.58
			c0.77,0.2,1.55,0.34,2.3,0.74c1.52,0.79,3,2.07,4.39,4.86l-0.06,1.01c-1.73,2.59-3.37,3.67-4.98,4.26
			c-0.8,0.29-1.59,0.33-2.38,0.43l-2.37,0.28c-3.16,0.32-6.31,0.61-9.45,0.74c-3.14,0.14-6.28,0.18-9.41,0.08
			c-3.13-0.12-6.25-0.32-9.35-0.88L183.04,221.77z"/>
	</g>
</g>
</svg>
