<?xml version="1.0" encoding="utf-8"?>
<!-- Generator: Adobe Illustrator 24.1.2, SVG Export Plug-In . SVG Version: 6.00 Build 0)  -->
<svg version="1.1" xmlns="http://www.w3.org/2000/svg" xmlns:xlink="http://www.w3.org/1999/xlink" x="0px" y="0px"
	 viewBox="0 0 400 550" style="enable-background:new 0 0 400 550;" xml:space="preserve">
<g id="Layer_2">
</g>
<g id="Layer_1">
	<g>
		<path d="M242.13,176.95c-10.19-0.1-20.15,1.45-29.36,4.91c-9.24,3.35-17.68,8.56-24.86,15.02c-7.18,6.47-13.06,14.27-17.12,22.79
			c-4.05,8.52-6.26,17.75-6.25,26.93c-0.01,4.59,0.5,9.19,1.57,13.7c1.02,4.52,2.59,8.95,4.61,13.2
			c4.04,8.51,9.97,16.26,17.14,22.71c7.2,6.43,15.65,11.62,24.89,14.95c9.22,3.45,19.18,4.98,29.37,4.88l1.77,15.9
			c-12.07,2.36-24.86,1.87-37.07-1.2c-6.1-1.58-12.04-3.8-17.73-6.6c-5.68-2.81-11.07-6.23-16.07-10.19
			c-10-7.9-18.4-17.98-24.34-29.53c-2.95-5.78-5.25-11.94-6.83-18.31c-1.54-6.38-2.36-12.97-2.35-19.57
			c0.03-6.6,0.85-13.19,2.44-19.54c1.61-6.35,3.9-12.5,6.87-18.25c5.91-11.54,14.3-21.6,24.26-29.53
			c9.95-7.95,21.55-13.69,33.74-16.87c12.2-3.11,24.99-3.62,37.07-1.31L242.13,176.95z"/>
	</g>
	<g>
		<path d="M238,230.7c-2.51,1.52-5.02,2.52-7.52,3.4c-2.51,0.87-5.02,1.5-7.52,2.03c-2.51,0.5-5.02,0.85-7.52,1.07
			c-2.51,0.21-5.02,0.31-7.52,0.46c-5.02,0.3-10.03,0.54-15.05,0.76c-5.02,0.23-10.03,0.38-15.05,0.45
			c-10.03,0.17-20.07-0.01-30.1-0.47l-7.52-0.35l-7.52-0.44l-3.76-0.22c-1.25-0.05-2.51-0.21-3.76-0.61
			c-1.25-0.39-2.51-1.01-3.76-1.87c-1.25-0.87-2.51-1.98-3.76-3.69v-3.43c1.25-1.71,2.51-2.82,3.76-3.69
			c1.25-0.86,2.51-1.48,3.76-1.87c1.25-0.4,2.51-0.56,3.76-0.61l3.76-0.22l7.52-0.44l7.52-0.35c10.03-0.47,20.07-0.64,30.1-0.47
			c5.02,0.08,10.03,0.23,15.05,0.45c5.02,0.22,10.03,0.45,15.05,0.76c2.51,0.16,5.02,0.25,7.52,0.46c2.51,0.22,5.02,0.57,7.52,1.07
			c2.51,0.53,5.02,1.16,7.52,2.03c2.51,0.88,5.02,1.88,7.52,3.4V230.7z"/>
	</g>
	<g>
		<path d="M237.67,268.24c-2.51,1.52-5.02,2.52-7.52,3.4c-2.51,0.87-5.02,1.5-7.52,2.03c-2.51,0.5-5.02,0.85-7.52,1.07
			c-2.51,0.21-5.02,0.31-7.52,0.46c-5.02,0.3-10.03,0.54-15.05,0.76c-5.02,0.23-10.03,0.38-15.05,0.45
			c-10.03,0.17-20.07-0.01-30.1-0.47l-7.52-0.35l-7.52-0.44l-3.76-0.22c-1.25-0.05-2.51-0.21-3.76-0.61
			c-1.25-0.39-2.51-1.01-3.76-1.87c-1.25-0.87-2.51-1.98-3.76-3.69v-3.43c1.25-1.71,2.51-2.82,3.76-3.69
			c1.25-0.86,2.51-1.48,3.76-1.87c1.25-0.4,2.51-0.56,3.76-0.61l3.76-0.22l7.52-0.44l7.52-0.35c10.03-0.47,20.07-0.64,30.1-0.47
			c5.02,0.08,10.03,0.23,15.05,0.45c5.02,0.22,10.03,0.45,15.05,0.76c2.51,0.16,5.02,0.25,7.52,0.46c2.51,0.22,5.02,0.57,7.52,1.07
			c2.51,0.53,5.02,1.16,7.52,2.03c2.51,0.88,5.02,1.88,7.52,3.4V268.24z"/>
	</g>
</g>
</svg>
