<?xml version="1.0" encoding="utf-8"?>
<!-- Generator: Adobe Illustrator 24.1.2, SVG Export Plug-In . SVG Version: 6.00 Build 0)  -->
<svg version="1.1" id="Layer_1" xmlns="http://www.w3.org/2000/svg" xmlns:xlink="http://www.w3.org/1999/xlink" x="0px" y="0px"
	 viewBox="0 0 400 550" style="enable-background:new 0 0 400 550;" xml:space="preserve">
<style type="text/css">
	.st0{fill:#009245;}
</style>
<g>
	<path class="st0" d="M231.5,271.5c-3.56-5.58-7.52-13.89-6-23c1.89-11.33,10.73-14.73,20-26c16.94-20.6,17.73-46.15,18-55
		c0.36-11.79,0.85-27.5-9-43c-10.86-17.1-31.51-29.58-54-29c-30.24,0.79-51.17,24.87-59,45c-11.32,29.09-1.6,66.21,19,84
		c10.01,8.65,22.88,12.98,24,24c0.82,8.05-5.08,15.28-10,20c3.18,2.6,14.47,11.16,31,11C218.44,279.38,227.75,273.98,231.5,271.5z"
		/>
	<path d="M227.13,270.57c-0.32,0.44-0.46,1.08-0.35,1.6c0.02,0.13,0.06,0.25,0.1,0.36c0.02,0.05,0.05,0.11,0.07,0.15
		c0.04,0.08,0.04,0.07,0,0.01l-0.25-0.41c-0.34-0.54-0.67-1.1-0.99-1.66c-0.65-1.12-1.25-2.27-1.81-3.46
		c-1.12-2.38-2.06-4.89-2.71-7.54c-1.31-5.31-1.31-11.14,0.57-16.73c0.97-2.8,2.49-5.41,4.19-7.61c1.7-2.21,3.52-4.05,5.24-5.76
		c3.48-3.41,6.61-6.45,9.36-9.84c5.48-6.73,9.52-14.56,12.17-22.92c2.62-8.39,3.9-17.2,4.15-26.17c0.07-2.22,0.09-4.63,0.11-6.92
		c0.01-2.29-0.01-4.54-0.12-6.74c-0.19-4.41-0.72-8.66-1.7-12.73c-1.9-8.16-5.9-15.48-11.42-21.69
		c-11.05-12.41-27.92-19.7-44.01-18.49l-3,0.3l-0.75,0.07l-0.74,0.16l-1.47,0.31l-1.47,0.3c-0.49,0.09-0.98,0.19-1.45,0.36
		l-2.86,0.88c-3.74,1.39-7.4,3.04-10.72,5.35c-1.72,1.02-3.26,2.38-4.88,3.57l-2.27,2.03c-0.38,0.34-0.76,0.66-1.13,1.02l-1.07,1.1
		c-2.92,2.83-5.47,6.08-7.86,9.39c-2.39,3.32-4.45,6.88-6.25,10.48c-0.94,1.8-1.7,3.63-2.44,5.47l-0.99,2.8l-0.51,1.4l-0.39,1.45
		c-2.2,7.69-2.95,16.02-2.34,24.33c0.64,8.31,2.62,16.6,5.77,24.34c1.73,3.77,3.54,7.56,5.9,10.91c1.07,1.78,2.41,3.28,3.65,4.91
		c0.64,0.79,1.37,1.46,2.05,2.2c0.68,0.73,1.37,1.48,2.14,2.14c1.5,1.37,3.18,2.72,4.99,4.09l5.71,4.29
		c1.99,1.54,4.06,3.16,6.12,5.23c2.03,2.05,4.09,4.55,5.54,7.66c1.45,3.1,2.15,6.68,1.92,9.98c-0.19,3.34-1.15,6.46-2.45,9.13
		c-2.64,5.37-6.36,9.33-10.17,12.77l-0.33-8.21c3.35,2.99,7.29,5.5,11.49,7.33c4.2,1.86,8.7,2.99,13.29,3.45
		c2.3,0.18,4.62,0.2,6.94,0.01c2.31-0.22,4.6-0.63,6.85-1.24c2.25-0.61,4.44-1.43,6.54-2.43c1.05-0.51,2.08-1.06,3.07-1.66
		c0.5-0.3,0.98-0.62,1.47-0.93l0.71-0.5c0.08-0.05-0.07,0.03-0.14,0.09c-0.08,0.06-0.17,0.13-0.25,0.21
		c-0.16,0.16-0.32,0.35-0.45,0.57C227.24,269.59,227.12,270.12,227.13,270.57z M235.87,272.43c-0.25,0.63-0.65,1.32-1.17,1.93
		c-0.26,0.3-0.55,0.58-0.85,0.83c-0.15,0.12-0.3,0.24-0.45,0.34c-0.14,0.1-0.35,0.23-0.34,0.22l-0.91,0.51
		c-0.61,0.33-1.22,0.67-1.84,0.97c-1.23,0.64-2.49,1.22-3.75,1.77c-2.54,1.09-5.14,2.02-7.81,2.76c-5.32,1.5-10.89,2.19-16.46,2.08
		c-5.57-0.17-11.16-1.18-16.43-3.1c-5.27-1.91-10.25-4.56-14.82-7.99l-4.76-3.57l4.43-4.63c2.96-3.1,5.46-6.48,6.71-9.75
		c1.23-3.28,1-6.11-0.34-8.23c-1.3-2.22-4.35-4.59-8.13-6.94l-5.97-3.71c-2.08-1.31-4.23-2.72-6.37-4.35
		c-1.09-0.79-2.1-1.68-3.12-2.59c-1-0.91-2.07-1.78-3.01-2.74c-1.82-1.96-3.78-3.87-5.35-6.01c-3.45-4.12-6.1-8.71-8.63-13.34
		c-4.76-9.4-7.81-19.55-9.23-30c-0.21-1.3-0.27-2.62-0.4-3.94c-0.1-1.32-0.27-2.63-0.29-3.96l-0.04-3.98l-0.01-1.99l0.12-2l0.26-4
		c0.08-1.33,0.34-2.66,0.51-4c0.21-1.33,0.34-2.67,0.63-3.99l0.9-3.97l0.46-1.99l0.63-1.95l1.28-3.9c0.97-2.55,2.04-5.08,3.28-7.47
		c2.45-4.81,5.3-9.37,8.67-13.52c3.32-4.19,7.01-8.09,11.15-11.53l1.53-1.3c0.52-0.42,1.08-0.81,1.61-1.22
		c1.08-0.8,2.16-1.61,3.25-2.39c2.3-1.44,4.51-2.98,6.96-4.18c9.51-5.2,20.38-8.12,31.19-8.44c10.81-0.35,21.59,1.97,31.18,6.5
		c9.6,4.51,18.2,11,24.94,19.17c3.37,4.08,6.31,8.55,8.63,13.36c2.33,4.8,4.03,9.9,5.06,15.05c1.05,5.15,1.51,10.32,1.56,15.35
		c0.04,2.52-0.02,4.99-0.11,7.42c-0.1,2.44-0.2,4.74-0.35,7.23c-0.6,9.88-2.35,19.87-5.68,29.41c-3.36,9.52-8.4,18.61-15.12,26.31
		c-3.32,3.86-7.14,7.23-10.51,10.31c-1.68,1.55-3.23,3.03-4.47,4.52c-1.25,1.49-2.17,2.98-2.83,4.62c-0.64,1.64-1.02,3.51-1.15,5.39
		c-0.13,1.89,0.02,3.83,0.42,5.79c0.39,1.95,1.01,3.92,1.82,5.85c0.41,0.97,0.85,1.93,1.34,2.88c0.24,0.48,0.5,0.95,0.76,1.42
		l0.2,0.35l0.12,0.2l0.19,0.34c0.12,0.23,0.23,0.48,0.34,0.74C235.7,270.34,235.87,271.49,235.87,272.43z"/>
</g>
<g>
	<path d="M274.5,97.5c-3.55-2-5.35-4.13-6.64-6.3c-1.29-2.17-1.51-4.41-2.05-6.63c-0.52-2.22-0.91-4.46-1.36-6.69
		c-0.38-2.23-0.79-4.47-1.1-6.71c-0.66-4.48-1.16-8.96-1.42-13.47c-0.24-4.51-0.36-9.02,0.1-13.58l16.95-1.26
		c1.12,4.44,1.67,8.93,2.1,13.42c0.4,4.49,0.57,9.01,0.58,13.53c0.03,2.26-0.05,4.53-0.1,6.79c-0.12,2.27-0.17,4.54-0.36,6.81
		c-0.21,2.28-0.09,4.53-1.05,6.87C279.18,92.63,277.72,95,274.5,97.5z"/>
</g>
<circle cx="276.5" cy="112.5" r="7.5"/>
</svg>
