<?xml version="1.0" encoding="utf-8"?>
<!-- Generator: Adobe Illustrator 24.1.2, SVG Export Plug-In . SVG Version: 6.00 Build 0)  -->
<svg version="1.1" id="Layer_1" xmlns="http://www.w3.org/2000/svg" xmlns:xlink="http://www.w3.org/1999/xlink" x="0px" y="0px"
	 viewBox="0 0 400 550" style="enable-background:new 0 0 400 550;" xml:space="preserve">
<style type="text/css">
	.st0{fill:none;stroke:#000000;stroke-width:10;stroke-miterlimit:10;}
	.st1{fill:none;stroke:#000000;stroke-width:7;stroke-miterlimit:10;}
	.st2{fill:none;stroke:#000000;stroke-width:6;stroke-miterlimit:10;}
	.st3{fill:none;stroke:#000000;stroke-width:8;stroke-miterlimit:10;}
</style>
<path class="st0" d="M246.28,142.26c-2.28-12.35-10.85-20.53-18.63-20.35c-9.77,0.23-17.88,13.63-16.7,23.89
	c2.07,18.07,32.4,21.5,32.24,36.87c-0.08,7.35-7.11,15.55-14.69,15.82c-7.28,0.26-15.09-6.79-16.99-17.57"/>
<path class="st1" d="M171.58,205.49"/>
<path class="st1" d="M169.67,102.65"/>
<line class="st2" x1="222" y1="113" x2="223" y2="211"/>
<line class="st2" x1="231" y1="113" x2="232" y2="211"/>
<path class="st3" d="M218.87,127.61c-23.9-1.27-42.8,18.9-41.21,40.07c1.55,20.69,22.33,37.64,45.38,33.74"/>
<g>
	<path d="M223.11,156.55c-1.14,0.98-2.3,1.65-3.47,2.24c-1.17,0.58-2.34,1.03-3.52,1.38c-1.18,0.36-2.36,0.62-3.55,0.8
		c-1.19,0.17-2.38,0.28-3.57,0.43c-4.76,0.55-9.53,0.98-14.31,1.15c-4.78,0.19-9.58,0.16-14.38,0.06l-3.6-0.09
		c-1.2-0.04-2.4-0.03-3.6-0.18c-2.41-0.32-4.84-0.9-7.33-2.55c2.29-1.92,4.64-2.77,7-3.36c1.18-0.29,2.37-0.41,3.56-0.58l3.57-0.49
		c4.76-0.64,9.52-1.21,14.29-1.56c4.77-0.37,9.56-0.48,14.35-0.47c1.2,0.01,2.4-0.01,3.6,0.02c1.2,0.05,2.41,0.17,3.62,0.4
		c1.21,0.22,2.43,0.53,3.65,0.97C220.64,155.17,221.87,155.71,223.11,156.55z"/>
</g>
<g>
	<path d="M222.98,174.74c-4.62,3.02-9.38,3.69-14.14,4.17c-4.76,0.54-9.53,1.02-14.31,1.26c-4.78,0.25-9.57,0.29-14.37,0.24
		c-2.4-0.07-4.79,0.05-7.21-0.31c-2.42-0.37-4.85-0.96-7.33-2.42c2.3-1.72,4.65-2.59,7.01-3.23c2.36-0.63,4.75-0.78,7.13-1.12
		c4.76-0.59,9.52-1.09,14.3-1.38c4.78-0.3,9.57-0.36,14.36-0.36c4.79-0.06,9.59,0.07,14.52,2.55L222.98,174.74z"/>
</g>
</svg>
