<?xml version="1.0" encoding="utf-8"?>
<!-- Generator: Adobe Illustrator 24.1.2, SVG Export Plug-In . SVG Version: 6.00 Build 0)  -->
<svg version="1.1" id="Layer_1" xmlns="http://www.w3.org/2000/svg" xmlns:xlink="http://www.w3.org/1999/xlink" x="0px" y="0px"
	 viewBox="0 0 400 550" style="enable-background:new 0 0 400 550;" xml:space="preserve">
<style type="text/css">
	.st0{fill:#FFFFFF;stroke:#000000;stroke-width:14;stroke-miterlimit:10;}
	.st1{fill:#7FFF0A;}
</style>
<path class="st0" d="M121,255c7.5,14.58,33.71,14.34,72,14c37.08-0.33,59.78-0.54,67-14c5.82-10.85-5.37-30.05-28-68
	c-29.04-48.72-37.39-50-41-50c-4.63-0.01-12.25,2.07-42,52C116.49,243.56,119.28,251.67,121,255z"/>
<g>
	<line class="st1" x1="191" y1="162" x2="191" y2="226"/>
	<path d="M198,162c0.39,5.33,0.45,10.67,0.39,16c-0.07,5.33-0.3,10.67-0.64,16c-0.18,2.67-0.36,5.33-0.6,8
		c-0.21,2.67-0.47,5.33-0.86,8c-0.39,2.67-0.89,5.33-1.55,8c-0.66,2.67-1.45,5.33-2.58,8h-2.3c-1.13-2.67-1.92-5.33-2.58-8
		c-0.66-2.67-1.17-5.33-1.55-8c-0.39-2.67-0.65-5.33-0.86-8c-0.24-2.67-0.42-5.33-0.6-8c-0.34-5.33-0.57-10.67-0.64-16
		c-0.06-5.33-0.01-10.67,0.39-16H198z"/>
</g>
<g>
	<line class="st1" x1="190.5" y1="232" x2="190.5" y2="255"/>
	<path d="M190.5,232c3.96,1.92,6.03,3.83,7.51,5.75c0.72,0.96,1.21,1.92,1.57,2.88c0.35,0.96,0.52,1.92,0.41,2.88
		c-0.1,0.96-0.45,1.92-0.85,2.88c-0.42,0.96-0.8,1.92-1.4,2.88c-1.2,1.92-2.82,3.83-5.76,5.75h-2.96c-2.94-1.92-4.56-3.83-5.76-5.75
		c-0.6-0.96-0.98-1.92-1.4-2.88c-0.4-0.96-0.75-1.92-0.85-2.88c-0.11-0.96,0.06-1.92,0.41-2.88c0.36-0.96,0.85-1.92,1.57-2.88
		C184.47,235.83,186.54,233.92,190.5,232z"/>
</g>
</svg>
