<?xml version="1.0" encoding="utf-8"?>
<!-- Generator: Adobe Illustrator 24.1.2, SVG Export Plug-In . SVG Version: 6.00 Build 0)  -->
<svg version="1.1" xmlns="http://www.w3.org/2000/svg" xmlns:xlink="http://www.w3.org/1999/xlink" x="0px" y="0px"
	 viewBox="0 0 400 550" style="enable-background:new 0 0 400 550;" xml:space="preserve">
<style type="text/css">
	.st0{fill:#F2F2F2;}
	.st1{fill:none;stroke:#000000;stroke-width:15.7242;stroke-miterlimit:10;}
	.st2{fill:none;stroke:#000000;stroke-width:11;stroke-miterlimit:10;}
</style>
<g id="Layer_2">
	<path class="st0" d="M226.19,156.5l-9.17,2.77c-5.92,1.79-12.2,2.04-18.24,0.74l-13.57-2.93c-16.53-3.57-33.35,4.7-40.62,19.97
		l-3.62,7.61c-2.61,5.47-6.53,10.21-11.43,13.78l-11.29,8.24c-11.18,8.16-16.78,21.94-14.46,35.58l3.3,19.37
		c0.61,3.56,0.68,7.18,0.22,10.76l-1.59,12.41c-1.68,13.09,3.85,26.07,14.44,33.93l10.55,7.82c2.19,1.62,4.19,3.49,5.96,5.55
		l14.89,17.37c7.79,9.09,19.56,13.78,31.47,12.54l21.14-2.2c5.17-0.54,10.39,0.03,15.31,1.68l3.88,1.29
		c14.75,4.92,31-0.06,40.47-12.4l14.44-18.82c1.82-2.37,3.93-4.51,6.27-6.37l8.62-6.84c10.4-8.24,15.49-21.48,13.31-34.57l-1.2-7.2
		c-0.83-5-0.62-10.12,0.64-15.03l5.1-19.93c2.48-9.7-0.25-20-7.23-27.19l-18.98-19.57c-1.2-1.23-2.3-2.55-3.31-3.94l-15.24-20.95
		C257.12,157.41,241.05,152.01,226.19,156.5z"/>
</g>
<g id="Layer_1">
	<path class="st1" d="M308.34,302.96c-4.85,13.97-16.5,11.45-33.97,30.96c-15.72,17.54-12.25,26.23-23.74,31.58
		c-12.91,6-19.11-4.1-45.99-4.13c-23.81-0.02-28.36,7.91-40.16,2.66c-12.88-5.73-9.68-16.15-26.21-31.28
		c-17.2-15.74-27.14-10.37-33.79-22.12c-8.14-14.37,5.78-24.04,2.93-53.83c-2.08-21.82-10.4-25.49-6.22-36.49
		c5.72-15.06,22.31-10.85,37.57-29.55c13.79-16.89,7.62-29.35,19.07-35.6c13.07-7.14,22.82,8.19,49.23,7.26
		c24.91-0.87,31.43-15.32,45.16-9.93c13.41,5.27,8.83,19.61,26.81,39.46c17.39,19.19,30.95,16.03,35.15,29.94
		c4.19,13.9-8.63,19.08-9.73,43.44C303.5,286.16,312.81,290.07,308.34,302.96z"/>
	<g>
		<path d="M260.81,201.73c0.2,1.28,0.26,2.43,0.23,3.5c-0.02,1.08-0.14,2.07-0.29,3.04c-0.32,1.91-0.86,3.62-1.57,5.17
			c-1.37,3.15-3.7,5.45-5.72,8.02c-4.14,5.04-8.26,10.11-12.47,15.09l-6.29,7.5l-6.38,7.41c-4.24,4.95-8.6,9.8-12.99,14.63
			c-4.38,4.83-8.87,9.56-13.37,14.28c-4.51,4.71-9.12,9.33-13.71,13.97c-4.59,4.64-9.28,9.19-13.92,13.78
			c-2.28,2.33-4.89,4.37-8.01,5.94c-1.56,0.78-3.25,1.46-5.1,1.98c-0.93,0.26-1.89,0.49-2.92,0.66c-1.01,0.18-2.11,0.29-3.3,0.31
			c-0.1-1.19-0.1-2.29-0.02-3.32c0.07-1.04,0.2-2.02,0.36-2.97c0.33-1.9,0.84-3.64,1.46-5.27c1.25-3.26,3.02-6.06,5.11-8.56
			c4.11-5.07,8.18-10.19,12.33-15.22c4.16-5.03,8.3-10.07,12.54-15.03c4.25-4.95,8.51-9.88,12.88-14.72
			c4.36-4.84,8.76-9.66,13.26-14.37l6.74-7.09l6.83-7c4.54-4.68,9.17-9.28,13.78-13.91c2.35-2.27,4.41-4.8,7.41-6.48
			c1.48-0.86,3.12-1.57,4.99-2.08c0.94-0.24,1.92-0.46,2.99-0.59c1.06-0.14,2.21-0.2,3.51-0.12L260.81,201.73z"/>
	</g>
	<circle class="st2" cx="177.5" cy="220.5" r="23"/>
	<circle class="st2" cx="245.5" cy="286.5" r="23"/>
</g>
</svg>
