<?xml version="1.0" encoding="utf-8"?>
<!-- Generator: Adobe Illustrator 24.1.2, SVG Export Plug-In . SVG Version: 6.00 Build 0)  -->
<svg version="1.1" xmlns="http://www.w3.org/2000/svg" xmlns:xlink="http://www.w3.org/1999/xlink" x="0px" y="0px"
	 viewBox="0 0 400 550" style="enable-background:new 0 0 400 550;" xml:space="preserve">
<style type="text/css">
	.st0{fill:#FFFFFF;stroke:#000000;stroke-width:20;stroke-miterlimit:10;}
</style>
<g id="Layer_2">
</g>
<g id="Layer_1">
	<circle class="st0" cx="208" cy="263" r="89.5"/>
	<g>
		<path d="M208,259c-2.21-2.83-3.75-5.67-5.06-8.5c-1.28-2.83-2.27-5.67-3.06-8.5c-0.79-2.83-1.26-5.67-1.81-8.5
			c-0.5-2.83-0.99-5.67-1.24-8.5c-0.55-5.67-0.02-11.33,1.05-17c0.52-2.83,1.46-5.67,2.97-8.5c1.54-2.83,3.48-5.67,6.74-8.5h0.81
			c3.26,2.83,5.2,5.67,6.74,8.5c1.52,2.83,2.45,5.67,2.97,8.5c1.07,5.67,1.6,11.33,1.05,17c-0.24,2.83-0.74,5.67-1.24,8.5
			c-0.55,2.83-1.02,5.67-1.81,8.5c-0.79,2.83-1.77,5.67-3.06,8.5C211.75,253.33,210.21,256.17,208,259z"/>
	</g>
	<g>
		<path d="M208.49,263.45c-1.17,3.4-2.7,6.24-4.36,8.88c-1.67,2.62-3.51,4.99-5.46,7.2c-1.95,2.21-4.06,4.14-6.14,6.15
			c-2.1,1.96-4.21,3.92-6.45,5.67c-4.45,3.55-9.49,6.2-14.82,8.4c-2.66,1.11-5.55,1.87-8.75,2.14c-3.21,0.26-6.65,0.18-10.8-1.01
			l-0.44-0.68c0.59-4.28,1.91-7.45,3.45-10.28c1.55-2.82,3.41-5.14,5.5-7.13c4.17-3.99,8.63-7.52,13.68-10.15
			c2.51-1.34,5.15-2.47,7.8-3.6c2.68-1.08,5.31-2.24,8.11-3.12c2.81-0.88,5.72-1.61,8.79-2.07
			C201.7,263.4,204.91,263.14,208.49,263.45z"/>
	</g>
	<circle cx="208.5" cy="263.5" r="13.5"/>
</g>
</svg>
