<?xml version="1.0" encoding="utf-8"?>
<!-- Generator: Adobe Illustrator 24.1.2, SVG Export Plug-In . SVG Version: 6.00 Build 0)  -->
<svg version="1.1" id="Layer_1" xmlns="http://www.w3.org/2000/svg" xmlns:xlink="http://www.w3.org/1999/xlink" x="0px" y="0px"
	 viewBox="0 0 400 550" style="enable-background:new 0 0 400 550;" xml:space="preserve">
<style type="text/css">
	.st0{fill:#009245;}
</style>
<g>
	<path class="st0" d="M192.01,236.84c-3.56-5.58-7.52-13.89-6-23c2.31-13.81,19.38-15.77,20-26c0.76-12.56-22.91-18.52-21.51-28.34
		c1.59-11.15,32.9-8.77,39.51-26.66c2.15-5.83,1.02-12-0.51-20.34c-0.21-1.14-2.44-12.79-8.49-22.66c-9.59-15.65-30.49-29.61-54-29
		c-30.24,0.79-51.17,24.87-59,45c-11.32,29.09-1.6,66.21,19,84c10.01,8.65,22.88,12.98,24,24c0.82,8.05-5.08,15.28-10,20
		c3.18,2.6,14.47,11.16,31,11C178.95,244.71,188.26,239.31,192.01,236.84z"/>
	<path d="M187.64,235.91c-0.34,0.47-0.47,1.17-0.33,1.7c0.03,0.13,0.07,0.25,0.13,0.36c0.01,0.03,0.08,0.16,0.05,0.1l-0.07-0.11
		l-0.27-0.43c-0.36-0.58-0.7-1.17-1.05-1.76c-0.67-1.2-1.32-2.42-1.89-3.7c-1.16-2.54-2.13-5.24-2.72-8.1
		c-0.6-2.85-0.84-5.85-0.61-8.85c0.08-0.75,0.16-1.49,0.27-2.26c0.14-0.79,0.29-1.59,0.52-2.37c0.43-1.57,1.04-3.11,1.82-4.53
		c1.54-2.87,3.64-5.23,5.75-7.16c2.11-1.95,4.25-3.53,6.14-5.02c1.88-1.47,3.5-2.91,4.3-4.1c0.41-0.59,0.6-1.07,0.69-1.52
		c0.09-0.42,0.11-0.99,0-1.5c-0.11-0.52-0.31-1.07-0.66-1.69c-0.35-0.62-0.89-1.3-1.5-2c-1.26-1.39-2.98-2.81-4.84-4.23
		c-1.88-1.43-3.93-2.87-6.08-4.53c-2.13-1.72-4.45-3.47-6.64-6.67c-1.06-1.59-2.09-3.78-2.28-6.36c-0.22-2.52,0.48-5.19,1.78-7.27
		c1.29-2.07,2.9-3.48,4.34-4.49c1.45-1,2.88-1.79,4.21-2.4c2.7-1.28,5.18-2.14,7.6-3.01c2.41-0.86,4.72-1.66,6.91-2.51
		c4.37-1.68,8.33-3.64,10.96-6.07c2.63-2.43,3.85-5.04,4.01-8.51c0.18-3.51-0.82-8.25-1.79-13.12c-0.43-2.03-1.06-4.34-1.76-6.48
		c-0.7-2.17-1.5-4.31-2.39-6.36c-0.89-2.05-1.88-4.02-2.97-5.87c-0.28-0.45-0.55-0.91-0.84-1.36l-0.91-1.31
		c-0.57-0.89-1.26-1.72-1.93-2.56c-2.72-3.35-5.94-6.39-9.46-9.03c-7.05-5.28-15.31-8.97-23.79-10.52
		c-8.5-1.43-17.21-0.56-25.01,2.51c-3.92,1.52-7.58,3.66-11.07,6.04l-2.54,1.93c-0.43,0.3-0.84,0.65-1.23,1.01l-1.2,1.06l-1.22,1.04
		c-0.4,0.36-0.77,0.75-1.15,1.13c-0.76,0.77-1.55,1.48-2.28,2.28c-2.95,3.14-5.63,6.57-8.07,10.15c-2.45,3.58-4.55,7.4-6.25,11.26
		c-3.45,7.69-4.87,16.39-5.11,25.2c-0.04,1.1,0.05,2.21,0.07,3.32c0.05,1.11,0.01,2.22,0.17,3.32c0.23,2.21,0.39,4.44,0.83,6.63
		c0.62,4.43,1.85,8.75,3.22,13.01c3.03,8.36,7.3,16.42,13.35,22.52c2.87,3.13,6.56,5.8,10.68,8.86c2.04,1.52,4.21,3.12,6.39,5.06
		c2.17,1.93,4.42,4.21,6.25,7.19l0.67,1.13c0.22,0.38,0.39,0.81,0.58,1.22c0.38,0.82,0.74,1.64,0.97,2.54
		c0.26,0.88,0.53,1.75,0.62,2.65c0.12,0.89,0.29,1.79,0.28,2.68c0.13,3.57-0.68,7-1.96,9.92c-1.26,2.95-2.94,5.47-4.76,7.72
		c-1.81,2.26-3.79,4.22-5.81,6.06l-0.32-8.01c3.36,2.99,7.34,5.46,11.54,7.3c4.21,1.85,8.72,2.98,13.32,3.43
		c2.31,0.14,4.63,0.19,6.94-0.02c2.31-0.25,4.61-0.63,6.85-1.26c2.25-0.61,4.44-1.44,6.54-2.44c1.04-0.52,2.08-1.05,3.07-1.66
		c0.5-0.3,0.99-0.61,1.47-0.93l0.71-0.5c0.08-0.05-0.07,0.04-0.14,0.09c-0.08,0.06-0.17,0.13-0.25,0.21
		c-0.16,0.16-0.32,0.35-0.45,0.57C187.76,234.93,187.63,235.45,187.64,235.91z M196.38,237.77c-0.25,0.63-0.65,1.32-1.17,1.93
		c-0.26,0.3-0.55,0.58-0.85,0.83c-0.15,0.12-0.3,0.24-0.45,0.34c-0.14,0.1-0.35,0.23-0.34,0.22l-0.91,0.51
		c-0.61,0.33-1.22,0.67-1.84,0.98c-1.23,0.63-2.48,1.23-3.75,1.77c-2.54,1.1-5.15,2.02-7.81,2.76c-5.33,1.48-10.89,2.17-16.46,2.02
		c-5.57-0.17-11.14-1.2-16.4-3.12c-5.27-1.91-10.22-4.59-14.77-8.01L127,234.5l4.3-4.53c1.57-1.66,3.04-3.37,4.23-5.12
		c1.21-1.75,2.18-3.55,2.74-5.27c0.31-0.86,0.47-1.7,0.59-2.5c0.01-0.39,0.09-0.79,0.05-1.17l-0.01-0.57l-0.07-0.55
		c-0.23-1.46-0.73-2.64-1.65-3.86c-0.92-1.22-2.31-2.49-4-3.74c-1.68-1.26-3.66-2.5-5.76-3.8c-2.1-1.31-4.3-2.64-6.56-4.16
		c-2.23-1.53-4.59-3.18-6.7-5.15c-4.42-3.73-8.05-8.12-11.3-12.71l-2.34-3.51c-0.74-1.19-1.39-2.42-2.09-3.64l-1.02-1.84
		c-0.34-0.61-0.6-1.25-0.91-1.88l-1.76-3.79c-4.35-10.24-6.89-21.22-7.41-32.44l-0.07-4.22c0-0.7-0.04-1.41,0-2.11l0.12-2.12
		l0.28-4.24l0.6-4.24l0.31-2.12c0.13-0.7,0.3-1.4,0.46-2.11l0.97-4.21c0.36-1.4,0.85-2.77,1.28-4.15c0.45-1.38,0.86-2.78,1.44-4.11
		c2.11-5.41,4.77-10.49,7.97-15.2c3.2-4.71,6.8-9.15,10.95-13.1c4.16-3.94,8.7-7.52,13.68-10.5c1.24-0.75,2.55-1.4,3.82-2.09
		c0.64-0.33,1.28-0.69,1.93-1l2.01-0.87c1.35-0.56,2.65-1.2,4.04-1.66l4.16-1.38c0.68-0.25,1.4-0.41,2.11-0.58l2.13-0.5l2.13-0.49
		c0.71-0.18,1.44-0.23,2.16-0.35l4.32-0.6c1.45-0.11,2.9-0.15,4.35-0.22c5.78-0.21,11.58,0.31,17.17,1.53
		c11.19,2.45,21.54,7.55,30.31,14.58c4.38,3.53,8.38,7.56,11.83,12.12c0.86,1.15,1.72,2.29,2.48,3.53l1.17,1.83
		c0.37,0.62,0.72,1.25,1.07,1.88c1.38,2.52,2.55,5.08,3.57,7.67c1.02,2.58,1.89,5.19,2.64,7.81c0.75,2.66,1.38,5.21,1.89,8.11
		c0.41,2.49,0.85,5.03,1.18,7.76c0.33,2.73,0.57,5.7,0.31,8.95c-0.26,3.24-1.12,6.73-2.73,9.81c-1.59,3.11-3.86,5.79-6.31,7.88
		c-2.46,2.11-5.08,3.69-7.67,4.98c-2.59,1.29-5.17,2.29-7.68,3.18c-2.51,0.89-4.97,1.65-7.31,2.4c-2.32,0.75-4.6,1.49-6.47,2.32
		c-0.96,0.4-1.74,0.84-2.37,1.23c-0.63,0.39-0.9,0.73-0.95,0.78c-0.03,0.04-0.01-0.1-0.05-0.12c-0.03-0.07-0.04,0.13,0.26,0.63
		c0.57,1.01,2.15,2.54,3.9,3.97c1.78,1.47,3.78,2.98,5.85,4.64c2.06,1.69,4.21,3.5,6.26,5.89c1.01,1.21,2.01,2.53,2.84,4.13
		c0.83,1.59,1.49,3.43,1.77,5.39c0.29,1.96,0.18,3.96-0.35,5.96c-0.53,1.99-1.51,3.78-2.59,5.2c-2.2,2.85-4.58,4.55-6.67,6.12
		c-2.11,1.54-4.05,2.89-5.68,4.29c-1.64,1.39-2.94,2.82-3.84,4.34c-0.47,0.76-0.8,1.55-1.07,2.39c-0.15,0.41-0.23,0.85-0.34,1.29
		l-0.23,1.47c-0.23,1.99-0.15,4.05,0.2,6.12c0.34,2.07,0.96,4.16,1.81,6.22c0.41,1.03,0.89,2.05,1.4,3.06
		c0.26,0.5,0.52,1.01,0.81,1.51l0.21,0.38l0.23,0.39c0.13,0.24,0.26,0.5,0.37,0.76C196.19,235.54,196.39,236.77,196.38,237.77z"/>
</g>
<g>
	<line class="st0" x1="219.77" y1="156.7" x2="263.23" y2="141.3"/>
	<path d="M219.7,156.47c1.04-2.83,2.52-4.4,4.14-5.58c0.81-0.58,1.7-0.96,2.56-1.4c0.87-0.43,1.73-0.87,2.61-1.27
		c3.5-1.63,7.1-2.96,10.83-3.95c1.85-0.52,3.73-0.98,5.61-1.42c1.87-0.46,3.77-0.86,5.7-1.17c3.86-0.59,7.83-0.91,12.09-0.38
		c-2.98,3.09-6.26,5.34-9.64,7.31c-1.69,0.98-3.42,1.86-5.16,2.68c-1.74,0.84-3.49,1.66-5.25,2.43c-3.52,1.58-7.16,2.81-10.9,3.74
		c-0.93,0.24-1.88,0.45-2.82,0.66c-0.95,0.2-1.87,0.46-2.87,0.52c-2,0.1-4.14-0.18-6.73-1.73L219.7,156.47z"/>
</g>
<g>
	<line class="st0" x1="217.26" y1="173.99" x2="260.62" y2="189.63"/>
	<path d="M217.33,173.77c2.59-1.53,4.73-1.8,6.74-1.69c1,0.07,1.92,0.33,2.87,0.54c0.94,0.22,1.89,0.43,2.82,0.67
		c3.74,0.95,7.37,2.21,10.88,3.81c1.76,0.78,3.5,1.61,5.24,2.46c1.74,0.83,3.46,1.72,5.15,2.71c3.37,1.99,6.63,4.26,9.59,7.37
		c-4.26,0.5-8.23,0.16-12.09-0.45c-1.93-0.32-3.82-0.73-5.69-1.2c-1.88-0.45-3.75-0.92-5.6-1.45c-3.72-1.01-7.32-2.36-10.8-4.02
		c-0.87-0.41-1.74-0.85-2.6-1.28c-0.86-0.44-1.74-0.83-2.55-1.42c-1.61-1.19-3.09-2.76-4.11-5.6L217.33,173.77z"/>
</g>
<g>
	<line class="st0" x1="228.89" y1="166.21" x2="274.98" y2="165.41"/>
	<path d="M228.89,165.97c1.88-2.35,3.78-3.37,5.69-3.97c0.96-0.29,1.91-0.37,2.87-0.52c0.96-0.13,1.92-0.27,2.88-0.37
		c3.83-0.44,7.67-0.56,11.52-0.31c1.92,0.1,3.85,0.26,5.77,0.44c1.92,0.16,3.85,0.38,5.78,0.7c3.85,0.66,7.71,1.62,11.59,3.48
		c-3.81,1.99-7.63,3.08-11.46,3.87c-1.91,0.39-3.83,0.67-5.75,0.9c-1.92,0.24-3.83,0.47-5.75,0.64c-3.84,0.38-7.68,0.39-11.52,0.09
		c-0.96-0.07-1.92-0.17-2.89-0.27c-0.96-0.11-1.92-0.16-2.89-0.42c-1.93-0.54-3.87-1.49-5.83-3.77L228.89,165.97z"/>
</g>
</svg>
