<?xml version="1.0" encoding="utf-8"?>
<!-- Generator: Adobe Illustrator 24.1.2, SVG Export Plug-In . SVG Version: 6.00 Build 0)  -->
<svg version="1.1" xmlns="http://www.w3.org/2000/svg" xmlns:xlink="http://www.w3.org/1999/xlink" x="0px" y="0px"
	 viewBox="0 0 400 550" style="enable-background:new 0 0 400 550;" xml:space="preserve">
<style type="text/css">
	.st0{fill:#009245;stroke:#000000;stroke-width:10;stroke-miterlimit:10;}
	.st1{fill:none;stroke:#000000;stroke-width:6;stroke-miterlimit:10;}
</style>
<g id="Layer_2">
</g>
<g id="Layer_1">
	<path class="st0" d="M127.5,116.5c-4.87,8.86-3.71,14.39-3,45c1.27,55.01-2.4,68.5,5.5,72.5c13.32,6.74,30.62-28.09,55-24
		c27.1,4.54,31.42,51.88,54,52c13.8,0.07,24.19-17.55,28-24c9.38-15.9,6.12-25.62,7.5-75.5c0.84-30.18,2.46-43.84-3-46
		c-7.57-2.99-15.84,22.47-32,23c-20.13,0.66-23.99-38.29-53-47C165.06,86.06,137.45,98.41,127.5,116.5z"/>
	<path class="st1" d="M124.68,145.56c28.91-24.01,46.62-24.9,57.32-21.56c25.21,7.87,28.01,44.31,52,49
		c15.53,3.04,30.89-8.99,40.73-18.6"/>
	<path class="st1" d="M125.35,187.99c28.91-24.01,46.62-24.9,57.32-21.56c25.21,7.87,28.01,44.31,52,49
		c15.53,3.04,30.89-8.99,40.73-18.6"/>
</g>
</svg>
