<?xml version="1.0" encoding="utf-8"?>
<!-- Generator: Adobe Illustrator 24.1.2, SVG Export Plug-In . SVG Version: 6.00 Build 0)  -->
<svg version="1.1" xmlns="http://www.w3.org/2000/svg" xmlns:xlink="http://www.w3.org/1999/xlink" x="0px" y="0px"
	 viewBox="0 0 400 550" style="enable-background:new 0 0 400 550;" xml:space="preserve">
<style type="text/css">
	.st0{fill:url(#SVGID_1_);}
	.st1{fill:url(#SVGID_2_);}
	.st2{fill:url(#SVGID_3_);}
	.st3{fill:url(#SVGID_4_);}
	.st4{fill:none;stroke:#FFFF00;stroke-width:9;stroke-miterlimit:10;}
	.st5{fill:none;stroke:#ED1C24;stroke-width:9;stroke-miterlimit:10;}
	.st6{fill:none;stroke:#0000FF;stroke-width:9;stroke-miterlimit:10;}
	.st7{fill:none;stroke:#009245;stroke-width:9;stroke-miterlimit:10;}
	.st8{fill:none;stroke:#000000;stroke-width:14;stroke-miterlimit:10;}
	.st9{fill:none;stroke:#000000;stroke-width:11;stroke-miterlimit:10;}
</style>
<g id="Layer_2">
	<linearGradient id="SVGID_1_" gradientUnits="userSpaceOnUse" x1="189" y1="236.5" x2="269" y2="236.5">
		<stop  offset="0" style="stop-color:#FBB03B"/>
		<stop  offset="1" style="stop-color:#FCEE21"/>
	</linearGradient>
	<polygon class="st0" points="193,268 189,205 247,213 269,239 269,268 	"/>
	<linearGradient id="SVGID_2_" gradientUnits="userSpaceOnUse" x1="193" y1="300.5" x2="269" y2="300.5">
		<stop  offset="0" style="stop-color:#00FFFF"/>
		<stop  offset="1" style="stop-color:#0071BC"/>
	</linearGradient>
	<polygon class="st1" points="193,268 196,333 253,326 269,291 269,268 	"/>
	<linearGradient id="SVGID_3_" gradientUnits="userSpaceOnUse" x1="113" y1="299.1383" x2="195.661" y2="299.1383">
		<stop  offset="2.022946e-07" style="stop-color:#C69C6D"/>
		<stop  offset="1" style="stop-color:#F15A24"/>
	</linearGradient>
	<polygon class="st2" points="193,268 195.66,330.28 132,326 113,289 113,268 	"/>
	<linearGradient id="SVGID_4_" gradientUnits="userSpaceOnUse" x1="113" y1="236.5" x2="189" y2="236.5">
		<stop  offset="2.022946e-07" style="stop-color:#00FF00"/>
		<stop  offset="1" style="stop-color:#00A037"/>
	</linearGradient>
	<polygon class="st3" points="189,268 189,205 140,210 114,234 113,268 	"/>
</g>
<g id="Layer_3">
	<line class="st4" x1="193.5" y1="269.5" x2="247.5" y2="213.5"/>
	<line class="st5" x1="139.45" y1="324.89" x2="193.45" y2="268.89"/>
	<line class="st6" x1="249.45" y1="324.89" x2="195.45" y2="268.89"/>
	<line class="st7" x1="193.45" y1="268.89" x2="139.45" y2="212.89"/>
</g>
<g id="Layer_1">
	<path class="st8" d="M126.5,218.91c11.34-13.1,29.72-13.38,66-13.41c36-0.03,54.22,0.22,65,13.41c9.84,12.03,10.37,28.11,11,46.94
		c0.64,19.28,1.38,41.61-11,55.88c-3.23,3.73-10.66,10.71-62,11.18c-38.99,0.36-58.69,0.3-69-11.18
		c-13.72-15.28-13.27-39.28-13-53.64C113.77,253.7,114.16,233.16,126.5,218.91z"/>
	<line class="st9" x1="191.34" y1="212.51" x2="195.66" y2="326.49"/>
	<line class="st9" x1="268.8" y1="268.21" x2="113.61" y2="270.2"/>
</g>
</svg>
