<?xml version="1.0" encoding="utf-8"?>
<!-- Generator: Adobe Illustrator 24.1.2, SVG Export Plug-In . SVG Version: 6.00 Build 0)  -->
<svg version="1.1" id="Layer_1" xmlns="http://www.w3.org/2000/svg" xmlns:xlink="http://www.w3.org/1999/xlink" x="0px" y="0px"
	 viewBox="0 0 400 550" style="enable-background:new 0 0 400 550;" xml:space="preserve">
<style type="text/css">
	.st0{fill:#009245;}
	.st1{fill:none;stroke:#000000;stroke-width:8.2061;stroke-miterlimit:10;}
</style>
<path class="st0" d="M213,186c-2.87-1.67-9.27-4.88-18-5c-9.31-0.13-16.13,3.33-19,5c-0.17,12.83-0.33,25.67-0.5,38.5L161,243.4
	l17.53,28.33l23.47,4.73l20.45-16.99l3.37-22.99L211.5,215.5C212,205.67,212.5,195.83,213,186z"/>
<path class="st1" d="M161,245c0.29,14.28,17.64,34.82,39,31c17.61-3.15,27.8-21.05,27-34c-0.61-9.82-7.22-11.86-12-25
	c-2.99-8.21-2.84-14.12-1-38c3.46-44.77,5.33-54.81-2-65c-1.37-1.9-7.7-10.7-17-11c-8.53-0.27-14.88,6.76-16,8
	c-7.19,7.96-7.86,18.46-4,65c2.24,26.96,3.18,32,0,41C169.56,232.41,160.79,234.7,161,245z"/>
<g>
	<path d="M179.9,189.9c1.84-0.45,3.68-0.55,5.52-0.58c1.84-0.02,3.68,0.1,5.52,0.32c0.92,0.12,1.84,0.24,2.76,0.41
		c0.92,0.14,1.84,0.35,2.76,0.65c1.84,0.62,3.68,1.54,5.52,3.32c-1.84,1.78-3.68,2.69-5.52,3.32c-0.92,0.3-1.84,0.51-2.76,0.65
		c-0.92,0.17-1.84,0.29-2.76,0.41c-1.84,0.22-3.68,0.34-5.52,0.32c-1.84-0.03-3.68-0.14-5.52-0.58V189.9z"/>
</g>
<g>
	<path d="M177.14,169.9c1.84-0.45,3.68-0.55,5.52-0.58c1.84-0.02,3.68,0.1,5.52,0.32c0.92,0.12,1.84,0.24,2.76,0.41
		c0.92,0.14,1.84,0.35,2.76,0.65c1.84,0.62,3.68,1.54,5.52,3.32c-1.84,1.78-3.68,2.69-5.52,3.32c-0.92,0.3-1.84,0.51-2.76,0.65
		c-0.92,0.17-1.84,0.29-2.76,0.41c-1.84,0.22-3.68,0.34-5.52,0.32c-1.84-0.03-3.68-0.14-5.52-0.58V169.9z"/>
</g>
<g>
	<path d="M175.76,151.9c1.84-0.45,3.68-0.55,5.52-0.58c1.84-0.02,3.68,0.1,5.52,0.32c0.92,0.12,1.84,0.24,2.76,0.41
		c0.92,0.14,1.84,0.35,2.76,0.65c1.84,0.62,3.68,1.54,5.52,3.32c-1.84,1.78-3.68,2.69-5.52,3.32c-0.92,0.3-1.84,0.51-2.76,0.65
		c-0.92,0.17-1.84,0.29-2.76,0.41c-1.84,0.22-3.68,0.34-5.52,0.32c-1.84-0.03-3.68-0.14-5.52-0.58V151.9z"/>
</g>
<g>
	<path d="M173,131.9c1.84-0.45,3.68-0.55,5.52-0.58c1.84-0.02,3.68,0.1,5.52,0.32c0.92,0.12,1.84,0.24,2.76,0.41
		c0.92,0.14,1.84,0.35,2.76,0.65c1.84,0.62,3.68,1.54,5.52,3.32c-1.84,1.78-3.68,2.69-5.52,3.32c-0.92,0.3-1.84,0.51-2.76,0.65
		c-0.92,0.17-1.84,0.29-2.76,0.41c-1.84,0.22-3.68,0.34-5.52,0.32c-1.84-0.03-3.68-0.14-5.52-0.58V131.9z"/>
</g>
</svg>
