<?xml version="1.0" encoding="utf-8"?>
<!-- Generator: Adobe Illustrator 24.1.2, SVG Export Plug-In . SVG Version: 6.00 Build 0)  -->
<svg version="1.1" id="Layer_1" xmlns="http://www.w3.org/2000/svg" xmlns:xlink="http://www.w3.org/1999/xlink" x="0px" y="0px"
	 viewBox="0 0 400 550" style="enable-background:new 0 0 400 550;" xml:space="preserve">
<style type="text/css">
	.st0{fill:#009245;stroke:#000000;stroke-width:10;stroke-miterlimit:10;}
	.st1{fill:none;stroke:#000000;stroke-width:10;stroke-miterlimit:10;}
	.st2{fill:none;stroke:#000000;stroke-width:8;stroke-miterlimit:10;}
</style>
<g>
	<path d="M312.99,312.05c-8.98,6.62-17.88,4.39-26.8,4.93c-8.92,0.1-17.84,0.17-26.75,0.2c-17.84,0.12-35.67,0.01-53.5-0.19
		c-17.83-0.29-35.66-0.67-53.49-1.25c-8.91-0.26-17.83-0.57-26.74-0.89c-4.46-0.17-8.91-0.29-13.37-0.5
		c-2.23-0.17-4.45-0.57-6.68-1.32c-2.22-0.76-4.44-1.76-6.66-3.52c2.25-1.71,4.48-2.68,6.72-3.39c2.24-0.71,4.47-1.07,6.7-1.2
		c4.46-0.13,8.92-0.16,13.38-0.25c8.92-0.16,17.84-0.29,26.76-0.39c17.84-0.25,35.67-0.3,53.51-0.25
		c17.83,0.14,35.67,0.36,53.5,0.81c8.92,0.19,17.83,0.43,26.75,0.7c8.91,0.7,17.85-1.36,26.7,5.43L312.99,312.05z"/>
</g>
<path class="st0" d="M113.74,278c11.01,12.97,25.68,12.27,89.57,13c65.89,0.75,81.03,1.85,91.44-11.01
	c10.23-12.64,9.64-31.04,9.26-42.55c-0.33-10.14-0.99-29.99-12.74-43.43C278.96,179.94,263.24,182.9,197,182
	c-58.25-0.8-72.57-3.45-83.75,9c-12.19,13.58-11.54,34.99-11.25,45.56C102.29,246.79,102.8,265.11,113.74,278z"/>
<path class="st1" d="M242,181c-1.54,6.2-3.26,15.55-3,27c0.25,11.08,0.49,17.51,5,22c2.24,2.23,6.45,4.9,26,4
	c8.33-0.38,20.09-1.45,34.17-4.5"/>
<path d="M279,292c-4.94-14.55-19.33-23.29-33.16-21.19c-10.99,1.67-20.27,9.99-23.74,21.19H279z"/>
<path d="M184.79,289.75c-4.94-14.55-19.33-23.29-33.16-21.19c-10.99,1.67-20.27,9.99-23.74,21.19H184.79z"/>
<path class="st2" d="M205,198c2.42,3.23-0.87,6.41-1,15c-0.14,9.29,3.59,12.95,1,16c-1.83,2.15-5.19,2.09-11,2
	c-5.25-0.09-8.19-0.13-11-2c-6.79-4.51-6.12-15.17-6-17c0.19-2.99,0.62-9.84,6-14c4.18-3.23,9.08-3.09,12-3
	C198.67,195.11,202.93,195.23,205,198z"/>
<path class="st2" d="M153.73,198.32c2.42,3.23-0.87,6.41-1,15c-0.14,9.29,3.59,12.95,1,16c-1.83,2.15-5.19,2.09-11,2
	c-5.25-0.09-8.19-0.13-11-2c-6.79-4.51-6.12-15.17-6-17c0.19-2.99,0.62-9.84,6-14c4.18-3.23,9.08-3.09,12-3
	C147.39,195.43,151.65,195.55,153.73,198.32z"/>
</svg>
