<?xml version="1.0" encoding="utf-8"?>
<!-- Generator: Adobe Illustrator 24.1.2, SVG Export Plug-In . SVG Version: 6.00 Build 0)  -->
<svg version="1.1" id="Layer_1" xmlns="http://www.w3.org/2000/svg" xmlns:xlink="http://www.w3.org/1999/xlink" x="0px" y="0px"
	 viewBox="0 0 400 550" style="enable-background:new 0 0 400 550;" xml:space="preserve">
<g>
	<path d="M183.5,111c0.41,0.28,0.73,0.55,1.09,0.83l0.92,0.83c0.59,0.55,1.1,1.11,1.56,1.67c0.92,1.11,1.66,2.22,2.23,3.34
		c1.19,2.23,1.71,4.46,1.89,6.7c0.49,4.47,1.03,8.95,1.49,13.42c0.98,8.95,1.81,17.9,2.24,26.86c0.22,4.48,0.31,8.96,0.33,13.44
		c-0.02,4.48-0.09,8.96-0.29,13.44c-0.17,4.48-0.44,8.96-0.75,13.45c-0.2,2.24-0.92,4.49-2.4,6.74c-1.53,2.25-3.55,4.51-7.31,6.79
		c-3.8-2.2-5.86-4.43-7.44-6.65c-1.52-2.23-2.28-4.46-2.52-6.7c-0.39-4.48-0.74-8.95-1-13.43c-0.28-4.48-0.43-8.96-0.54-13.43
		c-0.06-4.48-0.06-8.96,0.08-13.44c0.26-8.96,0.93-17.93,1.74-26.89c0.37-4.48,0.83-8.97,1.24-13.45c0.14-2.24,0.63-4.49,1.77-6.74
		c0.54-1.12,1.26-2.25,2.16-3.38c0.45-0.56,0.95-1.13,1.53-1.69l0.91-0.85C182.78,111.57,183.09,111.28,183.5,111z"/>
</g>
<path d="M152.63,173.32c2.23,4.31,7.25,3.59,32.49,3.66c23.63,0.07,28.91,0.73,31.22-3.66c1.31-2.5,1.61-6.55-8.28-27.08
	c-12.07-25.06-18.11-37.59-24.53-37.22c-2.31,0.13-5.08,1.58-20.07,32.83C151.67,166.41,151.08,170.32,152.63,173.32z"/>
<path d="M197.03,92.37c-1.22,6.58-7.55,11.44-14.4,11.12c-6.45-0.29-12.03-5.12-13.09-11.12c-1.43-8.15,5.76-16.74,14.4-16.36
	C191.97,76.37,198.51,84.37,197.03,92.37z"/>
</svg>
