<?xml version="1.0" encoding="utf-8"?>
<!-- Generator: Adobe Illustrator 24.1.2, SVG Export Plug-In . SVG Version: 6.00 Build 0)  -->
<svg version="1.1" xmlns="http://www.w3.org/2000/svg" xmlns:xlink="http://www.w3.org/1999/xlink" x="0px" y="0px"
	 viewBox="0 0 585.5 792.7" style="enable-background:new 0 0 585.5 792.7;" xml:space="preserve">
<style type="text/css">
	.st0{fill:#71B457;stroke:#000000;stroke-width:0.25;stroke-miterlimit:10;}
	.st1{fill:#A7D051;}
	.st2{fill:url(#SVGID_1_);}
	.st3{fill:url(#SVGID_2_);}
	.st4{fill:url(#SVGID_3_);}
	.st5{fill:url(#SVGID_4_);}
	.st6{fill:url(#SVGID_5_);}
	.st7{fill:url(#SVGID_6_);}
	.st8{fill:url(#SVGID_7_);}
	.st9{fill:url(#SVGID_8_);}
	.st10{fill:url(#SVGID_9_);}
	.st11{fill:url(#SVGID_10_);}
	.st12{fill:url(#SVGID_11_);}
	.st13{fill:url(#SVGID_12_);}
	.st14{fill:url(#SVGID_13_);}
	.st15{fill:url(#SVGID_14_);}
	.st16{fill:url(#SVGID_15_);}
	.st17{fill:url(#SVGID_16_);}
	.st18{fill:url(#SVGID_17_);}
	.st19{fill:url(#SVGID_18_);}
	.st20{fill:url(#SVGID_19_);}
	.st21{fill:url(#SVGID_20_);}
</style>
<g id="Layer_1">
	
		<g id="Layer_1_1_" xmlns:dc="http://purl.org/dc/elements/1.1/" xmlns:mapsvg="http://mapsvg.com" xmlns:rdf="http://www.w3.org/1999/02/22-rdf-syntax-ns#" xmlns:svg="http://www.w3.org/2000/svg">
		<path id="DE-BW" class="st0" d="M181.3,750.7l0.6,2.1l-1.4-0.6l-2,0.7l1-1l-0.6-1.4L181.3,750.7z M206.7,571.2l5.8,0.3l2.8-0.7
			l0.7-1.3l0,0l0.6,0l0,0l1.6-2l-0.9-1.9l2.1-2.1l2.5,1.1l1.5-1.3l1.1,1.4l1.4-0.2l0.9-1.3l-1.3-1.3l1.4-1.7l-0.1-2.1l-2.1-1.9
			l-0.3,2.7l-1.5,0l-0.9-1.4l1.9-1l-5-1l1.7-0.5l-0.5-2.4l2.3-0.1l1.3-1l1.3,0.9l2.1-2l2.1,2l1.4-1.7l1.5-0.2l0.6,2.3l2.1-0.2
			l1.1,2.2l-0.3-3l0.7-0.8l1,0.4l4.2-1.3l-0.3,1.8l0,0l-0.1,1.6l0,0l0.2,1.9l-1.2,0.5l1,0.8l-1.1,1.9l1.8,1.7l0,0l0.5-0.2l0,0
			l0.9-0.4l0.1-2.3l2.1-1.1l1.1,3.9l0,0h0.6l0,0l1.1-2.2l2.9-2l-0.3,1l2.4,1.8l-0.2,5l1.6,0.9l1.1,3.2l-1.9,1.6l0.4,1.7l-2.4,2.2
			l3,1l0.4-2.2l2.2-2l1.1,0.5l-1.1,2l1.4,0l0,0.9l0,0h0.3l0,0l-0.7,5.9l0.9,0.9l5.8-0.1l0.7-1.8l2-1.3l-1.4-1.2l1.6-1.7l1.7,1.2
			l-0.4,2.2l2.4,0.3l-1.4,1.8l1.4,2.7l-1.1,0.1l-0.7,1.5l2.5,1l1.8,4.1l-3.5,1.6l1,2.8l-1.1-0.1l-0.2,1l0.5,1.3l2,0.6l-0.6,2.2
			l1.6,2l-1.5,1.7l-0.6-1.3l-0.9,1.7l1.5,0.6l-0.9,0.5l1.3,3.5l-0.9,0l-0.1,1.2l2,0.7l0.8,1.4l0.7-0.4l1.2,2.7l1.3-0.8l1.9,1.4
			l0.5,1.9l-1.9,1l-1,1.7l1.2,1.1l1.4-0.2l-1,1.5l1.8,1.3l-0.7,2.2l2.8-0.2l1.8,1.6l1.7-0.2l0.5,2.3l1.6,0.4v1.2l0.9-0.2l0.7,1.1
			l0.5-0.5l-0.5,1.7l0.8-0.2l0.8,2.1l1.4,0.8l-0.8,0.5l1.2,1.6l-2.2,1.1l2,1.6l0,2.9l-1.6,1.5l1.4,1.2l0,1.9l-1.8,1.2l0.8,2.2
			l-1.3,0.5l1,1.4l-0.8,0.9l1.9,1.8l1.1-0.7l-0.6,0.7l1.8,2l-0.7,0.5l1.5,1.5l-1.9,1.6l-3.4,0.9l1-1.1l-0.2-1.7l1-0.3l-1.9-0.4
			l-1.3,3l-1.8,1.3l-1.6-3.5l-2,0.4l-2.2-1.7l0.3,1.6l-1.1,0.5l-0.1,1.5l4.3,5.4l-1.6,0.5l-0.3,1.3l1.3,2.4l-0.8,2.1l0.6,1.9
			l-4.8,1.1l-0.5,0.5l0.9,0.1l0,1.3l-3.7,1.5l-0.8,1.7l-2.4,0.3l-1.7-2.1l-2.8,2.2l-1.6-0.4l-0.6,2.1l0.9,0.8l-4.5,4.9l0.3,1.4
			l1.5,0l-0.1,1.5l4.3,6.3l-0.1,4.6l2.8,9.8l1.8,1.8l0.5,3.6l0,0v1.5l0,0l-0.3,0.5l0,0l0.1,0.6l0,0l-1.7,6.8l-1.8,0.7v1.8l1.5,1.5
			l-0.1,2.2l-0.9,2.5l0.6,0.5l-1.8,1.3l0.3,1l1.4-0.7l-0.9,2l1-1l-0.3,1l2.3,3.1l-1.1-0.2l-0.4,1.1l-1.5-0.4l-1.8,1.6l3.5,2.6
			l-0.1,3.9l1.5,1.7l-0.6,2.3L271,755l-1.3-0.7l-0.9,3.2l-0.8-3.4l-2.1,0.1l-0.3-1.1l-1.8,0.6l-2.2,2.7l-7.1-2.5l-1.3,1l0,0
			l-0.1,0.4l0,0l-1,1.4l-1.6,0.2l0.2,1.2l-2.6,2.1l-3,1l-3-0.9l-1.2,0.8l-1.7,2l-0.8,3.1l0,0l-8.6-1.6l-17.8-8.7l-6.1-2.1l-4.5-0.6
			l-7.9,3.5l-2.8-3.2l0-1.3l1.4,0.2l-0.1-0.9l-3.4-0.9l-0.6-2.3l-2.4,1.8l0,1.1l2.5,1.2l-1.1,1.8l-4.2-1.8l0.6-2.1l-1.5-1.1l0.6-1.5
			l1.2-0.3l-1.1-1.6l-1.9,0.8l-0.6-2.7l-1.9-1.5l-0.6,1.1l0.5,1.4l-1.5,1.4l-0.7-3.8l-2.6-0.1l-0.6-0.8l-0.3,1.3l0.9,1.2l-1.5-0.3
			l-2,1.3l-2.3,0.1l-2.2,2.8l0.3,1.7l-3.1,2.3l0.9,1.4l-1,0.9l2.5,1.8l1.4-0.3l0.5,1.7l-0.1-1l1.3,0.8l2.1-0.3l0-1.5l0.9,0.3
			l0.3-0.9l2.2,0.4l1.6-1l1.5,2.3l-0.8,0.9l-0.4-1.4l-0.8,0.9l0.6,2.8l-1.9,1.7l-0.9-0.6l0.5-1.5l-3.2-1.5l-0.8,1.5l-3.3,1.5
			l0.7,1.6l1.4-0.4l-0.1,1.1l-3.5,1l-2.1-1l-0.9,1l-3.8-0.7l-2.2-3.4l-2-0.5l-1.9,1l-1.4-1.5l-2.6,2.5l-3.5,1.2l-1.3,2.3l-1.4-0.6
			l-3.1,1.3l-3.9-0.7l-1,1.3l-1.9-0.6l-1.3-3.5l-4.4-0.1l-1.7,2.9l-6.6,2.4l-1.6-0.4l-2.1-2.3l3.3-0.4l-0.9-2l1.3-1.3l-1.2,0.8
			l-1.7-0.3l-1.7,1.7l-1.9-1.2l-1.5-4l-2.8-2.8l-0.7-3.3l2.3-3.4l-1.2-4.3l2.1-5.9l-0.3-3.6l1.6-1.7l0.1-3.2l2.5-3.9l-0.9-2.8
			l-2.4-3.1l0.5-8.2l5.7-9.6l1.7-7.7l3.3-2.4l-0.8-6.4l2-5.7l0.3-3.5l2.4-2.3l-0.4-6.7l2.5-5.5l3.2-2l4.8-5.8l0.5-3.4l2.8-0.3
			l0.9-2.5l2.4-0.3l1.5-1.3l3.8-9.8l3.1-5.1l2.2-0.9l0,0l3.3-2.8l0,0l0.8-1.8l0,0l0.9-3.9l3-4.5l0.6-6.6l2.4-4.9l-1.3,0.1l0.3-1.6
			l6.2-5.9l-2.4-2.9l3-4.1l0.1-2.1l-1.7,1.5l-0.7-0.8l2.1-2l0.8-3.3l-4.1-1.5l1.3-2l-3.1-8.1l0.4-3l0,0l1.6-0.6l1.8,0.6l5.5,6.8
			l2.2-1.7l0.7,0.3l0.5-1.3l-1.3-6.8l6.2-1.3l-0.3,1.5l-0.4-1.4l-0.7,0.5l1.8,1.9l-1.1,2.1l1.6,2.6l-0.2,1.3l2,1.7l0,0l0-0.3l0,0
			l4.1,0.9l1.6-1.3l-0.3,1.8l0.9,1.4l0.9-0.9l3.3-0.2l0.1,1.8l-1.5,1.7l-0.9,0.1l-0.6-1.7l-1.7,1.5l0.8,3.4l-2.3,2.3l0.9,1.3
			l1.1-1.1l1.2,1.2l2.8-2.5l0.5-2.2l0.7,0.6l2.4-1.8l-1.2-1.4l0.6-1.4l0.9,0.2l-0.1-2.1l2.2-0.6l2.5,1.3l1.4-1.1l0,0l0.3-0.5l0,0
			l0.9-1.6l2.2,0.4l0.4,1.6l1.2-0.7l-3.4-4.7l0.1-1l0.6,1.4l1.1,0.1L206.7,571.2L206.7,571.2z"/>
		<path id="DE-BY" class="st0" d="M266.5,478.3l2-1l-0.1-0.9l2.4-2.8l2.2,2.1l0.5-1l1.6,1l0.3-0.9l1.6-0.2l0.3,1.4l1.5,0.9l0,2
			l1.5-0.2l3,1.9l1.8,0l0.4,2.9l2,2.7l0.9-0.1l-0.7,0.8l2,0.6l-1.2,1.7l0.7,1.5l3.6-0.8l1.3,2.8l0,0h0.5l0,0l0.7-0.2l0,2l1.3-0.5
			l0.2,1l1.1-1.5l0.8,0.2l1.1,2.6l2.4,0.4l-0.5,2.6l0.8,1.5l-0.8,2.1l1,0l-0.6,0.8l0.8,1.4l-0.9,0.4l0.6,1.5l1.4,0.7l1.9-0.7
			l2.3,1.8l0,0h0.3l0,0l1.1,0.7l0.8-0.7l0.1-4l2.4,1l2-1l1.4,1.4l1.5-0.7l-0.1-3.1l-2.2-0.4l0,0h-0.4l0,0l-0.2-1.2l-2.1-0.2
			l-1.8-2.2l-1.7-0.5l0.8-2.4l-1-0.1l0.2-1.8l2.5,0.6l2-2.6l1.2,0.5l1.7-1.3l1.9,0.5l0.9-0.9l1,1.6l1.1-0.6l0,0l0.5-0.2l0,0l1.3-0.4
			l3.1,4.4l0.8-0.2l-0.3-1.6l2.8,0.5l0.5,1.6l2.6-0.8l0.2-1.4l1.7-0.1l0.2,1.8l1.3-0.4l1.3,2.3l-1.6,3l0.8,1.4l2.3,0.5l-0.4,1.1
			l0.9-0.3l0.3-2l3.6,2.4l0.3-2l0,0h0.3l0,0l-0.6-0.5l1.1-1.3l-0.5-3.1l1,0.1l-0.9-1.5l1.5-0.9l-1.7-4l0.6-3l-1.2-1.9l0-3l2.5-0.6
			l0.3,1l0.7-1.4l1.3-0.1l0-1.8l1.6-0.2l-0.1-1l5.4,1l0.6,1.2l-0.4,0.8l-1-0.2l0,5l1.9,1.3l-0.5,1.2l1.4-1.2l1.2,0.2l-0.2,3l2.6,0.5
			l0.1,2.1l2.4-1l0.7-1.5l1.4-0.3l2,1.5l5.3-1.5l0.4,0.6l1.6-1.3l1.6,0.3l-0.7-0.9l1.3,0.4l0.4-0.9l2.9,1.7v1.3l6.3-3.4l0,0l1.9,1.5
			l-0.3,1.2l1-0.4l1.2,1.1l-0.4,3.8l1.3-0.4l3.1,2.9l0.1-0.6l2.8-0.2l0.6,1.5l0,0l1.6,1.1l-0.4,0.9l1.3,2.1l-2.7,1.3l-0.4,1.3
			l2.3,1.6l1.5-0.3l0.6,2.5l0.9-0.3l0.5,1.4l0.9,0l-0.5,0.4l1.7,2.6l-1.4,2.6l0.3,3.3l2,1.5l1.1-0.3l1.7,2.1l-0.9,1.8l3.6,0.5l0.7,2
			l0.6-0.7l1.9,2.2l2.1,0.2l0.1,1.1l1.8,0.3l0.1,1.8l1.8-1l1.9,1.4l0.6,0.9l-1.8,2.3l0.5,1.3l4.4,1.5l0.2,2l-3.4,4.4l0,1.8l-1.5,0.2
			l-0.6,2.5l0.5,2.4l-4.5,2.5l0.1,1.8l2.4,3.8l2.9,1.6l2.2,0.1l0.4,6.7l2.1-0.2l1.9,8l2,1.1l1-0.6l0.5,0.9l-0.7,4.5l1.5,2.3l0,1.8
			l3.3,1l3.1,2.9l1.5,4.7l4.3,0.2l2.2,1.5l0-2l4,0.6l4,3.8l1.4,0.2l0.3,3.9l1.3,0.1l0.5,1.3l1.3,0.4l0.4,1.8l1.7,1l-0.2,1.5l3.9,2.9
			l0.4,3.5l3.6,2.3l3.4-0.5l6.6,6.3l0.6,6.5l5.9,4.4l0.8-0.1l0-2.5l1.5-0.5l3.1,0.4l1.8,3.2l1.3-1.1l-0.4,1l3.1,5.7l2.8,0.3l1.4-0.8
			l1.7,4.9l1.8,0.5l1.4,3.1l-0.6,1.7l2.2,0.9l-2.9,5.4l1.1,1.3l1.6,0.3l-1.6,0.7l0.7,7.4l-1.5,1.8l0,2.1l-2,1.9l-0.7-1l-0.8,1l0.2,2
			l-1,1.7l-4.2-1.9l-0.7-1.3l-3-1.8l-2.1,0.6l-4.1-2.8l-0.2,1.4l-1.9,1.8l-1.6-0.8l-0.8,0.6l1.2,4.5l-2,5.3l0.8,2.5l-1.8,5.4
			l-4.9,4.7l-5,3.2l-4.7-0.2l-10.3,3.6l-4,4.6l-5.6,0.7l-1.4,3.3l-3.1,2l-0.9,2.2l-1.8-0.3l-0.5,1.6l0.8,3.5l5.7,5.5l1.5,5l2.5,0.6
			l0.5,1.6l1-0.4l4.2,8.9l-4.8,7.3l1,0.8l-2.2,3.8l1.3,1.2l2.8,0.3l2.9-1.5l4,3.5l-0.2,1.6l1.4,3.3l-2.3,3.1l0.6,1.3l-1.8,1.1l1,1.3
			l-1.7,2.5l1,1.2l-0.1,2.8l-2.8,2.7l-0.6-1.4l-1.3-0.6l-0.4,1l-3.8-2.1l-1.7-2.3l-1.9-0.8l-0.4-1.5l-3.2-0.9l-1-2.4l1.1-2.3
			l1.7-0.7l-4.2-3.7l1.5-2.1l-1.5,0.9l-1.7-1.5l-3.3-0.2l-2,1.2l-2.8-0.2l-1.9,3.8l-2.5-0.3l-2.5,1l-3.8-4.7l0.1-1.8l-4.6,1l-2-1.2
			l-5.1,1.7l-0.9-1.4l1.5-3.7l-0.8-0.9l-2.4,2.9l-3.3,1.1l2.4,5.8l0.2,3l-1.8,0.5l0.2-1.3l-2.5,0.8l-4.9-1.3l-2.6,0.8l-0.8-1.4
			l-2.1,1.1l-4,0l-3.7,1.1l-0.7,1.9l-4-0.9l-7.6,0.7l-1.7-1l-0.1,1.3l-1.9,0.2l-1,5l-1,1l-4.2,0.9l-4.7-0.8l-3.1,3.8l1.5,0.4
			l0.9,2.2l-5.4-0.4l-3,2.1l-0.1,1.8l-1.4,1l-2.8,0.2l1.9-3.1l-3-0.5l-5,2l-0.8,1.5l-8.9-0.2l-0.5-1.6l0.9-1.4l-3.5-3.8l0.4-0.9
			l-4.2-0.1l0.2-1.8l2.9-1.1l-1.9-2.3l-7,2.2l-1.2-1.9l-4.1-1l-0.3-1.4l-5.9-0.9l-1.7,3.3l-3.1-0.1l-4.3-1.9l1.6-2.8l-2.7,0.1
			l-0.5,0.7l1.4,2.2l-1.4,4.8l0.8,1.7l1.6,0.8l0.4,4.1l-2.5,2.1l0,2.8l-2.5,0.5l-4.2,6.6l-6.2,3.3l-2-0.6l-1.6,0.7l0.2-2.5l2.2-1.5
			l-1-1.4l2.4-5.1l-0.6-0.5l-0.9,0.8l-1.9-1.2l-1.2,2.3l-3-0.6l-1.3,1.8l-1.8-5.3l2.2-1.6l-0.7-2.3l-2.5-1.2l-0.7-2l-2.7,0.4
			l-0.9-1.4l0.5-0.5l-1.9-1.8l0.3-2.3l-0.5,1.1l-2.7,0.5l-2.5-1.7l-0.5,1.9l-3.8-1.9l0.8-2.9l-1.7-1.5l-2.5,1.1l-1.6,4.7l-8.7-1.3
			l0,0l0.8-3.1l1.7-2l1.2-0.8l3,0.9l3-1l2.6-2.1l-0.2-1.2l1.6-0.2l0.9-1.4l0,0l0.1-0.4l0,0l1.3-1l7.2,2.5l2.2-2.7l1.8-0.6l0.3,1.1
			l2.1-0.1l0.8,3.4l0.9-3.2l1.3,0.7l1.2-1.1l0.6-2.3l-1.5-1.7l0.1-3.8l-3.5-2.6l1.8-1.6l1.5,0.4l0.4-1.1l1.1,0.2l-2.3-3.1l0.3-1
			l-1,1l0.9-2l-1.4,0.7l-0.3-1l1.8-1.3l-0.6-0.5l0.9-2.5l0.1-2.2l-1.5-1.5v-1.8l1.8-0.7l1.7-6.8l0,0l-0.1-0.6l0,0l0.3-0.5l0,0v-1.5
			l0,0l-0.5-3.6l-1.8-1.8l-2.8-9.8l0.1-4.6l-4.3-6.3l0.1-1.5l-1.5,0l-0.3-1.4l4.5-4.9l-0.9-0.8l0.6-2.1l1.6,0.4l2.8-2.2l1.7,2.1
			l2.4-0.3l0.8-1.7l3.7-1.5l0-1.3l-0.9-0.1l0.5-0.5l4.8-1.1l-0.6-1.9l0.7-2.1l-1.3-2.4l0.3-1.3l1.6-0.5l-4.3-5.4l0.1-1.5l1.1-0.5
			l-0.3-1.6l2.3,1.7l2-0.4l1.6,3.5l1.8-1.3l1.3-3l1.9,0.5l-1,0.3l0.2,1.7l-1,1.1l3.4-0.9l1.9-1.6l-1.5-1.5l0.7-0.5l-1.8-2l0.6-0.7
			l-1.1,0.7l-1.9-1.8l0.8-0.9l-1-1.4l1.3-0.5l-0.8-2.2l1.8-1.2l0-1.9l-1.4-1.2l1.6-1.5l0-2.9l-2-1.6l2.2-1.1l-1.2-1.6l0.8-0.5
			l-1.4-0.8l-0.8-2.1l-0.8,0.2l0.5-1.7l-0.5,0.5l-0.7-1.1l-0.9,0.2v-1.2l-1.6-0.4l-0.5-2.3l-1.7,0.2l-1.8-1.6l-2.8,0.2l0.7-2.2
			l-1.8-1.3l1-1.5l-1.4,0.2l-1.2-1.1l1-1.7l1.9-1l-0.5-1.9l-1.9-1.4l-1.3,0.8l-1.2-2.7l-0.7,0.4l-0.8-1.4l-2-0.7l0.1-1.2l0.9,0
			l-1.3-3.5l0.9-0.5l-1.5-0.6l0.9-1.7l0.6,1.3l1.4-1.7l-1.6-2l0.6-2.2l-2-0.6l-0.5-1.3l0.3-1l1,0.1l-1-2.8l3.5-1.6l-1.8-4.1l-2.5-1
			l0.7-1.5l1.1-0.1l-1.4-2.7l1.4-1.8l-2.4-0.3l0.4-2.2l-1.7-1.2l-1.6,1.7l1.4,1.2l-2,1.3l-0.7,1.8l-5.8,0.1l-0.9-0.9l0.7-5.9l0,0
			h-0.3l0,0l0-0.9l-1.4,0l1.1-2l-1-0.5l-2.2,2l-0.4,2.2l-3-1l2.3-2.2l-0.4-1.7l1.9-1.6l-1.1-3.2l-1.6-0.9l0.2-5l-2.4-1.8l0.3-1
			l-2.9,2l-1.1,2.2l0,0h-0.6l0,0l-1.1-3.9l-2.1,1.1l-0.1,2.3l-0.9,0.4l0,0l-0.5,0.2l0,0l-1.8-1.7l1.1-1.9l-1-0.8l1.2-0.5l-0.2-1.9
			l0,0l0.1-1.6l0,0l0.3-1.8l-4.2,1.3l-1-0.4l-0.7,0.8l0.3,3l-1-2.2l-2.1,0.2l-0.6-2.3l-1.5,0.2l-1.4,1.7l-2.1-2l-2.1,2l-1.3-0.9
			l-1.3,1l-2.3,0.1l0.5,2.4l-1.7,0.5l5,1l-1.9,1l0.9,1.4l1.5,0l0.3-2.7l2.1,1.9l0.1,2.1l-1.4,1.7l1.3,1.3l-0.9,1.3l-1.4,0.2
			l-1.1-1.4l-1.5,1.3l-2.5-1.1l-2.1,2.1l0.9,1.9l-1.6,2l0,0l-0.6,0l0,0l-0.7,1.3l-2.8,0.7l-5.8-0.3l0,0l-1.2-2.3l-1.1-0.2l0-1.7
			l2.2-2.1l-0.8-5.1l2.4-0.7l-0.4-1.3l1.6-2.7l-2.6-1.8l1.7-2.3l-0.4-1.4l-2.4,0.5l-0.8-2.6l0.5-2.9l-1.3,1.5l-0.8-0.7l0.5-0.7
			l-1.6,0.2l-0.2-2.2l1.1-0.1l-1.8-4.3l-0.3-6.7l0.5-1.4l1.5-0.1l-1-1.1l-0.4-3.5l-3.3-0.8l1.4-2.1l-0.1-2.2l1.4-1.9l6.4-1.5
			l2.2,0.9l-0.2,2.5l2.5-3.5l-0.3-1.1l2.3-1.1l2.1,1l3.5,0.5l1.2-0.7l0.8,0.9l1.8,0l2,4.1l2,0.6l5-1l-0.3-5l0.8-0.4l0,0l0.5-1.6l0,0
			l-0.1-0.1l0,0l-1.8-0.9l0,0l0.1-1.6l1-0.6l-1.3-2.7l0.3-1.5l2.7,1.7l2.2-0.8l0.4,1.1l5.2-1.2l0.1-0.8l-1.8-1l1.1-2l3-1l2.9-2.9
			l0-3.1l-0.9-1.4l1.8-6.9l1.2,0.6l1.4-0.6l0.4,1.2l3.2,1.6l0.8-1.3l0.7,1l1.3-0.4l3.6-2l2.5-3.8l1.3-0.5L266.5,478.3z"/>
		<path id="DE-BE" class="st0" d="M485.4,258L485.4,258L485.4,258l0.8-0.3l-0.1,1.4l2.3,1.4l-1.6,3.9l0.7,1.6l2.7,0.5l2.1,1.8
			l0.1,2.3l3.2,0.8l-0.5,1.1l1.8,0.1l-2.9,6.1l0.8,0.6l1.6-1.3l3.7,2.5l-0.4-1.4l3.7,2.6l-1.2,1.1l0,0l-0.9-0.2l0,0l1.1,0.5l0,0
			l0,0.2l0,0l-0.3,0l0,0l-0.4,0.6l0,0l0.4,1.1l0,0l-0.6,1l0,0l-2.7,1.4l0.9,1.2l-1.7,0.9l-1.6,2.9l-0.7-0.7l0.5-3.3l-0.9-0.6
			l-1.4,0.8l-1-1.9l-3.5,0.4l-0.1-1.1l-3.6,0.4l-0.9-2.5l-3,1l0,3.5l-2-0.2l-0.1-1.1l-1,0l-1.7-2.3l-1.5,0.8l0,0l-1-0.3l0,0
			l-0.5-1.1l-1.5,1.2l-1.6,0l-0.2-1.6l-1.3-0.1l-3.7,1.6l-0.6,1l0.8,0.1l-2.4,0.5l0,0l-0.3,0l0,0l0.6-0.8l-2.2-1.3l0,0l-0.3-0.2l0,0
			l-0.5,0l0,0l0.4-1.1l0,0l1.7-1.6l-0.8-1.2l0.5-3l3.1-3.3l-1.5-1.1l-1.6,0.3l0.6-3.5l1.2-0.3l0.5-2.3l-1.6-1.2l2.2-1.3l3.4,1.1
			l-1-2l1.2-2.2l2.7,0.1l-0.2-1.4l1.4-0.2l0-2l1.7,0.4l0,3l3.2,0.5l2.2-2.6l1.8,1.3l1.4-1.5l1.7-0.1l-1.3-1.2l0.6-0.7l0,0l0.9-0.5
			l0,0l0.4,0.1l0,0L485.4,258z"/>
		<path id="DE-BB" class="st0" d="M344.6,210.1l8,1.2l0.3-3l1.5-0.2l1.2,0.6l1.4-0.6l0.5,1.4l2,0.7l1.8-0.5l1.5-1.4l-0.4-1.4
			l1.1-1.5l-1-4.7l2.3-0.5l2.5-2.8l2.6-0.5l3.9,1.3l0.2,1.5l2.9-1l2.7,0.3l0.8-1.2l-2.2-1.8l4.1,0.5l2-3l3.6,0.7l1.6-2.9l1.3,0.6
			l1.8-0.9l-0.4-3.6l2.7-1.8l-0.8-2.3l2.2,0.5l0.1,2.2l1.9,0.3l2.5-1.8l1.1,2.3l1-0.4l0.1-1.1l2.7-0.6l1.8,3.7l3.3-0.4l5.2,3l0,1.7
			l2.2,1l1.1,2.7l5.1-1.5l5.1,2.1l3.6-1.1l0.9,0.5l-0.7,1.6l1.1,0.7l4.6,0.3l-1.1,2.5l2,1.3l4.9-1.5l2,2.3l1.6-1.5l1.6-0.2l-0.5,0.8
			l1.2,0.1l-0.2-0.8l1.8-0.6l1,0.9l-2.4,1.8l1-0.4l1,1.7l1.9-0.5l2.2-3l2.4-0.5l0.6-1.4l1.2-0.2l-0.1-2.1l1.6,0l1.3-1.6l2.1,0.1
			l1.3,2.9l1.8,0.7l0.9-4.3l3.5-2.6l2.5,0.8l1.4-0.5l1.6,3.7l1.2-0.6l0,0l-0.1-0.2l0,0l2.2-3.7l-0.1-1.4l1.1,0l0.5,1l1.4-0.4
			l1.1-3.5l1.3,0.6l-0.4-3.5l0.5-1.4l1.2,0.1l0.9-1.4l-0.4-2.2l2.3-1.6l2.5,0.4l0.5-3.4l5.1-4.3l1.6-0.5l2.3,1.3l2.4-1.3l0.6-1.3
			l-3.1-1.8l1.2-4.8l1.9,4.4l3.5,1.4l-0.1,3.3l2.5,2.2l-0.9,2.4l1,1l5.4-1.4l2.9,0.5l0.4,1.8l2.2,0.3l2.3-3.2l3.7,2l1.8-0.2l0.9-1.2
			l1.1,0.7l0.3,4.3l-1.2,3.1l-6.1,6.5l-2,3.8l3.9-0.5l3.3,1.3l3.2-0.6l0.1-1.8l2.5-1l1-2.7l1.9,0.1l4.1-2.2l0,0l0.6,5.6l1.2,0.3
			l0.5,1.4l-2.8,5.6l-1.8,1.1l-0.6,4.1l1.2,2.1l-1.5,6.6l-1.2,2.8l-5.4,5.1l-7.3,4.5l1,8.1l-2.4,4.9l1.2,1.4l4.9,0.8l3.8,4.4
			l4.6,2.5l7.2,9.4l8.5,5.5l2.6,3.8l-2.2,4l1.9,4.5l-3.4,5.1l-2,0.9l-1,4l1.7,6.9l1.4,2.1l-0.5,1.9l1.1,1.7l6.1,1.8l1.6,2.1
			l-0.5,2.9l-1.3,1.3l1.2,2.6l-1.6,2.9l0.1,2.8l4.9,5.3l-0.9,1.2l0.2,2.3l-2.1,3l0.5,1l-1,1.7l1,3.5l-1.6,4.2l-5.4,4.8l-1.2,2.9
			l1,2.3l2.5,1l1.5,7.2l4.4,3.9l1.3,2.9l0.5,5.4l-2.2,2.6l0,0l-2.1-1.6l0.4,2l-1.5,2.6l-4.1,0.3l-1.2-2.2l-1.8-0.9l-1.5,0.8
			l-0.4,1.4l-5.3,0.2l-0.4,1.5l-3.8,0.1l-2.9,2.4l-0.6,1.5l-0.5-0.8l0,0l0-0.5l0,0l-3.4-1.6l-1.5,0.5l-2-1.2l-4.8-0.4l-0.5,1.1
			l0.7,0.9l-2.2,0.3l-0.7,2.4l-1.3,0.5l0.9,1.6l-3.5,0.1l1.8,3.1l-1.6,1l0.5,1.7l-1.9,1.4l0.7,0.9l-1.5,0.1l-0.4,2.2l-1.8-0.3l0-1.7
			l-0.8-0.3l-3.4,1.7l-4.5-0.5l-1,1.5L505,392l-0.6,0.8l-0.4-0.8l-1.6,0.9l-4.7-1.5l-0.6,0.7l-4,0.1l-0.5-1.5l-1.2-0.1l-1.6,1.6
			l-0.4-1.2l-0.9,0l-0.2-2l-3.6-1l0.7-0.7l-1.7-1.4l-1.6,1.1l0.4-1.2l-1.8-2l-1.5,1.8l0.2,1.1l-3.5-1.2l0.3,1.1l-2.7,1.5l0,1.3
			l-1.6-0.2l0.4,1.6l-3.3-1.1l-1.4-4.1l-0.3,1.3l-0.9-0.4l1.8-2.3l-1.3-2.5l0.1-1.7l1.1-0.1l0.4-3.2l-1.4-3.4l-2.6-1.2l1.1-2.5
			l-2.5-2.7l-2.2,1.2l-2.2-3.8l0,0l6.1-3.9l0.8-0.8l-0.5-1.9l2.1-0.6l-2.1-2.9l0.8-0.6l-1.1-1.8l1-3.9l-2.6-5.1l1.9-0.5l-0.9-2
			l-1.2-0.2l-2.5,1.4l-2.5-0.3l-0.8-0.9l0.7,0l0.4-2l-4.6,0l0.1-2.2l-1.2-0.2l0.1-1.3l-2.5-0.4L448,335l-0.2-0.7l-2.2-0.1l-0.5-3.4
			l-4.1,0.5l-1.5-2.5l-5.4-2.6l-1-0.1l-0.7,1.9l-1.9,0.3l-0.1,1l-4.6-0.4l-0.3-1.8l-2.9-1.1l-0.7-2l-1.1-0.1l-0.7,1.8l-1,0.1
			l-2.9-2.8l-1.9-0.5l-2.9-4.6l-2.4-1.3l-0.9-2.9l-2.8-3.8l0.5-1.6l1.3,0l0-2.8l3.2-1.7l-2.4-0.7l0.8-0.5l-1.7-1.3l2-6.7l2-3.1
			l-1.6-2l1.4-1.3l-0.8-0.9l0.5-2.1l-1.7-0.8l1.5-0.9l-0.5-0.7l2.7-4.9l-1.4-1.1l1.4-0.9l-3.8,1.1l-0.7-0.9l0.7-0.5l-1.8-2.2
			l-1.5,2.1l-2.1,0.5l-1.2-1.9l1.5-2l-1.2-0.7l-1.8,1l2.3-4.6l-0.6-5.3l2.1,0.7l1.7-1.1l0,0l0.1-1l0,0l0.4-4.5l-1.1-0.8l0.3-1.6
			l-1.1-0.8l0.2-0.9l-0.8,0.2l1.5-2.7l-0.8-1.5l0.7-3.1l1.9-0.2l0.5-1.6l-1.5-5.9l-2.1-0.7l-0.4-1.1l-4.4,2.7l-0.1-4.3l-0.8,1.8
			l-5.7-1.4l-2.8,1.5l-5.7-2l-1.4-1.6l-2.2,0l-0.8-1.2l1.7-2.1l-0.3-1.2l-3.7-0.9l-2.8-3l-3,1.2l-1.1-3.3l-3.2-0.4l0.9-2.8l-2.5,0.2
			l0,0l-3.3-1.9l-2.5,0.5l-3.5-3.2l-7.3,2.4l-4.2-4.5L344.6,210.1L344.6,210.1z M484.3,257.9L484.3,257.9l-0.6,0.7l1.3,1.2l-1.7,0.1
			l-1.4,1.5l-1.8-1.3l-2.2,2.6l-3.2-0.5l0-3l-1.7-0.4l0,2l-1.4,0.2l0.2,1.4l-2.7-0.1l-1.2,2.2l1,2l-3.4-1.1l-2.2,1.3l1.6,1.2
			l-0.5,2.3l-1.2,0.3l-0.6,3.5l1.7-0.3l1.5,1.1l-3.1,3.3l-0.5,3l0.8,1.2l-1.7,1.6l0,0l-0.4,1.1l0,0l0.5,0l0,0l0.3,0.2l0,0l2.2,1.3
			l-0.6,0.8l0,0l0.3,0l0,0l2.4-0.5l-0.8-0.1l0.6-1l3.7-1.6l1.3,0.1l0.2,1.6l1.6,0l1.5-1.2l0.5,1.1l0,0l1,0.3l0,0l1.5-0.8l1.7,2.3
			l1,0l0.1,1.1l2,0.2l0-3.5l3-1l0.9,2.5l3.6-0.4l0.1,1.1l3.5-0.4l1,1.9l1.4-0.8l0.9,0.6l-0.5,3.3l0.7,0.7l1.6-2.9l1.7-0.9l-0.9-1.2
			l2.7-1.4l0,0l0.6-1l0,0l-0.4-1.1l0,0l0.4-0.6l0,0l0.3,0l0,0l0-0.2l0,0l-1.1-0.5l0,0l0.9,0.2l0,0l1.2-1.1l-3.7-2.6l0.4,1.4
			l-3.7-2.5l-1.6,1.3l-0.8-0.6l2.9-6.1l-1.8-0.1l0.5-1.1l-3.2-0.8l-0.1-2.3l-2.1-1.8l-2.7-0.5l-0.7-1.6l1.6-3.9l-2.3-1.4l0.1-1.4
			l-0.7,0.3l0,0l0.2-0.6l0,0l-0.4-0.1l0,0l-0.5,0.7L484.3,257.9L484.3,257.9z"/>
		<path id="DE-HB" class="st0" d="M167.6,199.1l0.7-0.1l0,0l3.3,2l1.6-0.9l1.3,0.5l-1.2,2.2l2,0l0.8,2l3.4-0.3l1.4-1.1l0.4,0.9
			l1.5-0.4l0.9,1.7l5.5,0l0.6,0.7l0,0l0.2,0.9l0,0l1.2,1.5l0,0l0.1,0.3l0,0l3.2-0.1l2-2.1l2.5,2.7l-2.2,1.1l1,1.8l1.7,0.3l-1.7,1.3
			l0.2,2.6l1,1.4l-2.8,2.3l-0.1,1.1l-2.6,0l-1.8-2.8l-0.1,2l-2.8,0.1l-2.8-2l-0.4-1.5l-1.1,1.6l-2.4-0.1l-0.8-1.6l0.3-2.3l-2.8-1.6
			l0.2-1.3l-2.5-3.8l-0.7-3l-6.9-3.2l0,0l-0.3-0.3l0,0l-1.6-2.5l0.5-0.4l0,0L167.6,199.1L167.6,199.1z M169.5,158.6l4.6,1.4l1.4-1.2
			l1.9,0.3l-0.2-0.9h1.1l-2.7,3.8l0.7,1.9l1.1,0.2l-0.4,2.9l0.8,1.5l-1.1,2l-1.6,1.2l-1.3-0.9l-0.8,0.7l-1.7-3.6l0.5-0.4l0,0
			l0.9,0.1l0.1-2.4l0.5,0.5l-1.2-1.3l0.1-2.6l-0.7-0.1l-0.2,1.4L169.5,158.6L169.5,158.6z"/>
		<path id="DE-HH" class="st0" d="M246.6,163.8l2.6-8l0.1,1.6l1.6,0.5l0.2,2l2.3,0.8l3.5-3.9l1-3.1l4.6,0.6l1.3-3.7l4.2,0.3l0.8-2.8
			l-0.6-0.7l0.8-1l2.6,0.8l3-2.7l1.6,0.8l-0.1,0.8l-0.6,1.6l-1.6,0.6l0.2,1.5l-1,1.4l2.6,1.5l0.9,1.7l-0.5,1l1.9,0.5l-2,2.3l0.5,2.9
			l-3.1,1.4l0.7,5.4l1.6,1.1l1.5-0.9l1.9,4.1l3.3,3.2l2.1,0.3l-1.1,1.6l0,0l-2.9,1.4L279,181h-4.1l-7.8-7.2l-0.3,1.8l-1.8,0l0.7,1.3
			l-2.9,2l-2.8-1.3l-1.7,1.5l-0.6-0.2l0.9-2.1l-1.1-2.2l-2.7,1.9l0,0.9l-3.5-3.6l-0.2-3.1L250,171l0.2-1l-1.4-1l1-1.2l-0.8-2.2
			l0.6-1.4L246.6,163.8z"/>
		<path id="DE-HE" class="st0" d="M228.8,363.9l2.9-1l-0.3,2.1l1.1,1l2.2-1.4l1.6,1.6l3.6-1.2l0.7,2.8l3.3,3.2l-0.7,1l-3.1-1.7
			l-0.2,1.5l1.3,1.9l-1.5,0.3l-1.1-1.3l1,2.9l-2.3,1.7l3.6,4.7l-1,2.4l1.1,2.9l-1,1.3l-3.2,0.4l-1.2,2.2l1.1,0.9l-0.5,0.9l-2.4-0.5
			l1.9,2.3l2.7,2l1.8-0.1l-0.1,1.4l2.5-0.7l4.1,2.3l2.2-1.1l0.3-3.1l-2.1,1.8l-2.4-4.5l2.6-0.7l1.8-1.8l1.8,0.3l-0.2-2.3l1.5-0.4
			l1.3,1l0.1,1.9l1.6,1.2l-0.9-4.4l1.8,0.9l0.2-1l1.2-0.3l1.8,2.5l-0.2,1.8l0,0l-0.2,2.1l1.5,3.5l-0.6,1.3l1.9,0.7l0.2,1.6l5.3,0.6
			l-0.5,2.5l2,1.1l-0.6,1.7l2.8,1.1l1.7-0.5l0.6,1.4l1.1-0.5l1.9,2l2.6,0.7l-2.2,3.5l0.6,2.6l-0.8,1.3l-2.1-4.1l-3,1.4l3.5,2.3
			l-1.9,3.2l0.6,1.6l-0.8,1l4.1,2.5l0.6,0.9l-1.4,0.8l0.7,1.1l-3.7,1.5l-1.7-1.8l-1.1,0.6l-4-0.9l-1.3,3.2l1.4,1.4l0.1,1.9l1.3,0.5
			l-2.2,0.7l-0.3-0.6l-0.8,0.9l-3.9-0.8l0.2,1.9l0.7-0.9l1.5,0.1l-1,2.4l2.6-1.4l2.5,2.2l-0.2,1.1l0.8-0.1l0.1,0.8l-2.4,1.7
			l-0.1,1.8l1.1-0.4l-0.7,1.8l-1.3-0.3l-0.6,1.1l-1-0.5l0,0l-0.4-0.1l0,0l-1.4,1.1l-0.6,2.2l0.6,2.6l-1.8,0l-0.3,1.5l1.1,0.3
			l0.1,1.7l-2,3.4l0.9,1.1l-2.8,2.4l-0.2,3l5.3,1.1l0.5-1.2l-1.2-1.5l0.3-1.1l3-0.9l3.4,0.5l1.8,4.9l-2.1-0.1l-0.8,1.3l1.5,5.5
			l-1.4,2.7l0.2,1.3l0,0l-1.5,4.9l-1.3,0.5l-2.5,3.8l-3.6,2l-1.3,0.4l-0.7-1l-0.8,1.3l-3.2-1.6l-0.4-1.2l-1.4,0.6l-1.2-0.6l-1.8,6.9
			l0.9,1.4l0,3.1l-2.9,2.9l-3,1l-1.1,2l1.8,1l-0.1,0.8l-5.2,1.2l-0.4-1.1l-2.2,0.8l-2.7-1.7l-0.3,1.5l1.3,2.7l-1,0.6l-0.1,1.6l0,0
			l1.8,0.9l0,0l0.1,0.1l0,0l-0.5,1.6l0,0l-0.8,0.4l0.3,5l-5,1l-2-0.6l-2-4.1l-1.8,0l-0.8-0.9l-1.2,0.7l-3.5-0.5l-2.1-1l-2.3,1.1
			l0.3,1.1l-2.5,3.5l0.2-2.5l-2.2-0.9l-6.4,1.5l-1.4,1.9l0.1,2.2l-1.4,2.1l3.3,0.8l0.4,3.5l1,1.1l-1.5,0.1l-0.5,1.4l0.3,6.7l1.8,4.3
			l-1.1,0.1l0.2,2.2l1.6-0.2l-0.5,0.7l0.8,0.7l1.3-1.5l-0.5,2.9l0.8,2.6l2.4-0.5l0.4,1.4l-1.7,2.3l2.6,1.8l-1.6,2.7l0.4,1.3
			l-2.4,0.7l0.8,5.1l-2.2,2.1l0,1.7l1.1,0.2l1.2,2.3l0,0l-0.2,1.7l-1.1-0.1l-0.6-1.4l-0.1,1l3.4,4.7l-1.2,0.7l-0.4-1.6l-2.2-0.4
			l-0.9,1.7l0,0L203,578l0,0l-1.4,1.1l-2.5-1.3l-2.2,0.6l0.1,2.1l-0.9-0.2l-0.6,1.4l1.2,1.4l-2.4,1.8l-0.7-0.6l-0.5,2.2l-2.8,2.5
			l-1.2-1.2l-1.1,1.1l-0.9-1.3l2.3-2.3l-0.8-3.4l1.7-1.5l0.6,1.7l0.9-0.1l1.5-1.7l-0.1-1.8l-3.3,0.2l-0.9,0.9l-0.9-1.4l0.3-1.8
			l-1.6,1.3l-4.1-0.9l0,0v0.3l0,0l-2-1.7l0.2-1.3l-1.6-2.6l1.1-2.1l-1.7-1.9l0.7-0.5l0.4,1.4l0.3-1.5l-6.2,1.3l1.3,6.8l-0.5,1.3
			l-0.7-0.3l-2.2,1.7l-5.5-6.8l-1.8-0.6l-1.6,0.6l0,0l-2.4-4.2l-1.6-6.5l5-2.9l2.6-4l-0.5-0.7l-3.1,0l-2.8-5.3l0.3-3.3l-2.5-2.1
			l0.6-4l-2.1-5.8l-4.9-5l-3.9-0.8l-9.2,3.1l-4.5,2.5l-5.3,0.6l-1.2-0.8l-0.9-3.2l-5.1-4.4l1.9-2.6l2.2,0l-0.4-1.4l1.3-2.8l2,1.3
			l1.1-0.7l1.8,1.9l-0.6-3.1l0.7-1L129,513l-0.1-1.3l1.7-1.2l0-1l2.3-0.6l0.3-1l2.3-0.8l0.1-1l1.5,2l1.3,0.2l1.3-2.1l0,0l-0.3-0.4
			l0,0l-1.7-1.7l0.9-1.3l2.4-0.1l0.4,1.1l1.7,0.1l0.8-3.8l-1.1-1l-0.1-1.7l-1.9-0.5l0.3-1.5l-1.1-2.6l-0.9-0.1l-0.2-1l-1.8,0.1
			l0.4-1.6l-2.3,0.1l-1.4-1.1l1.4-1.2l0.2-1.2l-0.8-0.4l2.3-1.5l-2.1-3.4l1.1-3.8l3.1-3.3l1.8,1.9l2.1,0.5l2.1-1.7l1-4.8l-1.6-1
			l0.9-2.3l-1.9-2.7l0.9-2.6l0,0l2.7-4.9l-2.4-4.5l0.3-1l0,0l0.4-0.1l0,0l8.1-9l1.6-0.1l0.9,2.1h3.4l4.7-5.7l1.8-0.1l-0.6-2.2
			l0.5-2.5l1.3-0.3l-0.2-0.7l4-4.4l-1.2-2.5l-0.9,0.3l1.4-2.3l-1.6-1.7l1.6-1.7l1.9-0.6l6.3,0.9l1.8-1.3l2.3-0.2l-1.2-1.4l0,0h-0.2
			l0,0l-0.1-1.4l4-4l-0.7-2.2l1.3-1l-1.7-1l-0.9-3.3l0.6-1.1l-0.9-1.1l-1.9-0.2l-6.1,2.9l-2.4-3.1l4-6l1.1-0.8l1.1,0.4l0.3-1.6
			l1.4-0.5l-0.3-1.1l1.1-0.6l2.4,0.4l4.6-1.9l2.2,0.2l1.1,1.1l2.3-1.5l3,0.4l0.6-3.9l-1.8-0.3l0-1.8l-1.8-3.4l8.1-3.7l1.3,1.6
			l2.4-0.1l0.9,0.8l-0.8,3l1.1,2.1l2.6-0.6l1.5,0.7l1.5-2.3l2.1,0.7l0.5-3.1l2.5-0.9l1.2-1.6l1.6,0l0.5-4l3.6-4l-2.2-2.4l5.4-1.6
			L228.8,363.9z"/>
		<path id="DE-MV" class="st0" d="M506.6,98l1.9,4.6l2.2,2.7l9.2,5.2l13.4,13.4l-2.7,1.6l1.9,1.4l-0.1,3.6l-11.2-0.8l-3,2.8L515,133
			l-1.1-0.8l1.3,0.3l0.7-1.1l-1.6-1.7l-1.1,3.4l-2.1,0.3l-3.4-1.1l0.7-2.3l3.9-0.7l2.5-3.3l-1-4.4l-1.6-1.7l0.8-2.6l3.5,0l-0.4,5.9
			l0.5-2.4l1.1-0.5l2.5-0.1l-0.8,1.2l1.9,0.9l0.5-4.6l-0.5-2.9l-1.4-1l-0.7,1.1l-0.7-3.5l-1.6-2.3l-3.9,0.1l-0.2,2.2l1.7,1.6
			l-0.4,1.3l-0.7-0.6l0.4-1.5l-1.4,2.4l-2.5,1.3l-0.4-1.5l1.7-2.7l-1.5-1l-3.6,3.2L504,114l-0.2-1.2l1.1-0.9l1.6-4.6l0.2-3l-1.4-0.5
			l-2.2-2.7l-0.5-2.3l2.4-1.6L506.6,98L506.6,98z M463.4,82.7l-0.6,0.6l-0.5-1.1l0.8-0.4L463.4,82.7L463.4,82.7z M488.6,81.8
			l-0.2,0.7l-0.4-0.7l1.5-1.8l0.3,1L488.6,81.8z M436.2,69.6l1.6,1.4l-3.4-0.1l0.9-1.5L436.2,69.6L436.2,69.6z M451.6,68l1,0.6
			l-2.5,0.4l0.3-1C450.5,68,451.6,68,451.6,68z M458.4,67.4l-5.1,1.4l1.7-1.3l2.1-0.1l1-1.4L458.4,67.4L458.4,67.4z M425.1,63.7
			l-0.9,0.9l3,2.2l6.7,1.2l15.8-0.3l0.6,2l-3.2,1.4l-3.3-0.8l-1.4,1.4l-1.1-0.8l-3.2,0.1l-1-1.8l-2,0.1l-1.6,2.5l-1.9-0.8l0.1-1.1
			l-1.5,2l-2.5,0.4l1.4,1.3l-0.4,1l-0.4-0.8l-2.1,0l-1.8,1l-0.3,0.7l1,1l1.2-1.5l0.8,0.7l3.4-0.1l3-1.8l0-2.1l2.5-0.3l0.5,0.9
			l-1.7,0.4l0.4,1.5l-1,1.6l0.7,0.1l0.9-3.1l0.9,0l0.3,2.9l1,0.2l0.6-1.4l1.4,1.3l1.2-2.7l1.6,5.7l4.4-2.6l1-3.6l1.7-1.3l4.1-1.4
			l1.4-1.3l1.3,0.3l-0.3,4.2l1.4,1.8l2-0.1l0.9,1.5l-1.1,2.4l0.8,2.8l1.7,2.1l-0.6,2l1.9,1.5l2-1l0.9,0.8l-2.2,1.8l2.7-1.4l1.8,2.8
			l4.7,0.6l2.3,5.5l2.8,0.2l-2,0.5l-1.5,1.9L479,97l2,1l-0.9-1.6l1.5,0.8l-0.1,1.5l-0.4-0.5l-1.8,1.4l0.1,0.8l1.8-1.3l-0.2,1
			l1.4,1.1l2.5,5.4l2.1,0.1l-1.5-3.3l0.9-0.9l8.6-1.8l4.4-3.4l1.1,0.3l0.3,0.7l-1.3,0.5l0.2,0.9l2.2,1.4l1-0.4l0.3,2.2l3.1,2.3
			l-0.9,3.8l-0.9,0.5l0.4,1.3l-2.3,2l0.8,0l0.2,1.4l2.1,2.1l2.5,1.2l1.4,3.7l1.6,0.1l2.1,2.9l-0.8,1.3l-2.4,1.1l-1.1,2.4l-1.4,0.1
			l0,1.3l-1.2,0.6l0.7,1.8l2.2,0.1l3,4.2l1.1-0.3l3.3,3.6l8.5,3.5l4-0.2l1,0.7l3.1-2.8l2.3,1.4l-0.1,1.9l-3.3,3l3.7,0.7l0.5,1
			L536,152l0.9,0.6l0.1,2.9l2.1,1.8l-0.6,7.9l1.2,4.1l1.7,1.5l2.5,14.7l1.3,2.6l0,0l-4.1,2.2l-1.9-0.1l-1,2.7l-2.5,1l-0.1,1.8
			l-3.2,0.6l-3.3-1.3l-3.9,0.5l2-3.8l6.1-6.5l1.2-3.1l-0.3-4.3l-1.1-0.7l-0.9,1.2l-1.8,0.2l-3.7-2l-2.3,3.2l-2.2-0.3l-0.4-1.8
			l-2.9-0.5l-5.4,1.4l-1-1l0.9-2.4l-2.5-2.2l0.1-3.3l-3.5-1.4l-1.9-4.4l-1.2,4.8l3.1,1.8l-0.6,1.3l-2.4,1.3l-2.3-1.3l-1.6,0.5
			l-5.1,4.3l-0.5,3.4l-2.5-0.4l-2.3,1.6l0.4,2.2l-0.9,1.4l-1.2-0.1l-0.5,1.4l0.4,3.5l-1.3-0.6l-1.1,3.5l-1.4,0.4l-0.5-1l-1.1,0
			l0.1,1.4l-2.2,3.7l0,0l0.1,0.2l0,0l-1.2,0.6l-1.6-3.7l-1.4,0.5l-2.5-0.8l-3.5,2.6l-0.9,4.3l-1.8-0.7l-1.3-2.9l-2.1-0.1l-1.3,1.6
			l-1.6,0l0.1,2.1l-1.2,0.2l-0.6,1.4l-2.4,0.5l-2.2,3l-1.9,0.5l-1-1.7l-1,0.4l2.4-1.8l-1-0.9l-1.8,0.6l0.2,0.8l-1.2-0.1l0.5-0.8
			l-1.6,0.2l-1.6,1.5l-2-2.3l-4.9,1.5l-2-1.3l1.1-2.5l-4.6-0.3l-1.1-0.7l0.7-1.6l-0.9-0.5l-3.6,1.1l-5.1-2.1l-5.1,1.5l-1.1-2.7
			l-2.2-1l0-1.7l-5.2-3l-3.3,0.4l-1.8-3.7l-2.7,0.6l-0.1,1.1l-1,0.4l-1.1-2.3l-2.5,1.8l-1.9-0.3l-0.1-2.2l-2.2-0.5l0.8,2.3l-2.7,1.8
			l0.4,3.6l-1.8,0.9l-1.3-0.6l-1.6,2.9l-3.6-0.7l-2,3l-4.1-0.5l2.2,1.8l-0.8,1.2l-2.7-0.3l-2.9,1l-0.2-1.5l-3.9-1.3l-2.6,0.5
			l-2.5,2.8l-2.3,0.5l1,4.7l-1.1,1.5l0.4,1.4l-1.5,1.4l-1.8,0.5l-2-0.7l-0.5-1.4l-1.4,0.6l-1.2-0.6l-1.5,0.2l-0.3,3l-8-1.2l0,0
			l-2.7-2.3l-2.6,0.8l-0.6-2.2l1.4-2.4l-6.8-3.6l-3.9-7l-1.1-0.1l-1.4-5.6l-2.4-0.1l-2-1.5l-5.3,4.7l-4.8-2.5l0.2-1.2l-1.5-0.4
			l-2.6-2.9l-6.6,0.7l0,0l1.3-1.9l1.1-7.6l1.3-0.7l2.5,0.6l0.6-2.4l3.5-0.5l2-2.9l2.4-0.3l-0.7-0.8l1.2-2.3l-0.7-3.5l1-0.2l0.7,1.3
			l3.8-0.7l1.2-6.2l1.5-2.1l-0.6-3.9l-1.4-0.6l0.2-1l-4.6-0.3l-2.5-2l-0.4-1.9l-3-1.5l0,0l0.3-1.8l0,0l0.7-2.6l-1.6-6.3l1.5-2.3
			l1.9-0.4l1-1.9l1.8-0.4l2.3-3l2,1l-0.6,0.9l0.5,1l3.5-1l-4.6-1.6l0.7-3.6l0,0l8.6-5.3l9-1l1.8,2.9l3.3,0.5l-1.1,3l0.9,2.2l2,0.4
			l3-3l2.1,2.7l2.4-0.1l-0.1,1.5l1.8,0.9l0.3,1.4l1.5,0.3l-0.9-1.6l2.3-1.8l0.2-4.3l-0.7,0.4l-0.5-0.7l-1.2,1.2l-0.1-4.3l-1.1,1.4
			l0.3,2.5l-2.2-1.3l-0.7,0.7l1.5,0.1h-1.3l-0.8-1.6l0.7-2.3l3.9-2.3l2.8,0.1l-1.5,5.3l1.4,0.7l0.6-1.9l-0.6-0.9l1.2-2.2l1.5-0.7
			l-0.9-1.3l1.9,0.6l1.5-0.9l0.5-3.2l2.6-1.4l0.2-1.5l-1.4-1.4l-4.7,5.9l-0.3-2.8l2-2.4l3.2-1.3l4.5-4.9l4.9-0.2l5.7,1l10.5-3.6
			l7.3-0.6l3.9-5.8l9.6-6.3l4.6-8.9l3.7-4.4l2.1-6L425.1,63.7L425.1,63.7z M464.4,50.6l0.6,3.2l-0.7-2.6l0,2.5l-0.7-1.6l0.4-1.2
			l-2,1.8l0.3,5l-2.7,4.2l-0.5,4.5l-0.3-2l2.4-8.9l0.1-3.5l1.5-1.5L464.4,50.6z M482.6,41.6l-0.2,2.5l-2.3,1l-1.1,1.9l1,3.8l1.8,2.3
			l2.7,0.9l11-1.6l2.8,2.3l0,3.6l-6.6,6l-0.1,3.2l2.5,4.8l3.8,0.4l3.6,5l2.4,1.5l-1.6,0.6l-1.3,2.6l0.3,4l-0.9,0.8l-1.6-1.7l1.6,0.4
			l-0.5-1.8l-2.6,0.9l-0.9-1.1l3.4-2.1l0.3-1.1l-2.1-0.4l-3.9,1.5l4.3-2.4l0.5-1.4l-2.6,0.4l-1.8,1.9l-2-2.5l-2,1.4l-3.2-0.2
			l-5.2,4.3l-2.3,4l0.3-1.4l-2.4,1l0.3,2.5l0.5-1.9l1,1.1l1.6-1.2l0.9,1.2l0.4,1.7l-2.1,1.9l-6.5-3.2l2,0.6l0.8-3.6l-1.6,1.4
			l0.7,0.9l-3.3,0.5l-3.1-2.7l-1.2,0.9l-0.4-2.9l-3.4,1.6l1-2.4l1.9,0.4l-4.5-3.5l0.8-4.2l4.4-0.5l1.5,0.9l2.6-1.8l-1.5-0.4
			l-0.4-1.5l1.5-0.5l-1.3,0.2l-1.4-2.8l-3.9,0.8l1.8-3.6l-3.4,1.5l-0.2-0.6l3.1-4.9l3.7,0.8l-0.3,2.2l-2.3,0l-0.3,1l1,0.9l0.4-1.4
			l2.9-0.4l-1.3-0.5l2.5-1.3l-2.7-0.6l0.2-2.8l-2,0.8l-1.8-0.5l-1.6-4.2l6.4-1l2.8,1.4l-0.1,2.2l1,0.8l0.5-1.2L474,56l3.7-3l0.9,0.4
			l-1.9,3l1.1,0.4l1.3-1.6l2.5,4.4l-0.1,2.8l1.9,0.7l0.5,1.7l1.4-1.2l1.9,0.1l0.7-5.2l-1.4-3.3l1.2,0.1l0.1-0.8l-1.4,0.4l0.1,1.2
			l-2.9,0l-1.3-1.9l-2-0.5l-1.5-4.5l-2.6,2.3l0.3,1.2l-5.7,2.6l2.6-6.3l0.1-3.1l-3.6,2.3l0.7,3.3l-4.9,4l0.2-1.3l3.4-3l0.1-4.5
			l1.7-2.2l2.8-1.8L482.6,41.6L482.6,41.6z"/>
		<path id="DE-NI" class="st0" d="M60.7,159.3l-3.7,0.4l-2.4,1.2l2.6,1.8l-0.9,1.3l-0.9-1.4l-1.5,1.1l-3.4-2.8l0.3-1.8l5.8-2
			L60.7,159.3L60.7,159.3z M66.7,153.9l-1.1,0.6l1.4,0.1l-1.3,0.6l0.5,0.9l-1.6-0.1l-0.5-1.8L66.7,153.9L66.7,153.9z M61.3,154
			l1.5,0.8l-1.4,0.4l-0.2-2.5L61.3,154L61.3,154z M77.6,149.9l1.1,1L64,152C64,152,77.6,149.9,77.6,149.9z M93.9,145.8l0.8,0.9
			l-3.1,0.9l-0.5-0.6l0.3,0.6l-1.6,0.4l-3.9-0.2l-0.8,0.8l-1.7-0.9l-0.9,1.1l-1-1.1l3.2-1.7L93.9,145.8L93.9,145.8z M147.2,145.1
			l1.4,0.7l-2.1,0.2l-0.4,1.2l-2.2-0.1l1.2-1.8L147.2,145.1z M98.1,144.7l2.1,0.4l0.3,1.5l-5-0.9L98.1,144.7z M109.4,142.2l3.1,0.5
			l0.3,1l-7.5,0.3l-0.4,2l-0.2-0.7l-0.1,0.8l-2.3-0.1l0.9-3.3L109.4,142.2L109.4,142.2z M137.1,141.9l0.7,1.8l-1.1-0.7L137.1,141.9z
			 M137.3,140.8l-0.6,0.8l-0.6-0.4l0.7-1.4L137.3,140.8z M118.7,139.7l6,1.1l-3.8,1.3l-3.9-0.5l-0.8,1.4l-0.9-0.3l1-2.4L118.7,139.7
			L118.7,139.7z M129.7,138.3l4.8,2.2l-6-1.4l-0.7,1.6l-1.2-1.4L129.7,138.3L129.7,138.3z M160.2,134.7l-2,0.3l1.5-1.7l0.9,0.1
			L160.2,134.7z M180.2,127.8l-0.1,1.2l1.5,0.9l-0.4,1.1l1.1,1l-0.5-1.7l3.6,3.6l7.8,1.4l8-1.9l-1-3.6l0,0l13.1-0.6l6.7,2.8l3.2,4.4
			l3.9,8l5.1,4.8l2.8,8.3l7.9,5.6l3.6,0.9l0,0l2.8,0.4l-0.6,1.4l0.8,2.2l-1,1.2l1.4,1L250,171l1.4-0.2l0.2,3.1l3.5,3.5l0-0.9
			l2.7-1.9l1.1,2.2l-0.9,2.1l0.5,0.2l1.7-1.5l2.8,1.3l2.9-2l-0.7-1.3l1.8,0l0.3-1.8l7.8,7.2h4.1l1.6-2.6l2.9-1.4l0,0l1.4,0.9l3,0.1
			l7.8,5.3l5.1,1.5l1-0.5l0,0l6.6-0.7l2.6,2.9l1.5,0.4l-0.2,1.2l4.8,2.5l5.3-4.7l2,1.5l2.4,0.1l1.4,5.6l1.1,0.1l3.9,7l6.8,3.6
			l-1.4,2.4l0.6,2.2l2.6-0.8l2.7,2.3l0,0l0.4,2.5l4.2,4.5l7.3-2.4l3.5,3.2l2.5-0.5l3.3,1.9l0,0l-2.5,2.5l-0.2,1.4l-3-0.7l-1.1,4.8
			l0.6,2.1l-2.9,0.7l-3.3,3.1l-5.8,2.8l-1.1,0.4l-0.3-1.5l-3.3,1l-1.1-1.9l-4.1-0.8l-3.6,0.7l0-1.6l-6,0.1l-0.9,0.4l-0.3,2.4l-3,3.3
			l-2.7-0.3l-1,1.1l-0.9-1.1l-6.4,1.4l-0.7,6.2l2.3,3.8l0.3,3.6l1.9-0.3l0.8,2.3l0,0v0.3l0,0l5,8.6l3.6-1.5l-0.3,2.1l-2,1.5
			l-0.1,2.3l4.5,7.5l0,0l-0.6-0.1l0,0l-1.4-0.5l-2,0.8l-0.7,3.4l5.2,6.3l0,1.2l0.7-0.2l0,0l0.6,0.5l0,0l2.5,1.1l-0.4,2l-2.1,1.2
			l-3.4,0.3l3.4,3.9l0,0l0,0.3l0,0l-1.5,1.3l1,1.8l1.5,0.4l0.4,2.6l0,0h0.6l0,0l1.1,1.3l-0.6,0.9l-2.9,0.9l-1,1.4l0.4,2.1l2.6,0.5
			l-1,4l0,0h-0.5l0,0l-3.7,3l-2.2,0.2l-0.2,0.9l2,0.9l-0.4,3l-5.3-0.3l-3.4,1.4l-8.2-0.3l-3.3,0.9l0.5,1.6l-2,1.8l-1.6,0.2l-0.3-0.8
			l-2,1.1l1.5,3.1l1.3-0.3l1,2l1.9,0l-2.4,2l0.1,1.8l2.2,1.3l0.1,1.8l-1.1,2l-3.5,2.3l-0.2,1l0.8,0.4l-0.8,2.5l1,4.4l2.4,1.2
			l0.3,2.3l2.3,2.6l0,4.3l2,2.7l0,0l-1.6,0.4l0.4,0.9l-2.8,0.9l0.6,1.3l-0.9,0l0.3,2.3l1.7,0.9l-0.6,1.8l-3.2-2.1l-2.9,2.4l-2.7,0.2
			l-1.5-1.9l-4-2l0,0H291l0,0l-3.6,0.5l0.6,1.9l0,0v0.6l0,0l-2.4,4.5l-2.2,0.5l-0.5,2.1l-3.4,1.1l-0.8,1.3l-1.1,0l-0.9-1.6l-1.5,1.7
			l0.5,0.7l-0.8,1.8l-2,0.2l0.8,1.2l-2.3,0.1l0,0h-0.4l0,0l-2-0.4l-0.8,1.7l-1.4-2l-0.5,1.7l-1.8,0l-0.6,1.6l-4.6,3l0,0l0.2-1.8
			l-1.8-2.5l-1.2,0.3l-0.2,1l-1.8-0.9l0.9,4.4l-1.6-1.2l-0.1-1.9l-1.3-1l-1.5,0.4l0.2,2.3l-1.8-0.3l-1.8,1.8l-2.6,0.7l2.4,4.5
			l2.1-1.8l-0.3,3.1l-2.2,1.1l-4.1-2.3l-2.5,0.7l0.1-1.4l-1.8,0.1l-2.7-2l-1.9-2.3l2.4,0.5l0.5-0.9l-1.1-0.9l1.2-2.2l3.2-0.4l1-1.3
			l-1.1-2.9l1-2.4l-3.6-4.7l2.2-1.7l-1-2.9l1.1,1.3l1.5-0.3l-1.3-1.9l0.2-1.5l3.1,1.7l0.7-1l-3.3-3.2L240,365l-3.6,1.2l-1.6-1.6
			l-2.2,1.4l-1.1-1l0.3-2.1l-2.9,1l0,0l-4.9-0.4l1.7-5.3l-0.9-1.9l0.5-1.3L224,354l4.5-5.2l-1.2-2.1l0.9-1.6l-0.5-1.1l1.7-2
			l-3.5,0.6l-2.8-1l-2.4,1.1l1.2-2.8l-0.2-2.7l-4.3-2.5l0.2-1.2l-0.8-0.3l1.4-1.2l-0.7-1.4l-3.6-0.1l-0.6,1.4l-1.4-0.5l-0.7-1.6
			l1.3-1.6l-0.9-0.7l1-1l-1.3-2.3l-0.1-2.4l1.3-1.2l-2.5-2.9l-1.3,0.3l1.6-2.6l-0.3-1l-1.5-1l-2.6,0.5l-1.4-0.6l0.1-0.9l-3.7,1.4
			l0.7-3.8l-2.3-2.5l1.3,0.5l0.5-0.6l0.6,1.3l1.4-0.1l-0.5-4.2l1.1,0.4l1.5-1.1l-2.6-1.9l-4.1-1.4l0.4-1.1l-0.9-0.6l1.3-0.6l0.8-4.2
			l1.3-0.5l0.6-1.5l2,0.6l2.5-3.4l-0.2-1.7l1.8-1.7l0.1-1.9l-0.9,0l0-1.4l-1-0.9l2.7-3.4l-2.4-2.2l-3-0.3l-2.5,4.5l-2.2,0.7l0.5,1.9
			l-2.8,1.7l-0.4,1.5l-2.8-0.4l-0.4,1.2l-2,0.5l-4.2-1l-2.7,1.1l-1.4-1.1l-1.2,0.4l-0.2-2.5l0.8-1l-0.8-1.4l-0.1-6.4l-0.8-1.6
			l-1.1,0.3l-1.3-1.5l-6,3.4l-3.5-1.4l-2.8,2.1l-0.2,3.2l-2.4,1.8l-1.1-0.6l-2.3,0.6l-3.8-1.5l0.1,2.5l1.1,0.9l-0.3,2.3l5,2l3.2,2.3
			l1.7,4.9l-0.7,2.9l0.6,4.2l-1.6,3.3l1.7,2.1l3.1,1l-3,3.1l-3.8,1.9l-0.2,2.7l-2.2,0l-2-1.5l-1.9,0.6l-1.7-0.7l0.1-1l-4,2.9
			l-1.9,3.5l-2.6-0.3l-3.5,1.8l-4.1-1.2l-3.3,3.5l-3.9-1.6l-2.2-3.4l5.6-3.3l2.3,0.1l-0.5-3.8l0.2-0.9l1.5-0.3l-1.3-1.4l-4.5,0
			l-1.7-1.3l-0.5-1.6l1.6-2.3l-0.1-3.8l2-0.4l-1.6-2l0-1.6l3.8-0.7l-2.8-2.7l-0.8-3.1l-3-1.7l-2.9,1.2l-2.4-0.3l-6-2.9l-1.6-5.4
			l-5.1-2.3l-2.7,4.5l2.4,1.1l-2,4.1l0.7,0.6l-3.8,0.8l-5.5,3.7l-0.6,1.9l-2.6,0.5l-1.5,2.2l-3,0.8l-1.2,1.6l-9-0.3l-2.1,0.5
			l-1.4,1.9l-2.4,0.1l0,0l-2.3-3.3l-0.1-1.7l3-6.5l0-2.2l-1-2.7l-1.5-0.2l-1.6-2.9l-1.3-4l-3.1,3.4l-5.6-1.5l0-1l-6.1-0.4l-3.8-2.5
			l0.5-3.6l-1.6-3.3l2.2,0.5l0.7-1.5l2.6,0l-3-2.7l0.4-2.8l-0.9-1.2l2.5-2.3l7.8-0.6l4,1.7l2.4-0.9l4.3,1.5l0.9-1l1.1-17.5l1.3-3
			l-0.3-1.2l6.1-9.8l2.2-6.8l-1-11.4l-1.2-0.9l-0.3-1.8l1.5-3.8l1.5-0.5l-1.2-1.1l0.6-1.1l-0.5-4.7l1.2-2l1.1-6.2l4-0.2l-18.8-2.3
			l-1.1-3l0.8-1.4l0.9-10.7l1.5-2.3l-1-3.1l1.4,2.6l2.1,0l0.7,1.1l0.8-1.1l-3.4-0.1l-1.1-2.8l1.7,2l0.6-1.5l1.8,2.2l-0.3-1.3
			l1.4-0.1l1.3-1.8l-1.7-0.6l-1.8-3.3l3.8-3.8l0.4-1.6l-0.1,0.7l5.8-5.1l7.4-1.8l1,0.7l6.7-0.2l2.8,1.3l11.4-3.5l0-1.7l0,2.1
			l6.6-1.2l1.8-2.5l-1.6,2.9l6.5-1.2l7.3,1.1l-0.4,2.7l1.5,4.3l1.8-0.6l1.6,1.6l0.7-1l0.5,0.6l-1.1,0.5l1,1.6l0.9-0.4l-0.8,0.5
			l0.5,1.7l3,6l-0.7,1.3l0.9-0.5l-1.1,2.3l-3.8,1.4l-2.2-0.5l0.2,3.1l2.3,3.3l2.3-0.9l1.1,0.5l3.1,4.7l2.8,0.7l1.4-0.8l2.9-5.5
			l-0.2-6.8l-5.3,0.1l1-6.6l2.4-3.2l1.6-0.7l2,0.6l2.9,4.1l5.1,2.3l2.5,0.3l1-0.9l0,1.1l2.1,1.2l0.4,1.6l0,0l-0.5,0.4l1.7,3.6
			l0.8-0.7l1.3,0.9l1.6-1.2l1.1-2l-0.8-1.5l0.4-2.9l-1.1-0.2l-0.7-1.9l2.7-3.8h-1.1l0.2,0.9l-1.9-0.3l-1.4,1.2l-4.6-1.4l0,0
			l-2.4-5.3l-0.1-4.2l4-10l0.2-3l4.1-7.1L180.2,127.8L180.2,127.8z M175.8,205.4l0.7,3l2.5,3.8l-0.2,1.3l2.8,1.6l-0.3,2.3l0.8,1.6
			l2.4,0.1l1.1-1.6l0.4,1.5l2.8,2l2.8-0.1l0.1-2l1.8,2.8l2.6,0l0.1-1.1l2.8-2.3l-1-1.4l-0.2-2.6l1.7-1.3l-1.7-0.3l-1-1.8l2.2-1.1
			l-2.5-2.7l-2,2.1l-3.2,0.1l0,0l-0.1-0.3l0,0l-1.2-1.5l0,0l-0.2-0.9l0,0l-0.6-0.7l-5.5,0l-0.9-1.7l-1.5,0.4l-0.4-0.9l-1.4,1.1
			l-3.4,0.3l-0.8-2l-2,0l1.2-2.2l-1.3-0.5l-1.6,0.9l-3.3-2l0,0l-0.8,0l0,0l-0.5,0.4l1.6,2.5l0,0l0.3,0.3L175.8,205.4L175.8,205.4z
			 M168.4,124l0.9,1.3l-1.9,0.3l0.3-1.7L168.4,124z M165.2,120.4l0.7,0.3l-2.3,1.9l-0.8-0.4l1.3-2L165.2,120.4L165.2,120.4z"/>
		<path id="DE-NW" class="st0" d="M76.6,302.5l2.4-0.1l1.4-1.9l2.1-0.5l9,0.3l1.2-1.6l3-0.8l1.5-2.2l2.6-0.5l0.6-1.9l5.5-3.7
			l3.8-0.8l-0.7-0.6l2-4.1l-2.4-1.1l2.7-4.5l5.1,2.3l1.6,5.4l6,2.9l2.4,0.3l2.9-1.2l3,1.7l0.8,3.1l2.8,2.7l-3.8,0.7l0,1.6l1.6,2
			l-2,0.4l0.1,3.8l-1.6,2.3l0.5,1.6l1.7,1.3l4.5,0l1.3,1.4l-1.5,0.3l-0.2,0.9l0.5,3.8l-2.3-0.1l-5.6,3.3l2.2,3.4l3.9,1.6l3.3-3.5
			l4.1,1.2l3.5-1.8l2.6,0.3l1.9-3.5l4-2.9l-0.1,1l1.7,0.7l1.9-0.6l2,1.5l2.2,0l0.2-2.7l3.8-1.9l3-3.1l-3.1-1l-1.7-2.1l1.6-3.3
			l-0.6-4.2l0.7-2.9l-1.7-4.9l-3.2-2.3l-5-2l0.3-2.3l-1.1-0.9l-0.1-2.5l3.8,1.5l2.3-0.6l1.1,0.6l2.4-1.8l0.2-3.2l2.8-2l3.5,1.4
			l6-3.4l1.3,1.5l1.1-0.3l0.8,1.6l0.1,6.4l0.9,1.4l-0.8,1l0.2,2.5l1.2-0.4l1.4,1.1l2.7-1.1l4.2,1l2-0.5l0.4-1.1l2.8,0.4l0.4-1.5
			l2.8-1.7l-0.5-1.9l2.2-0.7l2.5-4.5l3,0.3l2.4,2.2l-2.7,3.4l1,0.9l0,1.4l0.9,0l-0.1,1.9l-1.8,1.7l0.2,1.7l-2.5,3.4l-2-0.6l-0.6,1.5
			l-1.3,0.5l-0.8,4.2l-1.3,0.6l0.9,0.6l-0.4,1.1l4.1,1.4l2.6,1.9l-1.5,1.1l-1.1-0.4l0.5,4.2l-1.4,0.1l-0.5-1.3l-0.5,0.6l-1.3-0.5
			l2.3,2.4l-0.7,3.8l3.7-1.4l-0.1,0.9l1.4,0.6l2.6-0.5l1.5,1l0.3,1l-1.6,2.6l1.3-0.3l2.5,2.9l-1.3,1.2l0.1,2.4l1.3,2.3l-1,1l0.9,0.7
			l-1.3,1.6l0.7,1.6l1.4,0.5l0.6-1.4l3.6,0.1l0.6,1.4l-1.4,1.2l0.8,0.3l-0.2,1.2l4.3,2.5l0.2,2.7l-1.2,2.8l2.4-1.1l2.8,1l3.5-0.6
			l-1.7,2l0.5,1.1l-0.9,1.6l1.2,2.1L224,354l1.2,1.1l-0.5,1.4l0.9,1.8l-1.7,5.3l4.9,0.4l0,0l-1.8,1.7l-5.4,1.6l2.2,2.4l-3.6,4
			l-0.5,4l-1.6,0l-1.2,1.6l-2.5,0.9l-0.5,3.1l-2.1-0.7l-1.5,2.3l-1.5-0.7l-2.6,0.6l-1.1-2.1l0.8-3l-0.9-0.8l-2.4,0.1l-1.3-1.6
			l-8.1,3.7l1.8,3.4l0,1.8l1.8,0.3l-0.6,3.9l-3-0.4l-2.3,1.5l-1.1-1.1l-2.2-0.2l-4.6,1.9l-2.4-0.4l-1.1,0.6l0.3,1.1l-1.4,0.5
			l-0.3,1.6l-1.1-0.4l-1.1,0.8l-4,6l2.4,3.1l6.1-2.9l1.9,0.2l0.9,1.1l-0.6,1.1l0.9,3.3l1.7,1l-1.3,1l0.7,2.2l-4,4l0.1,1.4l0,0h0.2
			l0,0l1.2,1.4l-2.3,0.2l-1.8,1.3l-6.3-0.9l-1.9,0.6l-1.6,1.7l1.6,1.7l-1.4,2.3l0.9-0.3l1.2,2.5l-4,4.4l0.2,0.7l-1.3,0.3l-0.5,2.5
			l0.6,2.2l-1.8,0.1l-4.7,5.7h-3.4l-0.9-2.1l-1.6,0.1l-8.1,9l0,0l-0.4,0.1l0,0l-0.3,1l2.4,4.5l-2.7,4.9l0,0l-3-2.1l-1.2,1.1
			l-1.2-0.2l-0.1-3.1l-4.5-4.8l0.6-5l-0.6-2.1l-0.7-0.8l-2.6,0.8l-2.1-3l-3.5-0.8l1.4-4.6l-3.7-1.5l-1.7,1.9l-1.9,0.6l1.6,1.7
			l-0.7,3.5l0.8,2.2l-2.1-0.6l-1.7,2.4l-2.7,0.6l1.2,1.2l-0.5,2.8l-1,1.3l-3.5,0.3l-0.5,2.6l-2.7-0.7l-1.9,0.9l0,0.8l-5.5,1.9
			l-3.8-0.9l-1.1,2.1l0.9,1.6l-1.1,1.9l0.3,1.2L94,466l-7.8,1.6l-0.7-2.5l-0.8,2.5l-1.1,1.1l-1.2-0.2l-0.4,1.4l-2-1.2l-1.7,2.6
			l-2.2-2l-3.7,4.1l-1.6,0.8l-2.8-0.4l0,2.6l-3.1,0.6l0.9,1l-0.5,1.1l1,0.4l-0.3,3.4l-2.7,1.6l-2.9-1.9l-0.8-2l-3.5,1.9l1.3,1.4
			l-1.4,1.8l1.8,0.6l0.8,1.4l-0.8,2.8L60,493l-0.2,0.8l-1.3-0.3l-4.9,2.8l-2.1-3.4l-2,2.6l-1.1-1l0.3-1.9l-1.4-0.1l-0.1-1.3
			l-6.1,2.8l-1.5,2.1l-2,0.2l0.5-2.4l-0.9-1l-0.9,0.9l-1.1-2.6l-1.7,0.5l0.5,2.3l0.7-0.1l0.1,2.4l1.1,0.6l0,1l-1.3,0l0,0l-0.3-2.2
			l-3.7-3.5l2.2-5.6l-0.3-1.8l-2-0.8l0.6-2.6l-5.1-1.6l-2.8,1l-1.1-2.6l-1.2-0.6l0.5-1l-1.1-0.5l-0.1-1.5l3.1-3.3l1.2,0.1l1.6-3.8
			l-4.5-0.6l-1.3,0.7l0.4-0.6l-1-1.1l0.9-0.8l-4-6.9l-4.8-0.9l-0.4,0.9l0.2-2.5l-1.6-1.7l0.6-1.2l-3.3-2.3l0.7-1.3l1.3,0.8l1.3-1.3
			l-0.4-3.1l2.4-1l1.2,0.9l1-2.7l-0.9-2l1.3-2.9l-2.6-0.1l-2.2-1.3L9.2,434l1.3-2.7l-3.7,0.5l-0.9-0.9l-3.6,1.3l0.5-2.8l-1.6-1.6
			l-0.9-3l3.1-1.9l1.5,3.2l1.4-0.1l1.3-3.7l2-1.9l2.1-0.9l3-3.5l5.3-2.3l-2.2-1.6l2.7-1.3l-1.1-0.8l-4.2,2.5l-1.1-0.2l-0.9-4.8
			l1.1-0.4l-0.9-1.9l3.3-3.2l2.9-5.9l1.5-0.3l2.1-2.8l-0.8-2.5l0.8-1.4l-1.3,0.1l1.1-7.4l-0.6-4.1l-3.4-5.2l-4.4-4.4l1.6-5.2
			l-5.4-1.8l-0.4-3.5l1.1-1l-3.2-2.2L6,354.4l0-1.3l2.2-1.5l0.1-1.8l-1.1-0.3l0.2-1.2l-2-1.5l0.8-0.5l-0.8-0.6l1-1.3l3.3,0.1l3.3-3
			l2.3,1.6l4.2,0.9l-0.1-2l-1.6-2.5l-2.1-0.7l0.9-1l3.2,0.1l2.7,3.3l4.3-0.5l1.2,0.6l0.4,1.9l3.1,0.1l0.6,1.3l2.5,0.9l0.5-2.6
			l-1.5-1.1l0.3-1.2l2.5,1.6l1.1-0.7l1.3,1.2l4.7-3.2l8.9-3.4l3,1.9l3.6-3.1l0.7-3l1.8-0.6l0.2-2.3l-4.9-4.3l-4.2-1.2l0.4-3.2
			l2.7-0.5l1.5-4.5l6-0.2l3.3-5.8l2.8-0.5l2.2-4.6L75,304L76.6,302.5z"/>
		<path id="DE-RP" class="st0" d="M34.7,497.7l1.3,0l0-1l-1.1-0.6l-0.1-2.4l-0.7,0.1l-0.5-2.3l1.7-0.5l1.1,2.6l0.9-0.9l0.9,1
			l-0.5,2.4l2-0.2l1.5-2.1l6.1-2.8l0.1,1.3l1.4,0.1l-0.3,1.9l1.1,1l2-2.6l2.1,3.4l4.9-2.8l1.3,0.3L60,493l-2.1-2.4l0.8-2.8l-0.8-1.4
			l-1.8-0.6l1.4-1.8l-1.3-1.4l3.5-1.9l0.8,2l2.9,1.9l2.7-1.6l0.3-3.4l-1-0.4l0.5-1.1l-0.9-1l3.1-0.6l0-2.6l2.8,0.4l1.6-0.8l3.7-4.1
			l2.2,2l1.7-2.6l2,1.2l0.4-1.4l1.2,0.2l1.1-1.1l0.8-2.5l0.7,2.5L94,466l1.5-1.1l-0.3-1.2l1.1-1.9l-0.9-1.6l1.1-2.1l3.8,0.9l5.5-1.9
			l0-0.8l1.9-0.9l2.7,0.7l0.5-2.6l3.5-0.3l1-1.3l0.5-2.8l-1.2-1.2l2.7-0.6l1.7-2.4l2.1,0.6l-0.8-2.2l0.7-3.5l-1.6-1.7l1.9-0.6
			l1.7-1.9l3.7,1.5l-1.4,4.6l3.5,0.8l2.1,3l2.6-0.8l0.7,0.8l0.6,2.1l-0.6,5l4.5,4.8l0.1,3.1l1.2,0.2l1.2-1.1l3,2.1l0,0l-0.9,2.6
			l1.9,2.7l-0.9,2.3l1.6,1l-1,4.8l-2.1,1.7l-2.1-0.5l-1.8-1.9l-3.1,3.3l-1.1,3.8l2.1,3.4l-2.3,1.5l0.8,0.4l-0.2,1.2l-1.4,1.2
			l1.4,1.1l2.3-0.1l-0.4,1.6l1.8-0.1l0.2,1l0.9,0.1l1.1,2.6l-0.3,1.5l1.9,0.5l0.1,1.7l1.1,1l-0.8,3.8l-1.7-0.1l-0.4-1.1l-2.4,0.1
			l-0.9,1.3l1.7,1.7l0,0l0.3,0.4l0,0l-1.3,2.1l-1.3-0.2l-1.5-2l-0.1,1l-2.3,0.8l-0.3,1l-2.3,0.6l0,1l-1.7,1.2l0.1,1.3l3.1,2.4
			l-0.7,1l0.6,3.1l-1.8-1.9l-1.1,0.7l-2-1.3l-1.3,2.8l0.4,1.4l-2.2,0l-1.9,2.6l5.1,4.4l0.9,3.2l1.2,0.8l5.3-0.6l4.5-2.5l9.2-3.1
			l3.9,0.8l4.9,5l2.1,5.8l-0.6,4l2.5,2.1l-0.3,3.3l2.8,5.3l3.1,0l0.5,0.7l-2.6,4l-5,2.9l1.6,6.5l2.4,4.2l0,0l-0.4,3l3.1,8.1l-1.3,2
			l4.1,1.5l-0.8,3.3l-2.1,2l0.7,0.8l1.7-1.5l-0.1,2.1l-3,4.1l2.4,2.9l-6.2,5.9l-0.3,1.6l1.3-0.1l-2.4,4.9l-0.6,6.6l-3,4.5l-0.9,3.9
			l0,0l-0.8,1.8l0,0l-3.3,2.8l0,0l-0.4-1l-1.6,0.8l-0.3-1l-2.3,0.3l-4.2-1.4l-2.6-2.3l-4.8-1.3l-2.7-2.9l-0.9,1.6l-2-0.7l-1.4,1.5
			l-4.6-3.1l-1.8,1.9l-2,0.3l-0.2-1.3l-0.8,0.5l-1.6-0.7l0.1,0.9l-1.5,0.5l-2.6-1l-0.1-1.8l-2-1l-2.3,0.3l-2.3-1.7l-1.8-3.3
			l-0.4-3.7l-3.7,0.4l0.5-1.9l-5,1.2l-0.1,1.3l0,0l-4.2-4.6l0.5-1.7l-0.9-1.5l1.2-1.9l1,1l0-1.2l1.2-0.9l-0.5-0.9l1.7,0.1l1.4-1.5
			l1-7.4l-2.2,0.5l-0.8-1.5l-4.1-0.9L91,587l-2.4-1.7l-0.3-1.2l2.5-1.1l1.2-1.7l-1.7-1l0.5-3.2l1.3-0.6l-0.3-1l-1.8-0.3l-0.5-4.6
			l-3.4,1.8l-0.1-1l-1.7,0l-0.8-0.9l-0.2-1.3l-3.2,0.3l-1.4-1l-0.8,0.6l-1.8-2.9l-2.1-1l-2.7,1.8l0.4-1.4l-2.5,0.9l-0.7-0.9
			l-0.7,2.1l-2.2-0.3l-1.1,1.5l-0.9-0.6l-1.8,2.4l-1.6-0.8l-4,3.3l-2.4,0.4l-1.3,1.8l-0.4-1.2l-1.4,0.5l-0.7-0.7l-0.2,1.2l-1-0.3
			l-1.6,1.3l0.1,0.9l-1.7-0.3l-1.2-1.9l-2.9,1.3l-2.9-1.7l-1.3,0.6l-1.5-1l-0.8,0.5l-2.4-0.8l0,0l-1.4-2l1.5-0.5l-0.3-1.6l2.8-2.5
			l1.3-3.5l-0.7-1.3l4.9-4.5l-0.6-1.2l1.3,0.4l-1-2.6l1.1-1.3l-0.8-2.8l1.4-1.9l-1,0.8l-2.6-2.1l-2.6,1.2l-2.1-1.1l-2.3-2.9
			l-2.5,1.2l-0.7-3l-1,0.2l-4-3.3l-0.2-1.9l-0.8-0.5l0.3-2.6l-1.1-0.5l-0.4,0.7l-0.5-2l-0.9,1.5l-0.5-3.2l-1.9-1.2l0.9-1l-0.9-0.6
			l0.6-1l-1-0.7l-0.4-2.9l-1,0l1.3-1.3l-1-0.1l0.4-1.8l0.8-0.1l-0.5-2.6l1.8-2.3l-1.3-1.2l0.5-1.5l0.5-0.9l0.7,0.6l2-1.1l-1.5-3.8
			l0.6-1.4l1.3-0.2l1.2-1.9l4.1-1l0.8-1l-0.4-1.6l1.6-2.6l1.5-0.2l1.7,1.8l0.1-1L34.7,497.7z"/>
		<path id="DE-SL" class="st0" d="M33,573.8l2.4,0.8l0.8-0.5l1.5,1l1.3-0.6l2.9,1.7l2.9-1.3l1.2,1.9l1.7,0.3l-0.1-0.9l1.6-1.3l1,0.3
			l0.2-1.2l0.7,0.7l1.4-0.5l0.4,1.2l1.3-1.8l2.4-0.4l4-3.3l1.6,0.8l1.8-2.4l0.9,0.6l1.1-1.5l2.2,0.3l0.7-2.1l0.7,0.9l2.5-0.9
			l-0.4,1.4l2.7-1.8l2.1,1l1.8,2.9l0.8-0.6l1.4,1l3.2-0.3l0.2,1.3l0.8,0.9l1.7,0l0.1,1l3.4-1.8l0.5,4.6l1.8,0.3l0.3,1l-1.3,0.6
			l-0.5,3.2l1.7,1l-1.2,1.7l-2.5,1.1l0.3,1.2L91,587l0.1,2.7l4.1,0.9l0.8,1.5l2.2-0.5l-1,7.4l-1.4,1.5l-1.7-0.1l0.5,0.9l-1.2,0.9
			l0,1.2l-1-1l-1.2,1.9l0.9,1.5l-0.5,1.7l4.2,4.6l0,0l0,1.5l-2.3,0l-2.1,2.8l-3.1-1.5l-3.1,1.4l-0.9-1.5l-1.7,1l-2-2.1l-1.4,0.3
			l0.6-1.3l-0.9-0.3l-1.1,0.7l0.5,1.7l-2.2,1.8l-1.8-5.5l0.4-2.1l-1.4,0.3l-2.5-2.2l-0.8,0.7l-2.2-2l-2.1,1.4l-2.1-1.3l-1.4,1
			l1.5,3.1l-1.7,2.7l-3.5-1.5l-2.6,0.4l-1.7-2.2l1.3-1.8l-0.5-1.2l-1.8,0.2l-0.4-3.3l-1.8-0.9l0.6-2.1l-3.6-2.1l-1.7-1.9l0.2-1.4
			l-1.5-1.1l-0.2-0.9l1.5,0.6l0.8-1.6l-1.1-0.3l0.2-1.6l-2.9-1.6l0.8-2.2l-7.9-5l-2.3,1.2l-1.7-0.6l-0.7-5.8L33,573.8z"/>
		<path id="DE-SN" class="st0" d="M409.3,420.6l-0.5-1l-2.8-0.4l-0.8-1.8l1.3-0.1l0.1-0.9l-2.8-1l1.1-4.1l-2.4,0.1l0-0.8l0.9,0
			l1.1-2.5l-0.3-2.3l-0.6-2.1l-1.6-0.8l0.4-2l-1.6-3.6l3.1-0.9l-0.1-4.3l-1.4-1.3l0.9-0.4l-0.7-2.2l1-1.2l-0.5-1.2l-1.6,0l-0.6-3
			l1.6-0.5l0.2-1.4l1.9-1l-1-3.4l2.9-2.9l-0.2-1.1l3.7,0.2l3.3-1.9l-0.4-0.6l5.6,0.4l1.1-2.8l1.1,0.8l1.4-0.5l0.3,1.1l1.3-1.4
			l2.1,0.8l2.6-2.5l0.9,0.7l2-0.8l-1.1,1.6l3.5-1.9l1.8-3.6l5.1,1.8l4.7-3.8l1.2,1l0.2,1.8l1.6-1l0.5,2l1.9-0.3l0.9,1.2l0.4-1.2
			l1.4-0.1l-0.4-1.4l0.6,0.1l0,0l0.4,0.1l0,0l0-0.7l2.1,0.5l0.7,2.7l1.9-0.9l0,0l2.2,3.8l2.2-1.2l2.5,2.8l-1.1,2.5l2.6,1.2l1.4,3.4
			l-0.4,3.2l-1.1,0.1l-0.1,1.7l1.3,2.5l-1.8,2.3l0.9,0.4l0.3-1.3l1.4,4.1l3.3,1.2l-0.4-1.6l1.6,0.2l0-1.3l2.7-1.5l-0.3-1.1l3.5,1.2
			l-0.2-1.1l1.5-1.8l1.8,2l-0.4,1.2l1.6-1.1l1.7,1.4l-0.6,0.7l3.6,1l0.2,2l0.9,0l0.4,1.2l1.6-1.6l1.2,0.1l0.5,1.5l4-0.1l0.6-0.7
			l4.7,1.5l1.6-0.9l0.4,0.8l0.6-0.8l2.3,0.1l1-1.5l4.6,0.5l3.4-1.7l0.8,0.3l-0.1,1.7l1.8,0.3l0.4-2.2l1.5-0.2l-0.7-0.9l1.9-1.4
			l-0.5-1.7l1.6-1l-1.8-3.1l3.5-0.1l-0.9-1.6l1.3-0.5l0.7-2.4l2.2-0.2l-0.7-0.9l0.5-1.1l4.8,0.4l2,1.2l1.5-0.5l3.5,1.6l0,0l0,0.5
			l0,0l0.5,0.8l0.6-1.5l2.9-2.4l3.8-0.1l0.4-1.5l5.3-0.2l0.4-1.4l1.5-0.8l1.8,0.9l1.2,2.2l4.1-0.3l1.5-2.6l-0.4-2l2.1,1.6l0,0
			l-1.2,2l1.6,3.7l3.7,0.8l3.7,2.9l4.3,0.7l2.1,1.4l1.4,2.8l-0.9,3.3l0.6,3.1l0.9,0.6l-0.3,3.3l4.1,7l-3.2,11.4l0.2,4l-1,0.5
			l-0.2,4.1l-3.1,7.8l-0.9,0.5l0.1,2.1l-0.9,0.3l-0.6,3.2l-4.9,5.7l0.5,1.4l-1.8,4.9l-1.9,0.1l-1.5-1l-1.4,0.7l-0.9-1.9l-1.2,0.3
			l-4.4-2l1.1-4l1-0.8l-0.2-2.6l-4.3,1.8l-1.1-0.5l2.1-6.8l-2.2-2.4l-1.9,0.6l-0.2-1.3l-2.1-0.5l0.2-2.5l-0.6,2.3l-2.4-1.3l-2.8,1.8
			l-1.6-0.8l-0.2-1.2l-1.2-0.6l-1.5,0.6l-2.3-1.7l-0.9,1.6h-0.9l0.8,1.2l-0.3,1.3l-1.3,0.6l0,2.1l1.5,1.1l2.6-0.8l0.2,1.1l-1.6,0.8
			l0.9,0.6l-0.4,0.5l5.5,1.9l-0.7,3.8l-2.4-0.4l0,0.9l-2.9,0.9l-2.4-1.1l-2.1,0.8l-0.6,2.7l-8.6,3.4l-0.7,1.4l-3,0.8l-2.6-1.6
			l-2.3,1.2l-1.1,1.7l-2.4-0.3l-0.9,2.5l0.7,2.4l-2.3,0.2l-0.4,1.5l-5-0.8l-2.3,0.9l-0.9-0.7l-1.3,1.6l-2.7-1.4l-4,2.2l-2.8-0.5
			l-2,0.9l1,2.8l-1.9,2.4l0.7,1.4l-1.8,0.9l-1.9,2.7l-3.3-1.3l-1.6-3l-1.2-0.4l0.3,2.3l-3.3,2l-0.2,2.8l-2,0.5l-0.8-1.8l-2,0
			l-3.3,8.9l-3.6-0.3l-0.4-1.2l-2.9,1.9l-3.4-1l-0.7,6.1l-2.6,2.9l-2.5,0.7l0.3,0.9l-8.2-5.6l-0.6,2.8l-1-1.8l-3.8,1.7l-1.8,3.5
			l-2.1-2l-10.2,2l-1.6,2.6l0.2,2.1l-1.3-0.5l-1.7,1.3l-0.7,1.9l-2,0.1l0,2.9l-1.8,0.8l-1.2,2.2l0.5,2l-1.9,0l0.3,2.3l-0.8,1.2
			l1,1.5l-1,1.1l0.9,0.9l-3-0.4l-1-2l1.2-2.4l-3.5-2.5l0.4-1.3l1.3,0.8l-0.7-2l-3.5-0.2l-0.1-3.3l-1-1.6l-5.3,0.4l0,0l-0.6-1.5
			l-2.8,0.2l-0.1,0.6l-3.1-2.9l-1.3,0.4l0.4-3.8l-1.2-1.1l-1,0.4l0.3-1.2l-1.9-1.5l0,0l0.3-0.9l-1.8-0.4l-0.3-1.3l2.3-1.4l1.1,0.8
			l-0.7-1.7l1.7-1.6L387,479l0-1.5l-2.8,0.6l-1.1-2l0.9-1.5l2.8-0.4l-0.2-2.8l3.9-2.5l-0.3-1.2l1.2-1.3l1.2,1l-1.1,1l2.2,2.1
			l-1.2,2.6l0.6,1.7l1.8-0.1l1.3-0.5l0.2-2l1.4-0.2l1.4,1.1l2.5-0.9l-0.1-0.7l-1.6,0.1l0.9-4.6l2.6,1.6l0.6-2.5l4.1,0.9l0.1-1.4
			l3.3-1.9l0.2-2.1l-3.7-1l-0.5-2.2l1.2-1.1l-0.5-1l-2.5-0.1l0.8-2.8l1.8,0.5l1.4-2.2l-0.1-0.8l-2.1,0.2l-0.2-3.2l1.8,1l0.7-1.5
			l0.7,0.9l-0.2-1.4l0.6,1.1l2.6-0.4l0.1-1.4l1.6-1.6l1.8,0.5l0.8-1l0.2,1.9l1.3-0.4l0.2-2.2l2.5-3l1.7,0.2l-0.2-1l0.9-0.5l1.1,0.7
			l5.3-1l1.1,0.7l1-1.7l-1.9-2l-1-5.7l-2,1l-3.1-1.3l0.9-0.7l-0.1-1.8l-1.5-0.3l-0.5,1l-0.3-4.6l-1.1-0.3l0,0l-1.1,0l0,0l-0.8-1.8
			l-3,0.9l-1-1l-2,0.4l-0.3-1.5l-1.3-0.8L409.3,420.6z"/>
		<path id="DE-ST" class="st0" d="M365.7,219.2l2.5-0.2l-0.9,2.8l3.2,0.4l1.1,3.3l3-1.2l2.8,3l3.7,0.9l0.3,1.2l-1.7,2.1l0.8,1.2
			l2.2,0l1.4,1.6l5.7,2l2.8-1.5l5.7,1.4l0.8-1.8l0.1,4.3l4.4-2.7l0.4,1.1l2.1,0.7l1.5,5.9l-0.5,1.6l-1.9,0.2l-0.7,3.1l0.8,1.5
			l-1.5,2.8l0.8-0.2l-0.2,0.9l1.1,0.8l-0.3,1.6l1.1,0.8L406,261l0,0l-0.1,1l0,0l-1.7,1.1l-2.1-0.7l0.6,5.3l-2.3,4.6l1.8-1l1.2,0.7
			l-1.5,2l1.2,1.9l2.1-0.5l1.5-2.1l1.8,2.2l-0.6,0.5l0.7,0.9l3.8-1.1l-1.4,0.9l1.4,1.1l-2.7,4.9l0.5,0.7l-1.5,0.9l1.7,0.8l-0.5,2.1
			l0.8,0.9l-1.4,1.3l1.6,2l-2,3.1l-2,6.7l1.7,1.3l-0.8,0.5l2.4,0.7l-3.2,1.7l0,2.8l-1.3,0l-0.5,1.6l2.8,3.8l0.9,2.9l2.4,1.3l2.9,4.6
			l1.9,0.5l2.9,2.8l1-0.1l0.7-1.8l1.1,0.1l0.7,2l2.9,1.1l0.3,1.7l4.6,0.4l0.1-1l1.9-0.3l0.7-1.9l1,0.1l5.4,2.6l1.5,2.5l4.1-0.5
			l0.5,3.4l2.2,0.1l0.2,0.7l1.9-1.2l2.5,0.4l-0.1,1.3l1.2,0.2l-0.1,2.2l4.6,0l-0.4,2l-0.7,0l0.8,0.9l2.5,0.3l2.5-1.4l1.2,0.2l0.9,2
			l-2,0.5l2.6,5.2l-1,3.9l1.1,1.8l-0.8,0.6l2.1,2.9l-2.1,0.6l0.5,1.9l-0.8,0.8l-6.1,3.9l0,0l-1.9,0.9l-0.7-2.7l-2.1-0.5l0,0.7l0,0
			l-0.4-0.1l0,0l-0.6-0.1l0.4,1.4l-1.4,0.1l-0.4,1.2l-0.9-1.2l-1.9,0.3l-0.5-2l-1.6,1l-0.2-1.8l-1.2-1l-4.7,3.8l-5.1-1.8l-1.8,3.6
			l-3.5,1.9l1.1-1.6l-2,0.8l-0.9-0.7l-2.6,2.5l-2.1-0.8l-1.3,1.4l-0.3-1.1l-1.4,0.5l-1.1-0.8l-1.1,2.8l-5.6-0.4l0.4,0.6l-3.3,1.9
			l-3.7-0.2l0.2,1.1l-2.9,2.9l1,3.4l-1.9,1l-0.2,1.4l-1.6,0.5l0.6,3l1.6,0l0.5,1.2l-1,1.2l0.7,2.2l-0.9,0.4l1.4,1.3l0.1,4.3
			l-3.1,0.9l1.6,3.6l-0.4,2l1.6,0.8l0.6,2.1l0.3,2.3l-1.1,2.5l-0.9,0l0,0.8l2.4-0.1l-1.1,4.1l2.8,1l-0.1,0.9l-1.3,0.1l0.8,1.8
			l2.8,0.4l0.5,1l0,0l-2.1,5.3l2.4-0.2l0.3,2l-2.9,3.7l-1,2.1l0.6,0.8l-1.6,1.6l0-2.2l-1.5,0.1l-0.5-1.6l-1.2,1.6l-4.8-1.8l-4.7,1
			l-0.7-2.4l-2.4-0.2l0-2.9l-1.7-1.1l-1.9,0.5l-1.5-2.8l-5.9,0.7l-1.5-0.6l-1,1.1l-1.7-2.6l-2-0.3l-0.1-2.2l-1.9-1.9l-2-0.1
			l-1.3,1.4l-0.7-1.4l-2.2-0.7l-1.8,1.6l-3.7,0l-1.5-1.2l0.3-1.5l-1-1.8l1.2-0.3l1-1.6l-0.9-0.4l0-2.3l-1.1,0l-0.5-1.8l-3.3,0.5
			l0-1.3l-1.6-0.3l0.9-2.5l1.1,0.9l1.2-0.7l2.7-4.8l1.1-0.5l-3.9-3.7l0.8-1l-1.8-0.3l-0.2-3.7l-3.3-0.5L348,388l-4.6,1.4l-0.1-1
			l-1.7-0.8l-1.9,1l-3.1,0l-5.1-2.7l-0.8,1l-3.7,0.3l1.2-0.8l-2.8-0.7l-0.2-3.1l0,0l0-0.3l0,0l0.7-1.7l-3-3.9l1.3-1.8l-2.2-2l-1,0.3
			l0,0l0-0.6l0,0l-0.3-1.9l0,0h-0.3l0,0l0.5-2.4l2.3,1.1l0.4-1.2l-1.4-0.8l0.5-0.8l-2.3,0.6l-1.9-2.2l-2.4,1l-0.5-1.7l-3-1l-0.7,0.8
			l-3.4,0l0,0l-2-2.7l0-4.3l-2.3-2.6l-0.3-2.3l-2.4-1.2l-1-4.4l0.8-2.5l-0.8-0.4l0.2-1l3.5-2.3l1.1-2l-0.1-1.8l-2.2-1.3l-0.1-1.8
			l2.4-2l-1.9,0l-1-2l-1.3,0.3l-1.5-3.1l2-1.1l0.3,0.8l1.6-0.2l2-1.8l-0.5-1.6l3.3-0.9l8.2,0.3l3.5-1.4l5.3,0.3l0.4-3l-2-0.9
			l0.2-0.9l2.2-0.2l3.7-3l0,0h0.5l0,0l1-4l-2.6-0.5l-0.4-2.1l1-1.4l2.9-0.9l0.6-0.9l-1.1-1.3l0,0h-0.6l0,0l-0.4-2.6l-1.6-0.4l-1-1.8
			l1.5-1.3l0,0l0-0.3l0,0l-3.3-3.9l3.4-0.3l2.1-1.2l0.4-2l-2.5-1.1l0,0l-0.6-0.5l0,0l-0.7,0.2l0-1.2l-5.2-6.3l0.7-3.4l2-0.8l1.4,0.5
			l0,0l0.6,0.1l0,0l-4.5-7.5l0.1-2.3l2-1.5l0.3-2.1l-3.6,1.5l-5-8.6l0,0v-0.3l0,0l-0.8-2.3l-1.9,0.3l-0.3-3.6l-2.3-3.8l0.7-6.2
			l6.4-1.4l0.8,1.1l1-1.1l2.7,0.3l3-3.3l0.3-2.4l0.9-0.4l6-0.1l0,1.6l3.6-0.7l4.1,0.8l1.1,1.9l3.3-1l0.3,1.5l1.1-0.4l5.8-2.8
			l3.3-3.1l2.9-0.7l-0.6-2.1l1.1-4.8l3,0.7l0.2-1.4L365.7,219.2z"/>
		<path id="DE-SH" class="st0" d="M181.1,108.7l-1.4,1l1.2,0.2l-0.6,1.6l-1.1-1.7l0.9-1.3L181.1,108.7L181.1,108.7z M167.1,66.9
			l1.3,0.2l-0.3,0.8l1.3,1.4l-1.9,1.7l-1.6-1.5l-1-2.8l1.3-1.5L167.1,66.9z M332.8,58.4l5.6,1l3.8,1.9l5.4,11.1l-4.2-1.1l-3.2,0.5
			l-0.1-0.8h2.2l-2.5-0.9l-1.5,1l1.3,0.5l-0.6,0.7l-3.7-0.1l-1.6-0.8l0.5-2.5l-1-1.7l-1.4-0.5l-2.7,1l1.6,1.6L328,68l0.1-4.5
			l1.2-2.8l2-2.6L332.8,58.4L332.8,58.4z M167.6,58.1l-0.9,4.3l-1.2-5.3L167.6,58.1z M188.3,56l1.3,0.7l-0.9,0.5l-2.1-1L188.3,56
			L188.3,56z M181.3,55.4l-0.4,3.5l-1.2,0.6l1,0.3l-0.4,0.9l0.8,1l-0.9-0.8l-1.1,1.6l-3.3,0.4l-1.8-2.3l-0.1-2.2L181.3,55.4z
			 M171.7,53.1l1.3,2.2l-1.6,0.1l-2.5-2.2L171.7,53.1L171.7,53.1z M183.3,46.4l-0.6,1.3l-1.1-0.3l0.3-0.9L183.3,46.4z M178.6,44.4
			l-1,2l-4,0.6l-2.3,1.8l-1.2-0.9l0.8-1.2l6.1-1.5l1.7-1.6L178.6,44.4L178.6,44.4z M182.3,41.4l-0.8,1.5l-1.7-0.2l1.8-2.2
			L182.3,41.4z M160.7,46.5l-0.1,0.9l1.3,0.4l-1.2,0.5l1,0.9l-2.4,0.5l-4.4-6.2l4.5-5.2l-1.4,2.7l1.5,4.3L160.7,46.5L160.7,46.5z
			 M169.8,33.6l3.9,1.2l-0.2,1.8l1,1.2l-2,4.3l-5.3,0l-5.4-2.4l-0.2-2l2.1-3.1L169.8,33.6L169.8,33.6z M164.2,1l1.8,0.6l-4.4,0.1
			l0.3,1l1.7,0.2l0.8,2.1l-3.7,1.9l-1.9,3.3l1.1,7.6l3.6,2.3l11.1-1l2.2-1.3v-1.4l2.8-0.1l3,1.9l3.1,0.2L188,17l3.1,1l2.5-0.9
			l3.1,0.3l6.5,3.4l6.1-0.1l5.8,2.5l0.9,4.5l1.5-0.2l1.4,1.2l0.7-0.7l2.4,0.8l2.5-4.1l1.7-0.5l1.8,3.5l0,2.4l2-3.8l2,0l1.1-1.7
			l3.5-2.1l1.1-2.1l1.5-0.1l-1.4,3.1l1,2l12,3.8l3.8,4.8L256,34l1.2-2.1l0.7,0.9l0-3.7l3.3,2l2,6.7l3.1,3.6l-0.2,1.5l-0.4-2.1
			l-1.9,0.5l0.7,2.8l1.6-0.9l-1.3,1l1.3,0.4l-0.5,11.7l-4,5.2l-6,3.2l-2.3,0l2.1,2.9l3-0.5l1.2-1l-0.6-0.1l12.9-2.4l4.8,3.2
			l-1.9,2.2l1.3,5l-1.9,0.6l-0.4,1.8l-0.8-0.1l0.9,3.4l-1.5,2.8l2.1-2.2l1.2,0.4l-1-0.6l0.5-3.1l1.1-0.6l-0.1-1.3l2.2-3.8l3.4-0.4
			l1-1.4l1.8-0.5l4.7,1.3l5.3,3.7l7.6,2.8l6.6,6.4l5.5-0.8l9-7.6l5.6,0.2l-2.5,0.5l2.9,0.8l3.5-1l0.5-1.5l1.6-0.7l-0.2,1l0.6-0.6
			l0.9,0.7l-0.4,1.7l-3.1,3l0.2-0.9l-1.4,0l0.3,0.9l0.7-0.3l1.3,16.2l-9,6.2l-5.2,6l-3.2-0.5l-0.7-1.8l-1.2,3.4l-2.5,2.8l2.1,5.4
			l5.4,0.7l0.9,1.4l-0.2,2.2l1.4,0.3l0,0l-0.7,3.6l4.6,1.6l-3.5,1l-0.5-1l0.6-0.9l-2-1l-2.3,3l-1.8,0.4l-1,1.9l-1.9,0.4l-1.5,2.3
			l1.6,6.3l-0.7,2.6l0,0l-0.3,1.8l0,0l3,1.5l0.4,1.9l2.5,2l4.6,0.3l-0.2,1l1.4,0.6l0.6,3.9l-1.5,2.1l-1.2,6.2l-3.8,0.7l-0.7-1.3
			l-1,0.2l0.7,3.5l-1.2,2.3l0.7,0.8l-2.4,0.3l-2,2.9l-3.5,0.5l-0.6,2.4l-2.5-0.6l-1.3,0.7l-1.1,7.6l-1.3,1.9l0,0l-1,0.5l-5.1-1.5
			l-7.8-5.3l-3-0.1l-1.4-0.9l0,0l1.1-1.6l-2.1-0.3l-3.3-3.2l-1.9-4.1l-1.5,0.9l-1.6-1.1l-0.7-5.4l3.1-1.4l-0.5-2.9l2-2.3l-1.9-0.5
			l0.5-1l-0.9-1.7l-2.6-1.5l1-1.4l-0.2-1.5l1.6-0.6l0.6-1.6l0.1-0.8l-1.6-0.8l-3,2.7l-2.6-0.8l-0.8,1l0.7,0.7l-0.8,2.8l-4.2-0.3
			l-1.3,3.7l-4.6-0.6l-1,3.1l-3.5,3.9l-2.3-0.8l-0.2-2l-1.5-0.5l-0.1-1.6l-2.6,8l0,0l-3.6-0.9l-7.9-5.6l-2.8-8.3l-5.1-4.8l-3.9-8
			L220,132l-6.7-2.8l-13.1,0.6l0,0l-1-1.9l-2.1-0.7l-3.2-3.9l-1.5-4.9l-1.3-1.4l1.3-1.1l-1.4,0.8l-1.7-3l-1.8-0.1l4.8-2.3l2.6,0.5
			l-0.5,1.1l0.8,0l0-0.8l0.4,0.8l1.6-0.4l1.7-2.4l-0.1-0.7l-1.6-0.1l1.3-0.6l-1.9-2.3l0.8-0.3l-0.9,0l-1.2-4.1l-2-0.3l-2.3,1.6
			l0.2-1.1l-0.4,1.2l-3.1-5.7l2.1-6.6l-0.1-5.6l-0.8-0.9l-2.7,1.1l-2.5-1.2l-2.2,0.3l-2,2.4l-2.1-1l-2.7-4l0.6,2.1l-1.3-1.2l1.2,2
			l-1.8-2.5l1.7-5.1l0.9-0.3l-0.4,1.2l1.7,0.7l0.9-1.5l2.2-0.4l-0.9,0.4l1-2l-1,0.6l-1.3-0.6l-0.3,0.7l-2.7-0.5l0.8-2.1l12.9-2.8
			l3.2,0.8l3.2-2.2l2.5-3.3l2.6-0.6l0.4-1.5l1.9,0.8l0.9-0.7l-1.3,0.4l-1.7-0.8l0.2-2l-1.4-2.4l-1.6,1l-1.8,4.6l-0.9-0.3l0.5,0.4
			l-1.8,1l-3.4-0.1l-2.4-1.1l0.8-1.7l-0.8-1.4l4.4-3.8l-0.3-3.4l0.8-3.1l0.7-0.1l-1.4-0.5l0.6-1.3l-0.9,1.3l-3.3,0l-0.3-0.8l3-1.5
			l-1,0.2l-1.5-4.1l-4.4-3l-0.5-3.3l-3.1-1.6l-0.3-0.7l1.2-0.8l-0.8-3.4l-5.6-7.8l-0.4-4.8l-5.6,0.1l-6.2,3.9l-2.4-1.3l-0.8-1.9
			l-1.5-0.4l-0.4,1.7l-2.2,1.5l-0.1,12.1l-1.1-1.1l1-17.7l6.3-15.7l1.1-0.6L164.2,1L164.2,1z"/>
		<path id="DE-TH" class="st0" d="M308.5,364.4l3.4,0l0.7-0.8l3,1l0.5,1.7l2.4-1l1.9,2.2l2.3-0.6l-0.5,0.8l1.4,0.8l-0.4,1.2
			l-2.3-1.1l-0.5,2.4h0.3l0.3,1.9l0,0.6l1-0.3l2.2,2l-1.3,1.8l3,3.9l-0.7,1.7l0,0.3l0.2,3.1l2.8,0.7l-1.2,0.8l3.7-0.3l0.8-1l5.1,2.7
			l3.1,0l1.9-1l1.7,0.8l0.1,1l4.6-1.4l1.6,2.5l3.3,0.5l0.2,3.7l1.8,0.3l-0.8,1l3.9,3.7l-1.1,0.5l-2.7,4.8l-1.2,0.7l-1.1-0.9
			l-0.9,2.5l1.6,0.3l0,1.3l3.3-0.5l0.5,1.8l1.1,0l0,2.3l0.9,0.4l-1,1.6l-1.2,0.3l1,1.8l-0.3,1.5l1.5,1.2l3.7,0l1.8-1.6l2.2,0.7
			l0.7,1.4l1.3-1.4l2,0.1l1.9,1.9l0.1,2.2l2,0.3l1.7,2.6l1-1.1l1.5,0.6l5.9-0.7l1.5,2.8l1.9-0.5l1.7,1.1l0,2.9l2.4,0.2l0.7,2.4
			l4.7-1l4.8,1.8l1.2-1.6l0.5,1.6l1.5-0.1l0,2.2l1.6-1.6l-0.6-0.8l1-2.1l2.9-3.7l-0.3-2l-2.4,0.2l2.1-5.3l3.4-1.3l1.3,0.8l0.3,1.5
			l2-0.4l1,1l3-0.9l0.8,1.8l1.1,0l1.1,0.3l0.3,4.6l0.5-1l1.5,0.3l0.1,1.8l-0.9,0.7l3.1,1.3l2-1l1,5.7l1.9,2l-1,1.7l-1.1-0.7l-5.3,1
			l-1.1-0.7l-0.9,0.5l0.2,1l-1.7-0.2l-2.5,3l-0.2,2.2l-1.3,0.4l-0.2-1.9l-0.8,1l-1.8-0.5l-1.6,1.6l-0.1,1.4l-2.6,0.4l-0.6-1.1
			l0.2,1.4l-0.7-0.9l-0.7,1.5l-1.8-1l0.2,3.2l2.1-0.2l0.1,0.8l-1.4,2.2l-1.8-0.5l-0.8,2.8l2.5,0.1l0.5,1l-1.2,1.1l0.5,2.2l3.7,1
			l-0.2,2.1l-3.3,1.9l-0.1,1.4l-4.1-0.9l-0.6,2.5l-2.6-1.6l-0.9,4.6l1.6-0.1l0.1,0.7l-2.5,0.9l-1.4-1.1l-1.4,0.2l-0.2,2l-1.3,0.5
			l-1.8,0.1l-0.6-1.7l1.2-2.6l-2.2-2.1l1.1-1l-1.2-1l-1.2,1.3l0.3,1.2l-3.9,2.5l0.2,2.8l-2.8,0.4l-0.9,1.5l1.1,2l2.8-0.6l0,1.5
			l2.1,2.2l-1.7,1.6l0.7,1.7l-1.1-0.8l-2.3,1.4l0.3,1.3l1.8,0.4l-0.3,0.9l-6.3,3.4v-1.3l-2.9-1.7l-0.4,0.9l-1.3-0.4l0.7,0.9
			l-1.6-0.3l-1.6,1.3l-0.4-0.6l-5.3,1.5l-2-1.5l-1.4,0.3l-0.7,1.5l-2.4,1l-0.1-2.1l-2.6-0.5l0.2-3l-1.2-0.2l-1.4,1.2l0.5-1.2
			l-1.9-1.3l0-5l1,0.2l0.4-0.8l-0.6-1.2l-5.4-1l0.1,1l-1.6,0.2l0,1.8l-1.3,0.1l-0.7,1.4l-0.3-1l-2.5,0.6l0,3l1.2,1.9l-0.6,3l1.7,4
			l-1.5,0.9l0.9,1.5l-1-0.1l0.5,3.1l-1.1,1.3l0.6,0.5h-0.3l-0.3,2l-3.6-2.4l-0.3,2l-0.9,0.3l0.4-1.1l-2.3-0.5l-0.8-1.4l1.6-3
			l-1.3-2.3l-1.3,0.4l-0.2-1.8l-1.7,0.1l-0.2,1.3l-2.6,0.8l-0.5-1.6l-2.8-0.5l0.3,1.6l-0.8,0.2l-3.1-4.4l-1.3,0.4l-0.5,0.2l-1.1,0.6
			l-1-1.6l-0.9,0.9l-1.9-0.5l-1.7,1.3l-1.2-0.5l-2,2.6l-2.5-0.6l-0.2,1.8l1,0.1l-0.8,2.4l1.7,0.5l1.8,2.2l2.1,0.2l0.2,1.2h0.4
			l2.2,0.4l0.1,3.1l-1.5,0.7l-1.4-1.4l-2,1l-2.4-1l-0.1,4l-0.8,0.7l-1.1-0.7h-0.3l-2.3-1.8l-1.9,0.7l-1.4-0.7l-0.6-1.5l0.9-0.4
			l-0.8-1.4l0.6-0.8l-1,0l0.8-2.1l-0.8-1.5l0.5-2.6l-2.4-0.4l-1.1-2.6l-0.8-0.2l-1.1,1.5l-0.2-1l-1.3,0.5l0-2l-0.7,0.2H294l-1.3-2.8
			l-3.6,0.8l-0.7-1.5l1.2-1.7l-2-0.6l0.7-0.8l-0.9,0.1l-2-2.7l-0.4-2.9l-1.8,0l-3-1.9l-1.5,0.2l0-2l-1.5-0.9l-0.3-1.4l-1.6,0.2
			l-0.3,0.9l-1.6-1l-0.5,1l-2.2-2.1l-2.4,2.8l0.1,0.9l-2,1l-0.2-1.3l1.4-2.7l-1.5-5.5l0.8-1.3l2.1,0.1l-1.8-4.9l-3.4-0.5l-3,0.9
			l-0.3,1.1l1.2,1.5l-0.5,1.2l-5.3-1.1l0.2-3l2.8-2.4l-0.9-1.1l2-3.4l-0.1-1.7l-1.1-0.3l0.3-1.5l1.8,0l-0.6-2.6l0.6-2.2l1.4-1.1
			l0.4,0.1l1,0.5l0.6-1.1l1.3,0.3l0.7-1.8l-1.1,0.4l0.1-1.8l2.4-1.7l-0.1-0.8l-0.8,0.1l0.2-1.1l-2.5-2.2l-2.6,1.4l1-2.4l-1.5-0.1
			l-0.7,0.9l-0.2-1.9l3.9,0.8l0.8-0.9l0.3,0.6l2.2-0.7l-1.3-0.5l-0.1-1.9l-1.4-1.4l1.3-3.2l4,0.9l1.1-0.6l1.7,1.8l3.7-1.5l-0.7-1.1
			l1.4-0.8l-0.6-0.9l-4.1-2.5l0.8-1l-0.6-1.6l1.9-3.2l-3.5-2.3l3-1.4l2.1,4.1l0.8-1.3l-0.6-2.6l2.2-3.5l-2.6-0.7l-1.9-2l-1.1,0.5
			l-0.6-1.4l-1.7,0.5l-2.8-1.1l0.6-1.7l-2-1.1l0.5-2.5l-5.3-0.6l-0.2-1.6l-1.9-0.7l0.6-1.3l-1.5-3.5l0.2-2.1l4.6-3l0.6-1.6l1.8,0
			l0.5-1.7l1.4,1.9l0.8-1.7l2,0.4h0.4l2.3-0.1l-0.8-1.3l2-0.2l0.8-1.8l-0.5-0.7l1.5-1.7l0.9,1.6l1.1,0l0.8-1.3l3.4-1.1l0.5-2.1
			l2.2-0.5l2.4-4.5v-0.6l-0.6-1.9l3.6-0.5h0.4l3.9,2l1.5,2l2.7-0.2l2.9-2.4l3.2,2.1l0.6-1.8l-1.7-0.9l-0.3-2.3l0.9,0l-0.6-1.4
			l2.8-0.9l-0.4-0.9L308.5,364.4z"/>
	</g>
</g>
<g id="Layer_2">
	<path class="st1" d="M124.4,331.2c0.9,1.7,1.7,3.4,2.6,5.1c0.9-1.7,1.7-3.4,2.6-5.1c3.2,1.1,5.5,3.2,5.4,5.1
		c-0.1,2.6-4.8,4.3-8.2,4.1c-3.2-0.2-7.6-2-7.5-4.6C119.1,333.9,121.3,332.1,124.4,331.2z"/>
	<linearGradient id="SVGID_1_" gradientUnits="userSpaceOnUse" x1="156.3167" y1="289.4558" x2="170.501" y2="314.5304">
		<stop  offset="0" style="stop-color:#FFFFFF"/>
		<stop  offset="1" style="stop-color:#E0E1E2"/>
	</linearGradient>
	<path class="st2" d="M171.1,296.6c-2.5-2.7-6-2.8-6.3-2.8c-4.5-0.1-7.2,3.4-7.4,3.7c-1.8,2.4-1.8,5.1-1.8,6.1
		c0,3.6,1.8,5.6,4.4,10.3c1.3,2.3,3,5.6,4.7,9.8c1.9-4.1,3.6-7.4,4.8-9.7c2.9-5.4,4.3-7.2,4.3-10.4
		C173.7,302.5,173.6,299.2,171.1,296.6z M165.2,308.5c-3,0.2-5.5-2.9-4.9-5.8c0.4-2,2.4-3.7,4.7-3.6c2.2,0.1,4.1,1.8,4.5,3.8
		C170,305.7,167.8,308.4,165.2,308.5z"/>
	<linearGradient id="SVGID_2_" gradientUnits="userSpaceOnUse" x1="314.3294" y1="270.4446" x2="328.5137" y2="295.5192">
		<stop  offset="0" style="stop-color:#FFFFFF"/>
		<stop  offset="1" style="stop-color:#E0E1E2"/>
	</linearGradient>
	<path class="st3" d="M329.1,277.6c-2.5-2.7-6-2.8-6.3-2.8c-4.5-0.1-7.2,3.4-7.4,3.7c-1.8,2.4-1.8,5.1-1.8,6.1
		c0,3.6,1.8,5.6,4.4,10.3c1.3,2.3,3,5.6,4.7,9.8c1.9-4.1,3.6-7.4,4.8-9.7c2.9-5.4,4.3-7.2,4.3-10.4
		C331.7,283.5,331.6,280.2,329.1,277.6z M323.2,289.5c-3,0.2-5.5-2.9-4.9-5.8c0.4-2,2.4-3.7,4.7-3.6c2.2,0.1,4.1,1.8,4.5,3.8
		C328,286.7,325.8,289.3,323.2,289.5z"/>
	<path class="st1" d="M320.1,300.2c0.9,1.7,1.7,3.4,2.6,5.1c0.9-1.7,1.7-3.4,2.6-5.1c3.2,1.1,5.5,3.2,5.4,5.1
		c-0.1,2.6-4.8,4.3-8.2,4.1c-3.2-0.2-7.6-2-7.5-4.6C314.9,303,317.1,301.1,320.1,300.2z"/>
	<linearGradient id="SVGID_3_" gradientUnits="userSpaceOnUse" x1="179.3567" y1="290.2769" x2="193.541" y2="315.3514">
		<stop  offset="0" style="stop-color:#FFFFFF"/>
		<stop  offset="1" style="stop-color:#E0E1E2"/>
	</linearGradient>
	<path class="st4" d="M194.1,297.4c-2.5-2.7-6-2.8-6.3-2.8c-4.5-0.1-7.2,3.4-7.4,3.7c-1.8,2.4-1.8,5.1-1.8,6.1
		c0,3.6,1.8,5.6,4.4,10.3c1.3,2.3,3,5.6,4.7,9.8c1.9-4.1,3.6-7.4,4.8-9.7c2.9-5.4,4.3-7.2,4.3-10.4
		C196.7,303.3,196.6,300,194.1,297.4z M188.2,309.3c-3,0.2-5.5-2.9-4.9-5.8c0.4-2,2.4-3.7,4.7-3.6c2.2,0.1,4.1,1.8,4.5,3.8
		C193,306.5,190.9,309.2,188.2,309.3z"/>
	<path class="st1" d="M168.1,341.8c0.9,1.7,1.7,3.4,2.6,5.1c0.9-1.7,1.7-3.4,2.6-5.1c3.2,1.1,5.5,3.2,5.4,5.1
		c-0.1,2.6-4.8,4.3-8.2,4.1c-3.2-0.2-7.6-2-7.5-4.6C162.9,344.5,165.1,342.7,168.1,341.8z"/>
	<linearGradient id="SVGID_4_" gradientUnits="userSpaceOnUse" x1="135.4167" y1="282.6821" x2="149.601" y2="307.7567">
		<stop  offset="0" style="stop-color:#FFFFFF"/>
		<stop  offset="1" style="stop-color:#E0E1E2"/>
	</linearGradient>
	<path class="st5" d="M150.2,289.8c-2.5-2.7-6-2.8-6.3-2.8c-4.5-0.1-7.2,3.4-7.4,3.7c-1.8,2.4-1.8,5.1-1.8,6.1
		c0,3.6,1.8,5.6,4.4,10.3c1.3,2.3,3,5.6,4.7,9.8c1.9-4.1,3.6-7.4,4.8-9.7c2.9-5.4,4.3-7.2,4.3-10.4
		C152.8,295.7,152.7,292.4,150.2,289.8z M144.3,301.7c-3,0.2-5.5-2.9-4.9-5.8c0.4-2,2.4-3.7,4.7-3.6c2.2,0.1,4.1,1.8,4.5,3.8
		C149.1,298.9,146.9,301.6,144.3,301.7z"/>
	<path class="st1" d="M141.2,312.5c0.9,1.7,1.7,3.4,2.6,5.1c0.9-1.7,1.7-3.4,2.6-5.1c3.2,1.1,5.5,3.2,5.4,5.1
		c-0.1,2.6-4.8,4.3-8.2,4.1c-3.2-0.2-7.6-2-7.5-4.6C136,315.2,138.2,313.4,141.2,312.5z"/>
	<linearGradient id="SVGID_5_" gradientUnits="userSpaceOnUse" x1="118.5519" y1="301.4025" x2="132.7362" y2="326.4771">
		<stop  offset="0" style="stop-color:#FFFFFF"/>
		<stop  offset="1" style="stop-color:#E0E1E2"/>
	</linearGradient>
	<path class="st6" d="M133.3,308.5c-2.5-2.7-6-2.8-6.3-2.8c-4.5-0.1-7.2,3.4-7.4,3.7c-1.8,2.4-1.8,5.1-1.8,6.1
		c0,3.6,1.8,5.6,4.4,10.3c1.3,2.3,3,5.6,4.7,9.8c1.9-4.1,3.6-7.4,4.8-9.7c2.9-5.4,4.3-7.2,4.3-10.4
		C135.9,314.4,135.8,311.2,133.3,308.5z M127.4,320.4c-3,0.2-5.5-2.9-4.9-5.8c0.4-2,2.4-3.7,4.7-3.6c2.2,0.1,4.1,1.8,4.5,3.8
		C132.2,317.6,130,320.3,127.4,320.4z"/>
	<path class="st1" d="M162.1,319.2c0.9,1.7,1.7,3.4,2.6,5.1c0.9-1.7,1.7-3.4,2.6-5.1c3.2,1.1,5.5,3.2,5.4,5.1
		c-0.1,2.6-4.8,4.3-8.2,4.1c-3.2-0.2-7.6-2-7.5-4.6C156.9,322,159.1,320.1,162.1,319.2z"/>
	<linearGradient id="SVGID_6_" gradientUnits="userSpaceOnUse" x1="345.0567" y1="552.0382" x2="359.241" y2="577.1128">
		<stop  offset="0" style="stop-color:#FFFFFF"/>
		<stop  offset="1" style="stop-color:#E0E1E2"/>
	</linearGradient>
	<path class="st7" d="M359.8,559.2c-2.5-2.7-6-2.8-6.3-2.8c-4.5-0.1-7.2,3.4-7.4,3.7c-1.8,2.4-1.8,5.1-1.8,6.1
		c0,3.6,1.8,5.6,4.4,10.3c1.3,2.3,3,5.6,4.7,9.8c1.9-4.1,3.6-7.4,4.8-9.7c2.9-5.4,4.3-7.2,4.3-10.4
		C362.4,565.1,362.3,561.8,359.8,559.2z M353.9,571.1c-3,0.2-5.5-2.9-4.9-5.8c0.4-2,2.4-3.7,4.7-3.6c2.2,0.1,4.1,1.8,4.5,3.8
		C358.7,568.3,356.6,570.9,353.9,571.1z"/>
	<path class="st1" d="M350.9,581.8c0.9,1.7,1.7,3.4,2.6,5.1c0.9-1.7,1.7-3.4,2.6-5.1c3.2,1.1,5.5,3.2,5.4,5.1
		c-0.1,2.6-4.8,4.3-8.2,4.1c-3.2-0.2-7.6-2-7.5-4.6C345.6,584.6,347.9,582.7,350.9,581.8z"/>
	<path class="st1" d="M185.2,320.1c0.9,1.7,1.7,3.4,2.6,5.1c0.9-1.7,1.7-3.4,2.6-5.1c3.2,1.1,5.5,3.2,5.4,5.1
		c-0.1,2.6-4.8,4.3-8.2,4.1c-3.2-0.2-7.6-2-7.5-4.6C179.9,322.8,182.2,321,185.2,320.1z"/>
	<linearGradient id="SVGID_7_" gradientUnits="userSpaceOnUse" x1="162.3167" y1="312.0038" x2="176.501" y2="337.0784">
		<stop  offset="0" style="stop-color:#FFFFFF"/>
		<stop  offset="1" style="stop-color:#E0E1E2"/>
	</linearGradient>
	<path class="st8" d="M177.1,319.1c-2.5-2.7-6-2.8-6.3-2.8c-4.5-0.1-7.2,3.4-7.4,3.7c-1.8,2.4-1.8,5.1-1.8,6.1
		c0,3.6,1.8,5.6,4.4,10.3c1.3,2.3,3,5.6,4.7,9.8c1.9-4.1,3.6-7.4,4.8-9.7c2.9-5.4,4.3-7.2,4.3-10.4
		C179.7,325,179.6,321.8,177.1,319.1z M171.2,331c-3,0.2-5.5-2.9-4.9-5.8c0.4-2,2.4-3.7,4.7-3.6c2.2,0.1,4.1,1.8,4.5,3.8
		C176,328.2,173.8,330.9,171.2,331z"/>
	<linearGradient id="SVGID_8_" gradientUnits="userSpaceOnUse" x1="366.0319" y1="544.765" x2="380.2162" y2="569.8395">
		<stop  offset="0" style="stop-color:#FFFFFF"/>
		<stop  offset="1" style="stop-color:#E0E1E2"/>
	</linearGradient>
	<path class="st9" d="M380.8,551.9c-2.5-2.7-6-2.8-6.3-2.8c-4.5-0.1-7.2,3.4-7.4,3.7c-1.8,2.4-1.8,5.1-1.8,6.1
		c0,3.6,1.8,5.6,4.4,10.3c1.3,2.3,3,5.6,4.7,9.8c1.9-4.1,3.6-7.4,4.8-9.7c2.9-5.4,4.3-7.2,4.3-10.4
		C383.4,557.8,383.3,554.5,380.8,551.9z M374.9,563.8c-3,0.2-5.5-2.9-4.9-5.8c0.4-2,2.4-3.7,4.7-3.6c2.2,0.1,4.1,1.8,4.5,3.8
		C379.7,561,377.5,563.7,374.9,563.8z"/>
	<path class="st1" d="M371.8,574.5c0.9,1.7,1.7,3.4,2.6,5.1c0.9-1.7,1.7-3.4,2.6-5.1c3.2,1.1,5.5,3.2,5.4,5.1
		c-0.1,2.6-4.8,4.3-8.2,4.1c-3.2-0.2-7.6-2-7.5-4.6C366.6,577.3,368.8,575.4,371.8,574.5z"/>
	<linearGradient id="SVGID_9_" gradientUnits="userSpaceOnUse" x1="415.1142" y1="355.6782" x2="429.2985" y2="380.7528">
		<stop  offset="0" style="stop-color:#FFFFFF"/>
		<stop  offset="1" style="stop-color:#E0E1E2"/>
	</linearGradient>
	<path class="st10" d="M429.9,362.8c-2.5-2.7-6-2.8-6.3-2.8c-4.5-0.1-7.2,3.4-7.4,3.7c-1.8,2.4-1.8,5.1-1.8,6.1
		c0,3.6,1.8,5.6,4.4,10.3c1.3,2.3,3,5.6,4.7,9.8c1.9-4.1,3.6-7.4,4.8-9.7c2.9-5.4,4.3-7.2,4.3-10.4
		C432.5,368.7,432.4,365.4,429.9,362.8z M424,374.7c-3,0.2-5.5-2.9-4.9-5.8c0.4-2,2.4-3.7,4.7-3.6c2.2,0.1,4.1,1.8,4.5,3.8
		C428.8,371.9,426.6,374.6,424,374.7z"/>
	<path class="st1" d="M420.9,385.5c0.9,1.7,1.7,3.4,2.6,5.1c0.9-1.7,1.7-3.4,2.6-5.1c3.2,1.1,5.5,3.2,5.4,5.1
		c-0.1,2.6-4.8,4.3-8.2,4.1c-3.2-0.2-7.6-2-7.5-4.6C415.7,388.2,417.9,386.4,420.9,385.5z"/>
	<linearGradient id="SVGID_10_" gradientUnits="userSpaceOnUse" x1="475.8416" y1="397.2921" x2="490.0259" y2="422.3667">
		<stop  offset="0" style="stop-color:#FFFFFF"/>
		<stop  offset="1" style="stop-color:#E0E1E2"/>
	</linearGradient>
	<path class="st11" d="M490.6,404.4c-2.5-2.7-6-2.8-6.3-2.8c-4.5-0.1-7.2,3.4-7.4,3.7c-1.8,2.4-1.8,5.1-1.8,6.1
		c0,3.6,1.8,5.6,4.4,10.3c1.3,2.3,3,5.6,4.7,9.8c1.9-4.1,3.6-7.4,4.8-9.7c2.9-5.4,4.3-7.2,4.3-10.4
		C493.2,410.3,493.1,407,490.6,404.4z M484.7,416.3c-3,0.2-5.5-2.9-4.9-5.8c0.4-2,2.4-3.7,4.7-3.6c2.2,0.1,4.1,1.8,4.5,3.8
		C489.5,413.5,487.3,416.2,484.7,416.3z"/>
	<path class="st1" d="M481.6,427.1c0.9,1.7,1.7,3.4,2.6,5.1c0.9-1.7,1.7-3.4,2.6-5.1c3.2,1.1,5.5,3.2,5.4,5.1
		c-0.1,2.6-4.8,4.3-8.2,4.1c-3.2-0.2-7.6-2-7.5-4.6C476.4,429.8,478.6,428,481.6,427.1z"/>
	<linearGradient id="SVGID_11_" gradientUnits="userSpaceOnUse" x1="497.0867" y1="390.5521" x2="511.271" y2="415.6267">
		<stop  offset="0" style="stop-color:#FFFFFF"/>
		<stop  offset="1" style="stop-color:#E0E1E2"/>
	</linearGradient>
	<path class="st12" d="M511.9,397.7c-2.5-2.7-6-2.8-6.3-2.8c-4.5-0.1-7.2,3.4-7.4,3.7c-1.8,2.4-1.8,5.1-1.8,6.1
		c0,3.6,1.8,5.6,4.4,10.3c1.3,2.3,3,5.6,4.7,9.8c1.9-4.1,3.6-7.4,4.8-9.7c2.9-5.4,4.3-7.2,4.3-10.4
		C514.4,403.6,514.4,400.3,511.9,397.7z M506,409.6c-3,0.2-5.5-2.9-4.9-5.8c0.4-2,2.4-3.7,4.7-3.6c2.2,0.1,4.1,1.8,4.5,3.8
		C510.8,406.8,508.6,409.4,506,409.6z"/>
	<path class="st1" d="M502.9,420.3c0.9,1.7,1.7,3.4,2.6,5.1c0.9-1.7,1.7-3.4,2.6-5.1c3.2,1.1,5.5,3.2,5.4,5.1
		c-0.1,2.6-4.8,4.3-8.2,4.1c-3.2-0.2-7.6-2-7.5-4.6C497.7,423.1,499.9,421.2,502.9,420.3z"/>
	<linearGradient id="SVGID_12_" gradientUnits="userSpaceOnUse" x1="512.3919" y1="405.4318" x2="526.5762" y2="430.5064">
		<stop  offset="0" style="stop-color:#FFFFFF"/>
		<stop  offset="1" style="stop-color:#E0E1E2"/>
	</linearGradient>
	<path class="st13" d="M527.2,412.5c-2.5-2.7-6-2.8-6.3-2.8c-4.5-0.1-7.2,3.4-7.4,3.7c-1.8,2.4-1.8,5.1-1.8,6.1
		c0,3.6,1.8,5.6,4.4,10.3c1.3,2.3,3,5.6,4.7,9.8c1.9-4.1,3.6-7.4,4.8-9.7c2.9-5.4,4.3-7.2,4.3-10.4
		C529.7,418.5,529.7,415.2,527.2,412.5z M521.3,424.5c-3,0.2-5.5-2.9-4.9-5.8c0.4-2,2.4-3.7,4.7-3.6c2.2,0.1,4.1,1.8,4.5,3.8
		C526.1,421.7,523.9,424.3,521.3,424.5z"/>
	<path class="st1" d="M518.2,435.2c0.9,1.7,1.7,3.4,2.6,5.1c0.9-1.7,1.7-3.4,2.6-5.1c3.2,1.1,5.5,3.2,5.4,5.1
		c-0.1,2.6-4.8,4.3-8.2,4.1c-3.2-0.2-7.6-2-7.5-4.6C513,438,515.2,436.1,518.2,435.2z"/>
	<linearGradient id="SVGID_13_" gradientUnits="userSpaceOnUse" x1="141.2219" y1="307.0871" x2="155.4062" y2="332.1617">
		<stop  offset="0" style="stop-color:#FFFFFF"/>
		<stop  offset="1" style="stop-color:#E0E1E2"/>
	</linearGradient>
	<path class="st14" d="M156,314.2c-2.5-2.7-6-2.8-6.3-2.8c-4.5-0.1-7.2,3.4-7.4,3.7c-1.8,2.4-1.8,5.1-1.8,6.1
		c0,3.6,1.8,5.6,4.4,10.3c1.3,2.3,3,5.6,4.7,9.8c1.9-4.1,3.6-7.4,4.8-9.7c2.9-5.4,4.3-7.2,4.3-10.4
		C158.6,320.1,158.5,316.8,156,314.2z M150.1,326.1c-3,0.2-5.5-2.9-4.9-5.8c0.4-2,2.4-3.7,4.7-3.6c2.2,0.1,4.1,1.8,4.5,3.8
		C154.9,323.3,152.7,326,150.1,326.1z"/>
	<path class="st1" d="M147,336.9c0.9,1.7,1.7,3.4,2.6,5.1c0.9-1.7,1.7-3.4,2.6-5.1c3.2,1.1,5.5,3.2,5.4,5.1
		c-0.1,2.6-4.8,4.3-8.2,4.1c-3.2-0.2-7.6-2-7.5-4.6C141.8,339.6,144,337.8,147,336.9z"/>
	<linearGradient id="SVGID_14_" gradientUnits="userSpaceOnUse" x1="456.7342" y1="233.7985" x2="470.9185" y2="258.8731">
		<stop  offset="0" style="stop-color:#FFFFFF"/>
		<stop  offset="1" style="stop-color:#E0E1E2"/>
	</linearGradient>
	<path class="st15" d="M471.5,240.9c-2.5-2.7-6-2.8-6.3-2.8c-4.5-0.1-7.2,3.4-7.4,3.7c-1.8,2.4-1.8,5.1-1.8,6.1
		c0,3.6,1.8,5.6,4.4,10.3c1.3,2.3,3,5.6,4.7,9.8c1.9-4.1,3.6-7.4,4.8-9.7c2.9-5.4,4.3-7.2,4.3-10.4
		C474.1,246.8,474,243.6,471.5,240.9z M465.6,252.8c-3,0.2-5.5-2.9-4.9-5.8c0.4-2,2.4-3.7,4.7-3.6c2.2,0.1,4.1,1.8,4.5,3.8
		C470.4,250,468.2,252.7,465.6,252.8z"/>
	<path class="st1" d="M462.5,263.6c0.9,1.7,1.7,3.4,2.6,5.1c0.9-1.7,1.7-3.4,2.6-5.1c3.2,1.1,5.5,3.2,5.4,5.1
		c-0.1,2.6-4.8,4.3-8.2,4.1c-3.2-0.2-7.6-2-7.5-4.6C457.3,266.3,459.5,264.5,462.5,263.6z"/>
	<linearGradient id="SVGID_15_" gradientUnits="userSpaceOnUse" x1="474.7742" y1="226.6068" x2="488.9585" y2="251.6814">
		<stop  offset="0" style="stop-color:#FFFFFF"/>
		<stop  offset="1" style="stop-color:#E0E1E2"/>
	</linearGradient>
	<path class="st16" d="M489.6,233.7c-2.5-2.7-6-2.8-6.3-2.8c-4.5-0.1-7.2,3.4-7.4,3.7c-1.8,2.4-1.8,5.1-1.8,6.1
		c0,3.6,1.8,5.6,4.4,10.3c1.3,2.3,3,5.6,4.7,9.8c1.9-4.1,3.6-7.4,4.8-9.7c2.9-5.4,4.3-7.2,4.3-10.4
		C492.1,239.6,492,236.4,489.6,233.7z M483.6,245.6c-3,0.2-5.5-2.9-4.9-5.8c0.4-2,2.4-3.7,4.7-3.6c2.2,0.1,4.1,1.8,4.5,3.8
		C488.5,242.8,486.3,245.5,483.6,245.6z"/>
	<path class="st1" d="M480.6,256.4c0.9,1.7,1.7,3.4,2.6,5.1c0.9-1.7,1.7-3.4,2.6-5.1c3.2,1.1,5.5,3.2,5.4,5.1
		c-0.1,2.6-4.8,4.3-8.2,4.1c-3.2-0.2-7.6-2-7.5-4.6C475.4,259.1,477.6,257.3,480.6,256.4z"/>
	<linearGradient id="SVGID_16_" gradientUnits="userSpaceOnUse" x1="498.3051" y1="207.0182" x2="512.4894" y2="232.0928">
		<stop  offset="0" style="stop-color:#FFFFFF"/>
		<stop  offset="1" style="stop-color:#E0E1E2"/>
	</linearGradient>
	<path class="st17" d="M513.1,214.1c-2.5-2.7-6-2.8-6.3-2.8c-4.5-0.1-7.2,3.4-7.4,3.7c-1.8,2.4-1.8,5.1-1.8,6.1
		c0,3.6,1.8,5.6,4.4,10.3c1.3,2.3,3,5.6,4.7,9.8c1.9-4.1,3.6-7.4,4.8-9.7c2.9-5.4,4.3-7.2,4.3-10.4
		C515.7,220,515.6,216.8,513.1,214.1z M507.2,226.1c-3,0.2-5.5-2.9-4.9-5.8c0.4-2,2.4-3.7,4.7-3.6c2.2,0.1,4.1,1.8,4.5,3.8
		C512,223.3,509.8,225.9,507.2,226.1z"/>
	<path class="st1" d="M504.1,236.8c0.9,1.7,1.7,3.4,2.6,5.1c0.9-1.7,1.7-3.4,2.6-5.1c3.2,1.1,5.5,3.2,5.4,5.1
		c-0.1,2.6-4.8,4.3-8.2,4.1c-3.2-0.2-7.6-2-7.5-4.6C498.9,239.6,501.1,237.7,504.1,236.8z"/>
	<linearGradient id="SVGID_17_" gradientUnits="userSpaceOnUse" x1="470.1436" y1="253.0833" x2="484.3279" y2="278.1578">
		<stop  offset="0" style="stop-color:#FFFFFF"/>
		<stop  offset="1" style="stop-color:#E0E1E2"/>
	</linearGradient>
	<path class="st18" d="M484.9,260.2c-2.5-2.7-6-2.8-6.3-2.8c-4.5-0.1-7.2,3.4-7.4,3.7c-1.8,2.4-1.8,5.1-1.8,6.1
		c0,3.6,1.8,5.6,4.4,10.3c1.3,2.3,3,5.6,4.7,9.8c1.9-4.1,3.6-7.4,4.8-9.7c2.9-5.4,4.3-7.2,4.3-10.4
		C487.5,266.1,487.4,262.8,484.9,260.2z M479,272.1c-3,0.2-5.5-2.9-4.9-5.8c0.4-2,2.4-3.7,4.7-3.6c2.2,0.1,4.1,1.8,4.5,3.8
		C483.8,269.3,481.6,272,479,272.1z"/>
	<path class="st1" d="M475.9,282.9c0.9,1.7,1.7,3.4,2.6,5.1c0.9-1.7,1.7-3.4,2.6-5.1c3.2,1.1,5.5,3.2,5.4,5.1
		c-0.1,2.6-4.8,4.3-8.2,4.1c-3.2-0.2-7.6-2-7.5-4.6C470.7,285.6,472.9,283.8,475.9,282.9z"/>
	<linearGradient id="SVGID_18_" gradientUnits="userSpaceOnUse" x1="235.0019" y1="132.2621" x2="249.1862" y2="157.3367">
		<stop  offset="0" style="stop-color:#FFFFFF"/>
		<stop  offset="1" style="stop-color:#E0E1E2"/>
	</linearGradient>
	<path class="st19" d="M249.8,139.4c-2.5-2.7-6-2.8-6.3-2.8c-4.5-0.1-7.2,3.4-7.4,3.7c-1.8,2.4-1.8,5.1-1.8,6.1
		c0,3.6,1.8,5.6,4.4,10.3c1.3,2.3,3,5.6,4.7,9.8c1.9-4.1,3.6-7.4,4.8-9.7c2.9-5.4,4.3-7.2,4.3-10.4
		C252.4,145.3,252.3,142,249.8,139.4z M243.9,151.3c-3,0.2-5.5-2.9-4.9-5.8c0.4-2,2.4-3.7,4.7-3.6c2.2,0.1,4.1,1.8,4.5,3.8
		C248.7,148.5,246.5,151.2,243.9,151.3z"/>
	<linearGradient id="SVGID_19_" gradientUnits="userSpaceOnUse" x1="488.3596" y1="243.1571" x2="502.5439" y2="268.2317">
		<stop  offset="0" style="stop-color:#FFFFFF"/>
		<stop  offset="1" style="stop-color:#E0E1E2"/>
	</linearGradient>
	<path class="st20" d="M503.1,250.3c-2.5-2.7-6-2.8-6.3-2.8c-4.5-0.1-7.2,3.4-7.4,3.7c-1.8,2.4-1.8,5.1-1.8,6.1
		c0,3.6,1.8,5.6,4.4,10.3c1.3,2.3,3,5.6,4.7,9.8c1.9-4.1,3.6-7.4,4.8-9.7c2.9-5.4,4.3-7.2,4.3-10.4
		C505.7,256.2,505.6,252.9,503.1,250.3z M497.2,262.2c-3,0.2-5.5-2.9-4.9-5.8c0.4-2,2.4-3.7,4.7-3.6c2.2,0.1,4.1,1.8,4.5,3.8
		C502,259.4,499.9,262.1,497.2,262.2z"/>
	<path class="st1" d="M494.2,272.9c0.9,1.7,1.7,3.4,2.6,5.1c0.9-1.7,1.7-3.4,2.6-5.1c3.2,1.1,5.5,3.2,5.4,5.1
		c-0.1,2.6-4.8,4.3-8.2,4.1c-3.2-0.2-7.6-2-7.5-4.6C488.9,275.7,491.2,273.8,494.2,272.9z"/>
	<path class="st1" d="M240.8,162c0.9,1.7,1.7,3.4,2.6,5.1c0.9-1.7,1.7-3.4,2.6-5.1c3.2,1.1,5.5,3.2,5.4,5.1
		c-0.1,2.6-4.8,4.3-8.2,4.1c-3.2-0.2-7.6-2-7.5-4.6C235.6,164.8,237.8,162.9,240.8,162z"/>
	<linearGradient id="SVGID_20_" gradientUnits="userSpaceOnUse" x1="53.5067" y1="416.6782" x2="67.691" y2="441.7528">
		<stop  offset="0" style="stop-color:#FFFFFF"/>
		<stop  offset="1" style="stop-color:#E0E1E2"/>
	</linearGradient>
	<path class="st21" d="M68.3,423.8c-2.5-2.7-6-2.8-6.3-2.8c-4.5-0.1-7.2,3.4-7.4,3.7c-1.8,2.4-1.8,5.1-1.8,6.1
		c0,3.6,1.8,5.6,4.4,10.3c1.3,2.3,3,5.6,4.7,9.8c1.9-4.1,3.6-7.4,4.8-9.7c2.9-5.4,4.3-7.2,4.3-10.4
		C70.9,429.7,70.8,426.4,68.3,423.8z M62.4,435.7c-3,0.2-5.5-2.9-4.9-5.8c0.4-2,2.4-3.7,4.7-3.6c2.2,0.1,4.1,1.8,4.5,3.8
		C67.2,432.9,65,435.6,62.4,435.7z"/>
	<path class="st1" d="M59.3,446.5c0.9,1.7,1.7,3.4,2.6,5.1c0.9-1.7,1.7-3.4,2.6-5.1c3.2,1.1,5.5,3.2,5.4,5.1
		c-0.1,2.6-4.8,4.3-8.2,4.1c-3.2-0.2-7.6-2-7.5-4.6C54.1,449.2,56.3,447.4,59.3,446.5z"/>
</g>
</svg>
